<?xml version="1.0" standalone="no"?>

<!DOCTYPE svg PUBLIC "-//W3C//DTD SVG 20010904//EN"

 "http://www.w3.org/TR/2001/REC-SVG-20010904/DTD/svg10.dtd">

<svg version="1.0" xmlns="http://www.w3.org/2000/svg"

 width="1220.000000pt" height="488.000000pt" viewBox="0 0 1220.000000 488.000000"

 preserveAspectRatio="xMidYMid meet">

<path fill="#fcfcfc" stroke="none" d="
M0 244

L0 0

L610 0

L1220 0

L1220 244

L1220 488

L610 488

L0 488

L0 244

Z

"/>

<path fill="#1b1b1b" stroke="none" d="
M365 387

C359 385 357 382 357 377

C357 372 359 369 370 358

C380 348 381 346 386 337

C395 317 397 306 397 262

C397 214 396 210 382 195

C374 186 374 186 374 181

C374 177 375 176 377 174

C381 169 385 169 402 170

C413 171 418 171 430 170

C446 169 450 169 454 174

C456 176 457 178 457 182

C457 186 457 187 449 195

C435 210 435 208 434 273

C433 329 433 330 427 346

C420 365 406 378 387 384

C376 388 370 388 365 387

Z

M1035 355

C1003 349 981 325 977 293

C973 258 995 226 1028 216

C1037 214 1054 214 1063 215

C1082 220 1095 232 1099 250

C1100 258 1101 271 1099 275

C1096 281 1093 282 1048 285

C1033 286 1020 287 1020 287

C1018 288 1024 300 1030 306

C1036 312 1045 318 1054 320

C1065 323 1082 321 1090 316

C1092 315 1096 313 1099 311

C1105 306 1107 306 1110 309

C1113 312 1112 316 1108 324

C1099 338 1083 349 1067 354

C1059 355 1042 356 1035 355

Z

M1041 262

C1052 260 1062 259 1062 259

C1062 259 1061 256 1061 253

C1058 236 1044 229 1030 236

C1021 240 1015 252 1015 262

C1015 266 1015 266 1018 266

C1019 265 1030 264 1041 262

Z

M493 354

C489 352 484 347 481 342

C480 340 479 335 479 330

C478 304 499 271 528 251

C536 245 537 245 535 244

C530 242 518 241 505 241

C487 241 484 240 484 231

C484 227 487 223 495 219

C503 215 511 213 525 212

C544 211 555 214 567 221

L573 225

L581 221

C598 215 608 215 612 221

C614 226 612 230 604 242

C593 257 592 263 597 279

C600 289 609 306 617 317

C626 329 627 332 627 338

C626 343 622 348 615 352

C611 354 609 354 604 354

C590 352 578 341 570 322

C569 318 567 315 567 315

C567 315 565 317 564 319

C557 329 539 344 526 349

C514 355 501 356 493 354

Z

M539 311

C544 308 552 300 555 292

C558 287 558 284 559 278

C559 269 558 262 555 262

C551 262 532 282 526 293

C522 302 522 311 527 312

C530 313 535 313 539 311

Z

M651 353

C641 349 641 338 650 329

C658 323 662 317 664 308

C666 301 666 298 666 263

L667 226

L664 220

C661 214 658 211 650 209

C645 207 640 202 640 198

C640 192 643 189 655 181

C663 176 669 171 676 165

C688 153 692 150 700 151

C703 151 708 156 709 160

C710 163 710 166 708 174

C707 180 706 189 705 194

C704 205 703 242 704 242

C704 242 706 240 708 237

C714 227 725 220 738 216

C743 214 747 214 757 214

C774 213 782 217 791 227

C801 238 803 251 799 279

C797 296 798 309 801 315

C802 318 805 323 809 326

C815 334 817 337 816 344

C815 348 810 353 805 354

C803 354 794 354 784 353

C771 352 765 352 761 353

C747 356 738 353 736 347

C735 341 736 337 744 327

C751 319 758 306 762 296

C764 288 764 272 761 265

C753 243 732 237 716 252

C703 264 699 287 706 309

C707 313 710 319 713 324

C721 338 722 345 716 350

C711 354 709 354 696 353

C687 352 681 352 675 353

C665 354 654 354 651 353

Z

M840 352

C835 350 834 347 834 342

C834 336 835 335 842 330

C851 324 855 320 858 314

C863 303 863 281 859 271

C856 265 855 264 847 257

C832 246 834 238 854 228

C861 225 869 221 874 218

C884 211 889 210 894 212

C901 215 903 223 901 241

L900 248

L904 242

C910 235 925 221 932 216

C948 205 963 203 965 210

C965 212 964 219 964 225

C962 235 962 243 962 259

L963 279

L960 281

C957 284 952 284 949 281

C947 280 943 275 940 270

C933 260 930 258 925 256

C916 253 906 260 902 271

C897 285 898 303 903 315

C907 322 909 324 920 328

C931 332 933 334 933 341

C933 345 932 347 931 349

C926 354 924 355 902 353

C888 352 879 352 871 353

C853 355 844 354 840 352

Z

M108 351

C103 350 100 346 100 342

C100 337 106 332 131 315

C142 307 156 297 163 292

C192 269 207 247 206 230

C204 214 194 204 177 204

C170 204 168 204 163 207

C151 213 142 225 138 241

C135 254 135 255 133 257

C130 260 126 261 123 258

C119 255 118 251 117 240

C115 218 122 197 137 182

C144 176 159 168 170 165

C180 163 200 163 210 165

C220 168 229 173 236 180

C247 190 251 200 251 217

C251 229 249 238 243 251

C233 271 219 286 189 309

C169 324 169 325 186 325

C221 325 235 316 251 284

C258 271 260 269 263 269

C268 270 268 275 268 304

C268 333 267 340 262 346

C256 352 256 352 180 352

C140 352 110 351 108 351

Z

"/>

</svg>

