<?xml version="1.0" standalone="no"?>

<!DOCTYPE svg PUBLIC "-//W3C//DTD SVG 20010904//EN"

 "http://www.w3.org/TR/2001/REC-SVG-20010904/DTD/svg10.dtd">

<svg version="1.0" xmlns="http://www.w3.org/2000/svg"

 width="1570.000000pt" height="1354.000000pt" viewBox="0 0 1570.000000 1354.000000"

 preserveAspectRatio="xMidYMid meet">

<path fill="#fefefe" stroke="none" d="
M0 677

L0 0

L785 0

L1570 0

L1570 677

L1570 1354

L785 1354

L0 1354

L0 677

Z

"/>

<path fill="#000000" stroke="none" d="
M799 1314

C793 1311 789 1307 782 1298

C774 1288 773 1284 769 1268

C763 1247 757 1236 745 1231

C738 1227 724 1225 714 1225

C707 1226 705 1226 698 1230

C688 1234 684 1238 679 1247

C661 1281 653 1293 651 1294

C644 1296 632 1292 628 1286

C626 1283 623 1276 620 1268

C618 1263 618 1259 617 1236

C617 1208 617 1206 611 1201

C610 1199 606 1197 603 1196

C600 1195 595 1193 592 1191

C590 1189 584 1185 580 1183

C573 1180 572 1180 563 1180

C555 1180 553 1180 549 1182

C543 1185 534 1192 527 1200

C520 1207 508 1217 500 1222

C494 1226 493 1226 489 1226

C484 1225 483 1224 480 1219

C478 1215 478 1213 478 1191

C478 1168 478 1166 480 1162

C483 1155 486 1141 486 1135

C486 1130 479 1116 473 1111

C468 1105 454 1097 445 1094

C433 1090 422 1093 405 1104

C400 1107 391 1112 385 1116

C375 1121 374 1121 369 1121

C361 1121 357 1118 354 1110

C351 1104 352 1094 356 1080

C360 1067 363 1062 371 1051

C378 1041 381 1035 382 1027

C383 1019 381 1012 373 1000

C366 987 361 982 353 978

C343 973 333 974 298 981

C279 984 274 984 269 981

C266 979 263 972 263 966

C263 962 264 960 272 947

C282 930 286 925 296 917

C306 910 310 904 313 897

C317 886 314 862 306 848

C302 843 295 836 288 834

C285 833 278 832 273 831

C267 831 257 830 250 829

C228 827 223 826 219 822

C211 814 215 802 234 785

C244 777 246 775 256 771

C268 766 283 756 287 750

C293 742 293 739 293 724

L294 709

L290 702

C286 695 278 684 274 681

C273 681 267 678 260 676

C245 671 220 661 217 658

C211 653 212 642 220 634

C223 631 226 629 227 629

C227 629 232 627 238 624

C251 617 252 617 269 615

C282 613 285 613 291 610

C294 608 300 604 303 601

C308 596 309 594 312 586

C314 581 316 574 317 570

C320 553 312 536 295 525

C291 523 286 519 284 517

C281 514 274 509 269 505

C258 497 257 495 259 487

C262 478 270 473 292 469

C302 467 304 467 311 468

C337 472 348 472 356 467

C361 465 375 449 379 442

C383 435 384 425 384 416

C383 408 382 405 377 400

C376 397 372 393 370 389

C366 382 365 379 368 370

C368 366 369 361 369 359

C369 352 372 343 376 339

C380 336 380 336 387 336

C393 336 394 336 410 343

C428 353 434 354 445 353

C451 352 454 351 461 346

C472 339 477 334 482 324

C491 307 491 303 482 283

C476 270 469 248 469 243

C469 239 472 233 474 232

C476 232 479 231 483 230

C490 229 490 229 501 232

C516 237 526 243 539 255

C551 266 556 268 569 268

C575 268 578 268 584 265

C598 260 601 257 609 249

C615 243 616 240 618 235

C621 225 621 212 618 202

C616 196 616 193 616 183

C616 177 616 170 617 169

C617 167 620 164 623 162

C628 158 628 158 633 159

C636 160 641 161 645 163

C661 171 670 180 681 201

C686 210 692 216 700 219

C712 225 728 224 743 218

C749 216 752 214 757 209

C761 205 765 200 766 198

C768 193 775 166 777 156

C779 145 780 142 783 139

C787 135 794 133 798 135

C811 139 827 162 832 183

C836 203 847 217 862 222

C872 225 879 225 888 224

C904 222 914 214 923 197

C931 183 944 163 947 159

C953 153 963 154 969 162

C973 167 978 178 981 188

C983 194 983 197 983 205

C982 229 982 234 985 240

C988 247 994 255 1000 259

C1016 270 1032 272 1048 267

C1055 264 1058 262 1072 249

C1086 235 1100 223 1103 222

C1107 221 1110 222 1115 227

C1123 234 1124 236 1123 256

L1123 273

L1118 287

C1114 300 1114 303 1114 310

C1114 323 1119 332 1134 344

C1144 351 1150 354 1159 355

C1170 356 1175 354 1203 340

C1216 334 1229 328 1230 328

C1235 328 1239 330 1242 335

L1246 339

L1246 350

C1245 367 1239 382 1226 400

C1222 405 1218 412 1217 414

C1212 425 1219 444 1231 459

C1236 464 1238 466 1245 469

C1257 475 1263 476 1277 473

C1283 472 1293 470 1298 469

C1309 466 1325 464 1329 466

C1334 469 1335 473 1335 481

C1335 487 1335 488 1331 495

C1325 506 1312 522 1299 534

C1282 550 1279 558 1284 577

C1288 590 1291 595 1300 605

C1307 613 1308 613 1316 615

C1321 617 1329 618 1334 618

C1357 620 1369 621 1373 623

C1383 626 1387 635 1383 644

C1380 649 1375 656 1364 665

C1356 673 1354 674 1346 677

C1328 683 1323 686 1316 693

C1311 698 1310 700 1308 706

C1305 716 1305 731 1308 740

C1311 747 1315 754 1319 759

C1323 763 1340 772 1355 777

C1368 782 1379 787 1382 789

C1392 799 1385 812 1361 824

C1350 829 1345 831 1330 833

C1307 835 1302 838 1293 852

C1287 862 1283 874 1283 883

C1283 890 1287 901 1291 907

C1296 913 1305 922 1314 928

C1323 934 1335 944 1339 949

C1345 956 1344 961 1337 970

C1335 973 1318 978 1307 979

C1297 980 1292 980 1269 976

C1260 974 1252 975 1245 979

C1237 983 1232 989 1226 1001

C1219 1012 1218 1015 1218 1024

C1217 1034 1219 1040 1227 1053

C1234 1063 1235 1065 1235 1070

C1235 1075 1231 1098 1228 1104

C1224 1115 1214 1115 1196 1106

C1170 1093 1172 1094 1161 1094

C1146 1094 1145 1094 1132 1107

C1120 1119 1118 1122 1114 1134

C1113 1139 1113 1142 1114 1149

C1115 1156 1116 1161 1124 1179

C1134 1203 1135 1207 1131 1214

C1128 1219 1125 1221 1117 1221

C1110 1221 1104 1219 1093 1215

C1083 1212 1079 1209 1067 1197

C1060 1191 1053 1185 1049 1183

L1043 1179

L1032 1179

C1026 1179 1021 1180 1020 1181

C1019 1181 1016 1183 1013 1184

C1006 1187 990 1200 987 1206

C985 1208 983 1212 983 1216

C981 1224 981 1245 983 1258

C986 1271 986 1282 983 1286

C980 1292 970 1293 958 1288

C945 1283 930 1268 920 1252

C912 1237 907 1232 897 1228

C889 1225 866 1226 857 1229

C851 1232 841 1240 838 1245

C834 1250 830 1264 827 1279

C824 1293 819 1313 817 1315

C814 1318 806 1318 799 1314

Z

M915 1159

C1021 1131 1114 1064 1175 971

C1244 866 1265 736 1234 615

C1226 583 1217 558 1202 528

C1185 492 1163 459 1136 429

C1125 416 1101 392 1089 382

C979 290 834 256 697 289

C588 316 492 383 431 476

C391 535 367 598 358 670

C355 693 354 741 356 766

C365 860 402 947 463 1018

L472 1029

L479 1025

C483 1023 493 1018 501 1013

L517 1005

L503 1004

C495 1003 481 1003 473 1002

L457 1002

L505 984

C532 974 554 965 554 965

C555 965 544 965 532 966

C519 967 508 968 508 968

C508 967 525 958 545 946

C565 934 582 925 582 924

C581 924 578 923 574 923

L566 922

L590 903

C603 893 614 884 614 884

C614 884 602 884 588 884

L563 885

L547 880

C539 877 532 874 532 874

C532 873 537 869 556 856

C573 845 579 842 609 828

L643 812

L644 805

C645 801 647 790 649 781

C655 757 664 728 677 695

C691 662 699 646 705 640

C720 626 720 627 731 624

C736 623 741 622 742 621

C745 619 818 494 830 468

C843 442 843 443 860 442

C872 442 872 442 875 444

C882 451 888 464 892 481

C893 485 894 491 895 493

C896 496 897 502 897 508

L899 517

L912 526

C919 531 925 535 925 536

C925 536 919 537 912 538

L899 540

L900 548

C900 558 899 566 896 576

C894 580 889 597 884 614

C872 653 871 657 877 665

L880 670

L893 670

C905 669 906 669 916 665

C922 662 929 659 933 658

C939 657 975 644 976 643

C976 643 976 634 976 622

C976 605 976 602 977 603

C978 604 983 610 988 617

L997 629

L1002 627

C1008 624 1014 624 1017 625

C1023 627 1028 645 1025 653

C1023 657 1021 659 1009 667

C996 677 971 698 964 705

C955 714 943 732 938 742

C931 757 931 761 937 831

L942 887

L948 910

C957 945 968 972 997 1027

C1008 1050 1018 1068 1018 1068

C1018 1069 1006 1056 992 1041

C974 1023 965 1014 965 1015

C965 1016 965 1020 966 1024

C967 1028 967 1031 967 1032

C967 1032 963 1029 958 1025

C953 1021 949 1017 949 1018

C949 1018 948 1032 947 1050

C947 1067 947 1082 946 1082

C946 1083 946 1087 946 1092

L946 1101

L936 1069

C931 1051 926 1034 925 1031

C924 1026 924 1026 921 1026

L918 1026

L918 1039

C918 1075 911 1118 901 1152

C898 1163 898 1163 899 1163

C899 1163 906 1161 915 1159

Z

"/>

</svg>

