<?xml version='1.0' encoding='utf-8'?>
<!-- Generator: imaengine 6.0   -->
<svg xmlns:xlink="http://www.w3.org/1999/xlink" xmlns="http://www.w3.org/2000/svg" viewBox="0,0,320,139" style="enable-background:new 0 0 320 139;" version="1.1">
<defs/>
<g id="layer0">
<path d="M0,0L320,0L320,139L0,139L0,0Z" fill="#FFFFFF"/>
</g>
<g id="layer1">
<path d="M18.9907,111.033C20.3652,106.24 20.7919,106 27.9424,106C34.1742,106 34.8191,105.805 35.3697,103.75C36.6738,98.8837 36.215,98.1306 31.75,97.8075C27.8531,97.5255 27.5293,97.2923 27.8531,95C28.3083,91.7765 29.5716,91.0341 34.6334,91.0153C38.634,91.0005 39.9137,89.7418 39.9863,85.75C39.9939,85.3375 37.2859,85 33.9686,85C27.4097,85 25.9596,83.8125 27.9582,80.0781C28.9951,78.1406 29.9338,78 41.8352,78C50.43,78 54.992,78.392 55.8,79.2C57.3953,80.7953 57.3223,84.5114 55.5878,90C54.8056,92.475 53.68,97.2 53.0865,100.5C50.9863,112.177 48.0332,113.965 30.8198,113.985L18.1396,114L18.9907,111.033ZM45.7271,110.166C46.952,109.499 48.4407,108.045 49.0353,106.934C50.2401,104.683 52.7993,93.026 53.6752,85.7998C54.2002,81.468 54.0589,81.0531 51.8724,80.5074C47.6318,79.449 29.6974,80.3936 29.265,81.6981C28.9946,82.5139 30.6907,82.9926 34.5804,83.1981C41.5372,83.5658 43.3757,85.4555 40.9629,89.7586C39.7793,91.8696 38.4487,92.6316 35.1766,93.0721C32.8395,93.3867 30.1722,94.3992 29.2494,95.3221C27.6788,96.8926 27.905,97 32.7857,97L38,97L38,100.277C38,105.631 35.652,107.984 30.1933,108.1C24.2108,108.227 20.7691,109.193 20.1982,110.905C19.8319,112.004 21.9572,112.174 31.6241,111.817C38.1601,111.575 44.5014,110.833 45.7271,110.166ZM53.55,113.111C54.0725,112.622 60.4827,112.02 67.795,111.773C83.9977,111.225 85.7182,110.359 87.9666,101.614C89.8436,94.3136 88.9129,92.5933 82.8982,92.2463C80.4792,92.1067 77.0662,91.7542 75.3139,91.4629L72.1278,90.9333L73.4143,87.2167L74.7009,83.5L174.301,83C251.38,82.6131 274.179,82.2211 275.134,81.2667C275.812,80.5883 276.172,79.9133 275.933,79.7667C275.695,79.62 228.126,79.6166 170.224,79.7591L64.9488,80.0182L64.0938,82.2591C63.6235,83.4916 62.5514,86.8625 61.7113,89.75L60.1839,95L67.4695,95C76.3909,95 77.6181,95.9907 76.0251,101.907C74.6792,106.905 72.7597,107.998 65.3157,108.006C62.1171,108.01 58.2625,108.658 56.75,109.447C54.6652,110.534 54,110.581 54,109.641C54,106.905 56.5496,106 64.251,106L72.1021,106L73.551,102.532C74.348,100.625 75,98.5998 75,98.0321C75,97.4036 71.6763,97 66.5,97C60.9427,97 58,96.616 58,95.8909C58,95.2809 58.9913,91.0021 60.203,86.3824L62.406,77.9829L170.105,78.0089L277.804,78.0349L277.257,80.2675C276.042,85.2334 281.062,85 175.494,85L76.2332,85L75.7552,87.5C75.2839,89.9657 75.3695,90 81.9837,90C87.3873,90 89.0365,90.3829 90.4738,91.9711C92.1653,93.8401 92.1716,94.2848 90.5964,100.556C88.5481,108.71 86.7616,111.539 82.7848,112.925C79.057,114.225 52.1771,114.396 53.55,113.111ZM91.185,112.25C91.4179,111.021 92.6475,110.407 95.3141,110.186C100.084,109.792 100.683,108.259 98.0698,103.137C93.148,93.4894 96.0345,90 108.937,90C116.669,90 117.287,90.1411 115.852,91.5767C114.985,92.4439 112.474,93.3951 110.272,93.6904L106.268,94.2274L108.694,98.5676C110.446,101.703 111.034,104.094 110.81,107.181C110.411,112.676 108.018,113.965 98.1767,113.985C91.7381,113.998 90.8934,113.789 91.185,112.25ZM117.03,113.097C113.543,110.756 117.462,93.5534 122,91.2812C124.902,89.8282 139,89.5461 139,90.941C139,92.3932 136.881,93.3789 132.5,93.9649C129.391,94.3808 128.432,94.9743 128.196,96.6286C127.946,98.3832 128.559,98.8823 131.684,99.4685C135.24,100.136 135.355,100.267 133.546,101.59C132.486,102.365 130.403,103 128.917,103C126.831,103 126.066,103.602 125.553,105.645C124.719,108.97 125.559,109.786 130.222,110.183C133.2,110.437 133.761,110.793 133.031,111.964C131.935,113.721 119.293,114.616 117.03,113.097ZM136.409,112.376C136.752,111.482 137.755,107.545 138.638,103.626C140.496,95.3822 142.26,91.498 144.545,90.6212C147.521,89.4791 163.537,89.9367 164.8,91.2C165.46,91.86 165.998,93.7725 165.996,95.45C165.992,98.6108 162.723,105 161.11,105C160.604,105 160.425,106.753 160.713,108.895C161.209,112.592 161.078,112.824 158.14,113.469C153.406,114.509 151.288,113.377 150.321,109.288C149.143,104.308 147.399,104.101 146.64,108.852C145.955,113.136 144.724,114 139.311,114C136.469,114 135.907,113.685 136.409,112.376ZM154.418,101.393C155.288,101.059 156,99.9663 156,98.9644C156,97.9626 156.707,96.4357 157.571,95.5714C159,94.1429 158.778,94 155.13,94C150.681,94 150.529,94.1288 149.538,98.75C148.934,101.565 149.109,102 150.839,102C151.937,102 153.548,101.727 154.418,101.393ZM171.557,111.777C170.434,110.175 170,107.101 170,100.756C170,92.3409 170.109,91.9074 172.5,90.818C174.39,89.9569 175.642,89.9715 177.632,90.878C180.185,92.0414 180.248,92.2836 179.766,99.0239C179.214,106.744 177.05,111.105 175.867,106.883C175.22,104.575 175.196,104.586 175.1,107.25C174.985,110.425 176.915,110.895 179.206,108.25C180.039,107.287 182.218,103.418 184.047,99.6513C187.096,93.3703 191.221,88.8875 192.642,90.3091C193.519,91.1859 184.026,108.108 180.894,111.25C177.551,114.605 173.69,114.823 171.557,111.777ZM192.557,112.667C190.639,111.263 190.643,111.135 192.855,102.373C194.087,97.4927 195.636,92.9584 196.298,92.2963C196.959,91.6343 199.487,90.7774 201.916,90.392C205.988,89.7459 206.273,89.8398 205.574,91.5956C205.157,92.643 203.693,97.775 202.322,103C200.95,108.225 199.753,112.576 199.662,112.669C198.547,113.801 194.105,113.8 192.557,112.667ZM207.25,113.023C204.471,111.839 204.3,108.124 206.643,99.7757C208.964,91.5033 211.193,90 221.135,90C231.048,90 232.011,92.6819 222.558,93.9649C218.723,94.4854 218.567,94.6632 216.822,100.5C214.09,109.634 214.201,110 219.714,110C224.134,110 224.323,110.105 222.745,111.684C220.781,113.648 210.751,114.514 207.25,113.023ZM229.806,112.75C227.318,110.777 227.209,108.977 229.122,101.5C231.676,91.5225 233.705,89.9902 244.306,90.0333L252.5,90.0665L250.139,92.0333C248.841,93.115 246.366,94 244.639,94C242.233,94.0001 240.829,94.8413 238.627,97.6013C236.291,100.528 236.139,100.996 237.811,100.101C238.943,99.4956 241.714,99 243.969,99C247.76,99 247.989,99.1511 247,101C246.243,102.415 244.906,103 242.433,103C238.993,103 238.388,103.58 237.798,107.447C237.556,109.026 238.344,109.564 241.97,110.299C246.114,111.139 246.301,111.307 244.529,112.602C242.139,114.35 231.952,114.452 229.806,112.75ZM248.866,112.662C249.476,111.926 251.782,110.783 253.988,110.122C256.195,109.461 258,108.75 258,108.543C258,108.335 257.1,106.066 256,103.5C251.565,93.1525 254.163,89.7199 266.065,90.2041C274.409,90.5435 276.745,92.5374 270.053,93.6075C267.8,93.9679 265.724,94.6382 265.44,95.0971C265.156,95.5559 265.794,97.637 266.858,99.7216C272.114,110.025 268.905,114 255.331,114C249.117,114 247.955,113.759 248.866,112.662Z" fill="#000000"/>
</g>
</svg>
