<?xml version='1.0' encoding='utf-8'?>
<!-- Generator: imaengine 6.0   -->
<svg xmlns:xlink="http://www.w3.org/1999/xlink" xmlns="http://www.w3.org/2000/svg" viewBox="0,0,1208,1800" style="enable-background:new 0 0 1208 1800;" version="1.1">
<defs/>
<g id="layer0">
<path d="M0,0L1208,0L1208,1800L0,1800L0,0Z" fill="#FFFFFF"/>
</g>
<g id="layer1">
<path d="M457.781,233.487L461.083,234.95L463.302,235.331L466.313,234.665L488.575,212.804L487.5,209.89L487.223,207.775L486.277,204.99L483.493,204.044L481.377,203.767L478.464,202.693L456.603,224.955L455.936,227.965L456.317,230.185L457.781,233.487ZM382.403,362.039L385.488,363.285L387.577,363.535L404.803,347.669L414.735,339.216L426.369,328.788L430.899,325.964L446.737,308.709L451.543,302.485L456.252,296.163L462.861,288.064L478.128,272.077L482.727,267.484L483.561,266.479L481.681,262.761L477.963,260.881L476.958,261.715L472.365,266.314L456.378,281.581L448.279,288.19L441.957,292.899L435.733,297.706L418.478,313.543L415.654,318.074L405.226,329.708L396.773,339.639L380.907,356.865L381.157,358.954L382.403,362.039ZM482.6,261.842L486.278,263.681L496.209,255.227L500.686,252.35L522.515,231.895L564.565,191.213L579.581,176.813L578.138,173.532L577.64,171.195L576.363,168.079L573.247,166.802L570.91,166.304L567.629,164.861L553.229,179.877L512.547,221.927L492.092,243.756L489.215,248.233L480.761,258.164L482.6,261.842ZM375.969,421.648L378.995,422.836L382.154,422.318L384.85,421.337L392.948,414.727L408.195,400.558L434.498,375.384L440.344,368.36L442.097,364.599L445.842,359.151L458.006,345.576L459.723,343.616L460.581,342.635L458.7,338.916L454.981,337.036L454,337.893L452.04,339.611L438.466,351.775L433.018,355.519L429.256,357.273L422.233,363.119L397.058,389.422L382.889,404.668L376.28,412.767L375.299,415.463L374.781,418.621L375.969,421.648ZM548.786,248.831L552.407,250.614L556.879,247.732L560.483,245.82L571.331,236.445L601.381,207.664L633.249,177.024L631.665,173.602L631.083,171.181L629.679,167.938L626.436,166.534L624.015,165.951L620.593,164.368L589.952,196.235L561.171,226.286L551.796,237.134L549.885,240.738L547.002,245.209L548.786,248.831ZM361.261,489.53L364.761,491.192L367.148,491.74L369.141,491.895L383.428,476.766L396.564,464.164L400.278,462.363L441.98,419.495L452.395,407.847L458.062,400.645L462.789,394.341L465.244,391.281L466.085,390.283L464.216,386.575L460.508,384.706L459.51,385.547L456.45,388.002L450.146,392.729L442.944,398.396L431.296,408.811L388.428,450.512L386.627,454.226L374.024,467.363L358.896,481.65L359.051,483.643L359.599,486.03L361.261,489.53ZM582.797,267.994L586.207,269.565L597.98,259.276L604.298,254.563L607.798,252.548L613.243,248.8L645.14,218.189L678.09,184.954L676.587,181.612L676.053,179.24L674.721,176.07L671.551,174.738L669.179,174.204L665.837,172.701L632.602,205.651L601.991,237.548L598.243,242.993L596.228,246.493L591.515,252.811L581.226,264.584L582.797,267.994ZM364.019,539.947L367.577,541.667L369.805,542.057L372.889,541.463L380.781,534.648L433.843,482.916L439.859,476.063L440.906,473.433L441.879,470.729L443.854,467.188L446.912,462.893L447.674,461.816L445.831,458.135L442.149,456.292L441.073,457.053L436.777,460.112L433.236,462.086L430.532,463.059L427.902,464.106L421.049,470.122L369.318,523.184L362.502,531.077L361.909,534.16L362.299,536.388L364.019,539.947ZM475.246,428.719L478.423,430.057L482.102,428.221L485.083,427.525L488.538,425.464L496.573,418.792L499.636,414.5L500.617,411.804L511.096,400.222L513.106,396.717L513.801,395.573L512.016,391.949L508.392,390.164L507.249,390.859L503.744,392.87L492.161,403.349L489.465,404.33L485.174,407.392L478.502,415.428L476.441,418.882L475.745,421.863L473.908,425.542L475.246,428.719ZM608.536,295.429L612.169,297.224L623.866,286.859L630.119,282.081L636.356,277.287L645.255,269.64L658.765,257.411L688.862,228.677L714.77,203.107L712.935,199.434L712.202,196.862L710.572,193.394L707.103,191.764L704.531,191.031L700.858,189.196L675.288,215.103L646.554,245.201L634.325,258.71L626.678,267.609L621.885,273.847L617.106,280.099L606.742,291.797L608.536,295.429ZM365.857,591.283L369.44,593.027L371.702,593.451L374.535,592.607L389.926,578.583L407.089,560.814L416.081,553.26L448.589,519.583L450.554,516.032L453.359,511.484L457.257,506.189L458.776,504.031L459.563,502.979L457.781,499.359L454.161,497.577L453.108,498.364L450.95,499.882L445.656,503.781L441.108,506.586L437.557,508.55L403.88,541.059L396.325,550.051L378.557,567.214L364.533,582.605L363.689,585.438L364.113,587.7L365.857,591.283ZM536.835,420.304L540.394,422.024L546.67,417.27L552.942,412.51L584.482,379.704L589.281,373.473L590.054,372.407L588.313,368.827L584.733,367.086L583.667,367.858L577.436,372.658L544.629,404.198L539.87,410.469L535.116,416.746L536.835,420.304ZM618.648,338.492L622.222,340.228L633.885,329.829L643.829,321.389L654.643,311.979L666.399,301.673L680.002,289.538L719.272,251.592L747.025,224.191L745.158,220.485L744.405,217.893L742.745,214.395L739.247,212.735L736.655,211.982L732.949,210.114L705.548,237.868L667.602,277.138L655.467,290.741L645.161,302.497L635.751,313.311L627.311,323.255L616.912,334.918L618.648,338.492ZM371.372,638.942L374.762,640.493L377.024,640.916L380.21,640.426L391.879,630.032L425.568,597.537L441.655,580.531L459.584,561.691L461.447,558.038L465.25,552.649L482.062,534.529L484.594,531.546L485.373,530.486L483.52,526.795L479.828,524.942L478.769,525.721L475.785,528.252L457.666,545.064L452.276,548.867L448.624,550.73L429.783,568.659L412.777,584.746L380.282,618.436L369.889,630.104L369.398,633.291L369.822,635.553L371.372,638.942ZM592.909,417.405L596.121,418.779L598.523,417.503L601.708,417.012L606.282,414.232L609.119,409.715L610.894,405.975L615.969,401.857L619.715,400.088L627.322,391.148L632.98,383.937L647.188,368.73L648.065,367.768L646.225,364.089L642.547,362.25L641.585,363.126L626.377,377.335L619.166,382.993L610.227,390.599L608.457,394.346L604.34,399.42L600.6,401.196L596.082,404.032L593.302,408.606L592.811,411.792L591.535,414.193L592.909,417.405ZM646.225,364.089L649.917,365.943L663.429,353.716L672.437,346.178L681.402,338.597L687.669,333.833L700.306,322.57L751.486,272.633L771.579,252.281L769.818,248.68L769.129,246.153L767.564,242.75L764.162,241.186L761.634,240.496L758.034,238.735L737.681,258.828L687.745,310.008L676.481,322.645L671.717,328.912L664.137,337.878L656.598,346.886L644.371,360.397L646.225,364.089ZM384.242,679.247L387.704,680.87L389.985,681.313L393.751,679.563L403.539,670.967L408.093,668.167L416.006,659.534L479.712,594.546L481.728,591.047L483.745,587.549L488.532,581.305L492.811,576.391L493.641,575.383L491.793,571.696L488.106,569.847L487.097,570.678L482.184,574.956L475.94,579.743L472.442,581.761L468.942,583.777L403.955,647.482L395.322,655.396L392.522,659.95L383.925,669.738L382.176,673.504L382.619,675.785L384.242,679.247ZM494.55,568.938L498.171,570.72L504.381,565.899L508.01,564.013L512,558.811L513.939,555.235L514.49,553.947L512.935,550.553L509.542,548.999L508.254,549.549L504.678,551.488L499.475,555.478L497.59,559.108L492.769,565.318L494.55,568.938ZM520.289,543.199L523.678,544.75L528.073,541.79L531.854,540.056L536.388,537.237L555.134,517.374L558.013,512.899L573.973,495.767L574.729,494.685L575.464,493.581L573.605,489.884L569.907,488.025L568.804,488.759L567.722,489.516L550.589,505.476L546.114,508.355L526.252,527.1L523.432,531.635L521.698,535.416L518.739,539.811L520.289,543.199ZM617.728,445.76L620.86,447.054L623.522,446.038L631.637,439.446L647.966,424.521L652.405,421.606L704.523,370.768L718.092,358.599L792.613,284.203L790.895,280.647L790.232,278.145L788.707,274.782L785.343,273.257L782.842,272.594L779.285,270.876L704.889,345.396L692.72,358.966L641.883,411.083L638.968,415.522L624.043,431.852L617.45,439.966L616.435,442.628L617.728,445.76ZM389.757,726.906L393.19,728.5L395.289,728.761L398.413,728.208L401.067,727.185L425.607,703.924L427.381,700.183L443.694,685.242L472.755,657.31L501.522,627.246L506.507,621.2L507.448,618.464L509.193,614.693L512.097,610.244L512.882,609.19L511.097,605.566L507.473,603.781L506.419,604.566L501.97,607.47L498.2,609.215L495.463,610.156L489.417,615.141L459.353,643.908L431.421,672.969L416.48,689.282L412.739,691.056L389.478,715.596L388.456,718.25L387.902,721.374L388.163,723.473L389.757,726.906ZM523.047,593.616L526.485,595.216L531.03,592.407L536.318,588.503L543.027,580.504L547,575.284L547.883,574.329L548.786,567.878L542.335,568.781L541.379,569.663L536.159,573.636L528.16,580.345L524.256,585.633L521.447,590.178L523.047,593.616ZM544.189,572.474L547.883,574.329L552.276,571.368L555.802,569.379L572.623,551.269L582.955,539.538L583.737,538.483L581.878,534.785L578.18,532.926L577.125,533.708L565.395,544.04L547.284,560.861L545.295,564.387L542.335,568.781L544.189,572.474ZM650.821,465.842L654.539,467.722L684.619,438.971L690.82,434.14L697.988,428.439L707.021,420.926L717.871,411.553L780.123,350.626L806.364,323.552L810.47,320.303L808.595,316.591L807.838,313.995L806.172,310.491L802.668,308.825L800.073,308.068L796.36,306.193L793.111,310.299L766.037,336.54L705.11,398.792L695.737,409.642L688.224,418.675L682.523,425.843L677.693,432.044L648.941,462.124L650.821,465.842ZM367.695,802.142L371.37,803.978L373.808,804.578L375.629,804.56L378.393,803.647L398.822,781.792L405.122,777.06L437.362,744.953L533.306,647.857L537.216,642.575L539.101,638.945L543.801,632.614L547.929,627.55L548.784,626.566L546.947,622.891L543.272,621.054L542.288,621.908L537.223,626.036L530.893,630.736L527.262,632.621L521.98,636.532L424.884,732.476L392.777,764.716L388.046,771.015L366.19,791.444L365.277,794.209L365.26,796.029L365.859,798.467L367.695,802.142ZM606.698,563.14L610.311,564.915L633.991,542.633L652.155,525.865L678.586,500.82L692.148,488.643L704.775,477.369L726.518,456.828L729.523,452.479L737.544,445.792L821.049,361.995L819.355,358.463L818.706,355.976L817.203,352.634L813.862,351.131L811.375,350.483L807.843,348.789L724.045,432.293L717.359,440.314L713.01,443.32L692.468,465.063L681.195,477.69L669.018,491.251L643.972,517.683L627.204,535.846L604.922,559.526L606.698,563.14ZM217.86,1005.15L221.157,1006.61L223.456,1007.07L226.578,1006.52L237.39,997.105L243.719,992.403L255.096,979.881L297.1,939.154L348.15,887.248L401.792,832.42L407.191,828.627L426.775,807.765L508.15,727.353L535.351,699.4L549.393,684.026L551.289,680.407L562.073,670.968L578.381,656.022L608.098,625.068L689.625,544.809L708.704,527.119L739.321,495.228L744.509,491.224L753.116,481.446L765.756,470.186L826.888,409.978L825.065,406.316L824.338,403.752L822.719,400.293L819.26,398.673L816.696,397.947L813.034,396.124L752.826,457.256L741.566,469.896L731.788,478.503L727.784,483.691L695.893,514.308L678.203,533.387L597.943,614.914L566.99,644.63L552.044,660.939L542.605,671.723L538.986,673.619L523.612,687.661L495.659,714.863L415.247,796.237L394.385,815.821L390.592,821.22L335.764,874.862L283.858,925.911L243.131,967.916L230.609,979.293L225.907,985.622L216.495,996.434L215.94,999.556L216.401,1001.86L217.86,1005.15ZM205.909,1070.28L209.371,1071.9L211.74,1072.43L214.639,1071.65L226.412,1061.36L356.694,932.42L392.884,895.071L399.473,886.952L409.77,875.188L425.625,857.95L432.835,852.291L456.092,827.748L469.22,813.298L469.96,812.2L470.676,811.077L468.812,807.375L465.109,805.511L463.986,806.226L462.888,806.967L448.438,820.094L423.896,843.351L418.236,850.561L400.998,866.416L389.234,876.714L381.115,883.303L343.766,919.493L214.823,1049.77L204.534,1061.55L203.756,1064.45L204.286,1066.82L205.909,1070.28ZM505.581,770.605L509.121,772.306L515.439,767.593L549.192,735.161L562.278,720.67L588.647,695.562L597.662,688.03L605.684,681.344L625.489,662.542L710.718,578.631L758.158,530.47L822.193,467.65L832.419,457.652L830.589,453.984L829.859,451.416L828.234,447.952L824.77,446.327L822.202,445.597L818.534,443.768L808.536,453.993L745.717,518.029L697.556,565.469L613.644,650.697L594.842,670.503L588.156,678.525L580.624,687.539L555.516,713.908L541.025,726.995L508.593,760.748L503.881,767.066L505.581,770.605ZM48.7197,1280.64L52.1524,1282.24L54.5179,1282.76L56.3775,1282.78L60.1017,1280.99L126.784,1215.3L133.428,1207.24L228.676,1113.13L268.705,1072.26L368.29,971.452L414.677,924.077L415.655,921.378L417.526,917.733L418.247,916.616L416.415,912.946L412.745,911.114L411.627,911.835L407.982,913.705L405.284,914.683L357.909,961.071L257.1,1060.66L216.236,1100.68L122.121,1195.93L114.056,1202.58L48.3685,1269.26L46.5773,1272.98L46.5984,1274.84L47.1254,1277.21L48.7197,1280.64ZM593.828,735.533L597.434,737.3L613.725,722.337L626.34,711.052L631.674,707.193L659.901,680.266L690.9,650.595L717.299,625.517L727.624,613.78L736.509,606.119L739.711,601.967L783.193,557.202L787.658,554.313L808.548,534.756L816.054,525.716L838.516,504.054L836.821,500.521L836.172,498.034L834.669,494.692L831.327,493.188L828.839,492.54L825.307,490.845L803.645,513.307L794.605,520.813L775.048,541.703L772.159,546.167L727.394,589.65L723.242,592.851L715.581,601.737L703.844,612.062L678.766,638.461L649.095,669.46L622.168,697.687L618.309,703.021L607.024,715.636L592.061,731.927L593.828,735.533ZM25.7387,1356.8L29.3504,1358.57L31.7459,1359.13L33.6428,1359.19L38.1986,1356.39L154.55,1239.25L278.263,1116.61L284.962,1108.6L296.725,1098.3L344.081,1050.06L386.648,1006.22L432.19,959.834L436.909,953.521L446.609,942.998L448.737,939.611L449.224,938.259L447.669,934.866L444.276,933.311L442.924,933.798L439.537,935.926L429.014,945.626L422.702,950.345L376.32,995.887L332.479,1038.45L284.234,1085.81L273.935,1097.57L265.926,1104.27L143.283,1227.99L26.1481,1344.34L23.35,1348.89L23.4084,1350.79L23.9655,1353.18L25.7387,1356.8ZM641.629,740.907L645.212,742.651L655.939,733.155L681.318,708.895L696.743,694.905L703.971,689.264L724.842,669.687L749.383,646.429L756.169,638.506L786.141,609.648L820.461,574.105L830.042,565.302L848.302,546.792L846.738,543.389L846.167,540.98L844.78,537.755L841.555,536.368L839.146,535.797L835.743,534.233L817.234,552.493L808.43,562.075L772.888,596.394L744.029,626.366L736.107,633.152L712.848,657.694L693.272,678.564L687.63,685.792L673.64,701.217L649.38,726.596L639.884,737.324L641.629,740.907ZM21.1425,1414.57L24.7638,1416.35L27.1313,1416.88L30.1328,1416.2L35.5577,1412.44L136.954,1309.76L170.628,1277.25L191.338,1255.68L391.459,1056.85L415.743,1031.49L450.968,995.017L485.513,959.7L486.279,956.788L487.354,954.186L487.866,952.86L486.277,949.432L482.85,947.844L481.523,948.355L478.922,949.431L476.01,950.196L440.693,984.741L404.218,1019.97L378.863,1044.25L180.034,1244.37L158.46,1265.08L125.948,1298.76L23.2736,1400.15L19.5061,1405.58L18.8306,1408.58L19.3596,1410.95L21.1425,1414.57ZM694.945,740.765L698.6,742.582L700.516,740.822L708.647,734.244L720.195,723.73L726.524,719.028L734.607,712.404L740.047,708.652L835.071,612.474L854.339,593.134L852.934,589.891L852.459,587.577L851.215,584.495L848.133,583.251L845.819,582.776L842.575,581.37L823.235,600.638L727.058,695.663L723.305,701.102L716.681,709.186L711.979,715.515L701.466,727.063L694.888,735.193L693.128,737.11L694.945,740.765ZM23.9002,1464.98L27.5216,1466.77L29.9035,1467.31L33.0311,1466.76L41.159,1460.18L154.564,1345.61L187.876,1310.9L202.905,1294.68L220.14,1278.82L222.881,1277.88L244.728,1257.45L251.31,1249.32L281.127,1218.47L295.631,1205.39L384.639,1116.07L456.692,1042.88L479.114,1019.34L509.899,987.621L528.619,967.733L529.56,964.996L530.055,963.653L528.562,960.322L525.231,958.829L523.888,959.325L521.152,960.265L501.263,978.985L469.54,1009.77L446,1032.19L372.813,1104.24L283.49,1193.25L270.416,1207.76L239.564,1237.57L231.438,1244.16L211,1266L210.064,1268.74L194.206,1285.98L177.981,1301.01L143.27,1334.32L28.7032,1447.73L22.1232,1455.85L21.5738,1458.98L22.1173,1461.36L23.9002,1464.98ZM721.602,767.282L724.963,768.803L728.46,766.785L735.68,761.136L740.221,758.323L748.27,751.665L759.947,741.28L786.364,716.219L826.156,675.119L859.6,642.377L857.929,638.868L857.294,636.394L855.811,633.073L852.49,631.59L850.017,630.955L846.507,629.284L813.766,662.728L772.665,702.52L747.605,728.937L737.22,740.614L730.561,748.663L727.748,753.205L722.099,760.424L720.081,763.922L721.602,767.282ZM22.7174,1524.33L24.9552,1524.73L28.0005,1524.1L32.5121,1521.25L62.5668,1492.48L147.417,1406.35L166.372,1386.7L174.89,1376.83L178.895,1371.64L182.677,1366.23L188.625,1361.15L191.181,1360.03L194.821,1358.15L205.232,1346.5L210.924,1339.33L218.596,1330.45L232.936,1317.21L243.025,1307.08L246.071,1306.45L274.346,1279.57L369.659,1185.52L398.384,1155.41L492.379,1060.04L505.456,1045.54L521.732,1030.57L526.655,1024.46L556.381,993.515L574.13,974.494L574.921,973.446L575.41,972.097L573.605,968.454L569.962,966.649L568.612,967.138L567.564,967.928L548.544,985.677L517.6,1015.4L511.493,1020.33L496.514,1036.6L482.014,1049.68L386.645,1143.67L356.539,1172.4L262.49,1267.71L235.61,1295.99L234.979,1299.03L224.845,1309.12L211.608,1323.46L202.733,1331.13L195.556,1336.83L183.906,1347.24L182.03,1350.88L180.909,1353.43L175.826,1359.38L170.415,1363.16L165.228,1367.17L155.362,1375.69L135.708,1394.64L49.5803,1479.49L20.8037,1509.55L17.9614,1514.06L17.3298,1517.1L17.7291,1519.34L22.7174,1524.33ZM712.41,829.649L716.001,831.401L723.916,824.608L735.562,814.192L739.972,811.248L751.622,800.837L766.078,787.716L831.03,723.975L861.384,693.659L859.735,690.171L859.113,687.711L857.65,684.409L854.348,682.946L851.888,682.324L848.4,680.674L818.084,711.028L754.342,775.98L741.222,790.437L730.81,802.087L727.866,806.497L717.451,818.143L710.658,826.058L712.41,829.649ZM22.8722,1577.66L25.2948,1578.24L27.4256,1578.54L31.0594,1576.65L93.2818,1515.7L150.854,1457.45L187.945,1419.16L206.649,1399.26L209.538,1394.79L220.377,1385.41L260.192,1344.33L265.45,1340.39L297.87,1308.47L340.759,1266.79L406.711,1202.21L417.954,1189.55L529.454,1076.76L574.752,1030.13L578.593,1024.78L583.086,1021.92L591.591,1012.04L603,1001.38L620.701,982.315L623.847,978.108L624.321,976.743L625.036,975.62L623.244,971.989L619.613,970.197L618.49,970.912L617.125,971.386L612.918,974.532L593.849,992.233L583.196,1003.64L573.316,1012.15L570.455,1016.64L565.104,1020.48L518.478,1065.78L405.684,1177.28L393.027,1188.52L328.447,1254.47L286.766,1297.36L254.839,1329.78L250.905,1335.04L209.826,1374.86L200.443,1385.7L195.978,1388.58L176.073,1407.29L137.787,1444.38L79.5351,1501.95L18.5794,1564.17L16.6979,1567.81L16.9902,1569.94L17.5744,1572.36L22.8722,1577.66ZM710.572,884.661L714.079,886.331L720.186,881.407L730.969,871.966L738.952,865.241L753.236,851.948L767.592,838.727L789.239,816.251L803.615,803.05L830.039,777.996L847.858,759.046L855.916,752.396L880.676,727.516L879.031,724.034L878.412,721.576L876.954,718.279L873.657,716.821L871.199,716.202L867.716,714.557L842.837,739.317L836.187,747.375L817.237,765.194L792.183,791.618L778.982,805.994L756.506,827.641L743.285,841.997L729.992,856.281L723.267,864.264L713.826,875.047L708.902,881.154L710.572,884.661ZM22.8963,1630.86L25.2125,1631.34L26.9409,1631.22L29.6481,1630.26L34.1678,1627.42L231.133,1429.11L243.442,1415.68L268.695,1391.3L273.657,1385.23L274.584,1382.48L279.964,1378.67L287.087,1372.92L292.833,1365.8L322.663,1336.8L329.87,1331.13L537.915,1121.84L590.751,1068.05L651.714,1005.83L659.258,996.831L670.727,986.239L679.747,978.712L702.143,955.146L704.085,951.573L727.747,929.273L769.634,888.428L780.424,878.995L805.913,854.845L820.428,841.783L827.992,832.8L898.836,762.082L897.282,758.689L896.717,756.285L895.339,753.069L892.122,751.691L889.718,751.126L886.325,749.571L815.607,820.416L806.625,827.98L793.563,842.495L769.413,867.984L759.979,878.773L719.135,920.661L696.835,944.323L693.261,946.265L669.695,968.66L662.169,977.68L651.576,989.149L642.574,996.693L580.359,1057.66L526.564,1110.49L317.274,1318.54L311.612,1325.74L282.611,1355.57L275.487,1361.32L269.741,1368.44L265.928,1373.82L263.178,1374.75L257.109,1379.71L232.724,1404.97L219.294,1417.27L20.9865,1614.24L18.1523,1618.76L17.1825,1621.47L17.0724,1623.19L17.5502,1625.51L22.8963,1630.86ZM23.9002,1677.68L24.8902,1676.83L28.6681,1678.77L31.2929,1679.56L33.2984,1679.73L36.1052,1678.86L65.9419,1648.02L111.614,1603.61L132.146,1581.86L220.161,1495.22L237.091,1477.22L276.995,1436.23L298.597,1413.7L311.877,1399.41L325.062,1385.02L326.981,1381.42L331.021,1376.27L331.8,1375.21L330.007,1371.58L326.375,1369.78L325.315,1370.56L320.163,1374.6L316.567,1376.52L302.175,1389.71L287.877,1402.98L265.355,1424.59L224.366,1464.49L206.365,1481.42L119.726,1569.44L97.9725,1589.97L53.5591,1635.64L22.7261,1665.48L21.8559,1668.28L22.0229,1670.29L22.8092,1672.91L24.7487,1676.69L23.9002,1677.68ZM375.049,1326.53L378.696,1328.34L382.11,1326.24L383.562,1325.85L385.342,1325.79L389.115,1324.05L400.799,1313.67L501.297,1211.94L629.621,1084.71L644.837,1068.68L783.885,928.277L793.704,917.872L794.806,915.298L800.453,908.075L802.561,904.667L806.265,901.018L811.306,896.867L815.891,894.098L841.027,867.756L844.391,865.604L848.803,862.662L855.033,857.862L860.093,851.891L862.87,847.314L870.074,841.648L884.445,828.443L901.6,812.505L920.129,794.264L918.514,790.811L917.913,788.371L916.481,785.101L913.211,783.669L910.771,783.068L907.318,781.453L889.077,799.982L873.139,817.137L859.933,831.508L854.268,838.712L849.691,841.489L843.72,846.549L838.92,852.779L835.977,857.191L833.826,860.555L807.484,885.691L804.715,890.276L800.564,895.317L796.915,899.021L793.507,901.129L786.284,906.776L783.71,907.878L773.305,917.697L632.905,1056.74L616.867,1071.96L489.643,1200.29L387.908,1300.78L377.53,1312.47L375.788,1316.24L375.729,1318.02L375.342,1319.47L373.242,1322.89L375.049,1326.53ZM51.4774,1703.28L52.4673,1702.43L56.2501,1704.37L58.902,1705.19L60.9286,1705.38L63.7478,1704.52L313.257,1453.96L329.118,1436.73L334.794,1429.54L344.216,1418.74L351.78,1409.75L360.4,1399.99L361.28,1399.03L363.099,1391.66L355.726,1393.48L354.768,1394.36L345.003,1402.98L336.021,1410.54L325.219,1419.96L318.026,1425.64L300.794,1441.5L50.2378,1691.01L49.3801,1693.83L49.5682,1695.85L50.3816,1698.51L52.3259,1702.29L51.4774,1703.28ZM411.819,1342.94L415.342,1344.62L425.279,1336.17L430.475,1332.18L431.734,1331.6L433.704,1331.73L436.641,1330.99L502.15,1264.13L637.005,1130.57L795.784,971.288L796.833,968.66L801.155,965.628L830.119,935.761L849.18,918.052L863.329,902.786L866.162,898.265L870.918,891.99L874.914,886.794L875.444,885.485L876.008,884.211L874.196,880.56L870.545,878.748L869.271,879.312L867.962,879.842L862.766,883.838L856.491,888.594L851.97,891.427L836.704,905.576L818.995,924.637L789.128,953.601L786.096,957.923L783.468,958.972L624.19,1117.75L490.627,1252.61L423.767,1318.12L423.026,1321.05L423.158,1323.02L422.579,1324.28L418.582,1329.48L410.135,1339.41L411.819,1342.94ZM874.196,880.56L877.82,882.345L882.199,879.371L886.44,876.258L893.578,870.527L911.616,853.633L919.642,846.952L943.645,823.155L942.184,819.855L941.675,817.507L940.381,814.375L937.249,813.081L934.901,812.572L931.602,811.111L907.805,835.114L901.123,843.141L884.23,861.178L878.499,868.317L875.386,872.558L872.411,876.937L874.196,880.56ZM72.2775,1734.65L73.2674,1733.8L77.0938,1735.79L79.6896,1736.55L81.7066,1736.73L85.4528,1734.96L246.623,1572.56L269.31,1551.12L285.329,1534.05L286.203,1531.24L293.75,1522.25L312.367,1502.25L340.465,1475.2L343.167,1474.22L356.548,1461.87L373.461,1443.85L380.063,1435.74L391.304,1423.08L409.036,1404.04L409.784,1402.95L410.586,1401.92L408.719,1398.21L405.013,1396.34L403.977,1397.15L402.886,1397.89L383.849,1415.63L371.189,1426.87L363.083,1433.47L345.065,1450.38L332.708,1463.76L331.733,1466.47L304.677,1494.56L284.686,1513.18L275.686,1520.73L272.884,1521.6L255.81,1537.62L234.374,1560.31L71.9715,1721.48L70.2023,1725.22L70.3809,1727.24L71.1382,1729.84L73.126,1733.66L72.2775,1734.65ZM448.246,1358.68L451.906,1360.51L465.506,1348.37L469.064,1346.41L471.997,1345.67L478.283,1340.92L622.192,1198.03L633.558,1185.49L650.775,1169.62L745.036,1074.52L774.05,1044.7L820.305,997.191L847.265,968.997L851.787,966.164L859.804,959.474L876.131,944.547L914.207,905.407L920.049,898.379L946.323,873.176L971.073,848.287L969.535,844.91L968.979,842.517L967.616,839.315L964.414,837.951L962.021,837.396L958.644,835.858L933.755,860.608L908.552,886.882L901.524,892.723L862.384,930.8L847.457,947.127L840.766,955.144L837.934,959.665L809.739,986.625L762.233,1032.88L732.415,1061.89L637.313,1156.16L621.437,1173.37L608.903,1184.74L466.01,1328.65L461.264,1334.93L460.521,1337.87L458.563,1341.42L446.424,1355.02L448.246,1358.68ZM90.5209,1769.58L91.5108,1768.74L95.3758,1770.76L97.8497,1771.4L99.6776,1771.39L102.688,1770.72L112.447,1762.09L110.507,1758.32L109.711,1755.68L107.986,1752.12L104.423,1750.39L101.789,1749.6L98.0102,1747.66L89.3844,1757.42L88.718,1760.43L88.7074,1762.26L89.3428,1764.73L91.3694,1768.59L90.5209,1769.58ZM107.986,1752.12L109.903,1752.2L113.354,1753.81L115.777,1754.39L118.959,1753.9L124.374,1750.12L142.063,1731.04L189.457,1682.83L206.677,1666.96L273.178,1599.25L289.078,1582.06L304.058,1565.79L307.816,1560.35L331.061,1535.8L366.358,1499.39L371.866,1493.87L372.693,1492.86L370.889,1489.22L367.245,1487.41L366.234,1488.24L360.712,1493.75L324.308,1529.04L299.752,1552.29L294.318,1556.05L278.044,1571.03L260.851,1586.93L193.144,1653.43L177.27,1670.65L129.064,1718.04L109.984,1735.73L106.207,1741.15L105.711,1744.33L106.296,1746.75L107.909,1750.2L107.986,1752.12ZM370.889,1489.22L374.591,1491.08L387.193,1479.78L395.277,1473.16L415.802,1451.4L445.457,1420.38L450.005,1415.74L450.87,1414.77L449.024,1411.08L445.34,1409.24L444.366,1410.1L439.722,1414.65L408.707,1444.3L386.947,1464.83L380.323,1472.91L369.025,1485.51L370.889,1489.22ZM475.682,1384.42L479.395,1386.3L505.75,1361.18L508.541,1360.29L511.436,1359.51L516.844,1355.72L710.471,1163.27L742.245,1130.7L835.427,1036.35L881.14,991.982L1001.44,871.437L999.829,867.993L999.234,865.558L997.81,862.296L994.547,860.872L992.113,860.276L988.668,858.67L868.123,978.965L823.75,1024.68L729.408,1117.86L696.836,1149.63L504.382,1343.26L500.598,1348.67L499.815,1351.56L498.929,1354.35L473.807,1380.71L475.682,1384.42ZM139.099,1774.18L140.089,1773.33L143.92,1775.32L146.587,1776.15L148.52,1776.25L151.354,1775.4L311.574,1613.89L315.557,1608.68L341.519,1581.33L351.808,1569.56L367.711,1552.37L388.281,1530.65L408.249,1512.01L416.337,1505.39L448.803,1471.67L476.608,1442.48L483.871,1435.04L484.684,1434.01L482.894,1430.39L479.266,1428.6L478.241,1429.41L470.796,1436.67L441.608,1464.48L407.889,1496.94L401.269,1505.03L382.629,1525L360.914,1545.57L343.724,1561.47L331.952,1571.76L304.597,1597.72L299.388,1601.71L137.875,1761.93L137.032,1764.76L137.127,1766.69L137.955,1769.36L139.948,1773.19L139.099,1774.18ZM504.956,1408.32L508.661,1410.19L536,1384.21L543.089,1378.43L546.643,1376.47L549.337,1375.49L557.439,1368.88L759.936,1165.08L766.962,1159.23L776.932,1148.98L777.619,1145.99L782.099,1143.12L881.758,1042.38L890.396,1032.63L896.092,1025.46L900.603,1022.62L907.78,1016.93L911.219,1014.85L1001.76,923.379L1025.43,901.092L1029.78,896.244L1028.18,892.805L1027.58,890.373L1026.16,887.115L1022.91,885.695L1020.47,885.102L1017.04,883.501L1012.19,887.846L989.901,911.521L898.431,1002.06L896.354,1005.5L890.662,1012.68L887.82,1017.19L880.646,1022.88L870.899,1031.52L770.164,1131.18L767.29,1135.66L764.3,1136.35L754.047,1146.32L748.203,1153.34L544.397,1355.84L537.792,1363.94L536.808,1366.64L534.847,1370.19L529.066,1377.28L503.089,1404.62L504.956,1408.32ZM239.155,1727.3L240.145,1726.45L243.971,1728.44L246.644,1729.27L248.616,1729.41L251.421,1728.53L338.073,1640.53L342.113,1635.38L345.915,1629.99L404.075,1570.49L441.508,1534.38L473.899,1500.59L501.742,1471.44L536.141,1435.97L550.843,1421.26L551.648,1420.23L549.857,1416.6L546.229,1414.81L545.195,1415.61L530.481,1430.31L495.018,1464.71L465.868,1492.55L432.074,1524.95L395.968,1562.38L336.466,1620.54L331.075,1624.34L325.923,1628.38L237.919,1715.03L237.048,1717.84L237.181,1719.81L238.015,1722.48L240.003,1726.31L239.155,1727.3ZM559.05,1407.4L562.73,1409.25L569.807,1403.45L577.368,1396.31L578.888,1395.99L582.079,1395.5L587.451,1391.68L666.943,1313.06L777.513,1201.18L852.3,1125.21L957.654,1020.98L973.678,1005.75L998.839,979.432L1043.52,935.864L1051.83,927.631L1050.18,924.139L1049.55,921.675L1048.08,918.369L1044.78,916.902L1042.32,916.277L1038.82,914.623L1030.59,922.936L987.022,967.615L960.705,992.776L945.475,1008.8L841.243,1114.15L765.275,1188.94L653.389,1299.51L574.772,1379L570.952,1384.38L570.465,1387.57L570.147,1389.09L563,1396.65L557.208,1403.72L559.05,1407.4ZM290.491,1729.14L291.481,1728.29L295.326,1730.3L297.992,1731.12L299.91,1731.2L302.733,1730.35L359.976,1671.77L462.255,1568.14L480.93,1548.2L506.962,1520.92L513.615,1512.87L528.055,1499.73L532.619,1496.94L538.462,1489.91L543.268,1483.69L563.941,1463.91L567.56,1462.02L575.145,1453.06L579.91,1446.79L584.715,1440.56L585.5,1439.51L583.728,1435.9L580.117,1434.13L579.064,1434.91L572.837,1439.72L566.572,1444.48L557.61,1452.07L555.715,1455.69L535.941,1476.36L529.716,1481.17L522.69,1487.01L519.899,1491.57L506.762,1506.01L498.707,1512.67L471.424,1538.7L451.491,1557.37L347.86,1659.65L289.279,1716.9L288.425,1719.72L288.505,1721.64L289.332,1724.3L291.339,1728.15L290.491,1729.14ZM593.839,1425.79L597.438,1427.55L601.906,1424.66L612.761,1415.3L616.436,1413.45L619.149,1412.49L648.321,1384.67L785.811,1246.39L805.824,1227.79L842.993,1189.58L958.261,1073.2L1067.39,963.557L1070.74,959.548L1069.55,956.526L1069.21,954.345L1068.17,951.462L1065.28,950.418L1063.1,950.075L1060.08,948.891L1056.07,952.236L946.424,1061.37L830.044,1176.64L791.835,1213.8L773.24,1233.82L634.959,1371.31L607.138,1400.48L606.174,1403.19L604.333,1406.87L594.965,1417.72L592.08,1422.19L593.839,1425.79ZM356.534,1716.27L357.524,1715.42L361.23,1717.29L363.884,1718.1L365.81,1718.19L368.694,1717.4L471.946,1612.9L509.92,1573.66L533.135,1549.07L537.919,1542.83L543.569,1535.61L554.162,1525.98L557.791,1524.09L561.529,1522.31L566.423,1516.18L570.198,1510.76L575.957,1503.65L591.185,1489.46L593.806,1488.41L601.794,1481.69L609.409,1472.75L612.274,1468.26L622.57,1456.5L631.443,1448.83L634.062,1447.77L642.076,1441.07L645.645,1439.13L653.758,1432.53L876.673,1208.7L960.93,1125.65L972.414,1113.24L1060.99,1023.48L1080.54,1002.59L1084.87,999.562L1083.49,996.345L1083.03,994.047L1081.81,990.989L1078.76,989.77L1076.46,989.311L1073.24,987.932L1070.22,992.262L1049.32,1011.81L959.566,1100.39L947.149,1111.87L864.104,1196.13L640.27,1419.05L633.675,1427.16L631.728,1430.73L625.035,1438.74L623.976,1441.36L616.303,1450.23L604.538,1460.53L600.049,1463.39L591.117,1471.01L584.397,1479L583.342,1481.62L569.154,1496.85L562.044,1502.6L556.626,1506.38L550.49,1511.27L548.712,1515.01L546.825,1518.64L537.195,1529.23L529.976,1534.88L523.729,1539.67L499.143,1562.88L459.902,1600.86L355.406,1704.11L354.613,1706.99L354.701,1708.92L355.516,1711.57L357.383,1715.28L356.534,1716.27ZM393.163,1732.81L394.152,1731.97L397.984,1733.96L400.616,1734.75L402.515,1734.81L405.267,1733.89L525.069,1612.85L564.858,1571.75L575.147,1559.97L584.906,1551.35L590.218,1547.47L595.956,1540.34L602.653,1532.32L621.7,1514.6L635.263,1502.43L642.805,1493.42L680.875,1454.28L698.481,1436.95L700.193,1436.82L703.11,1436.06L905.68,1232.33L911.048,1228.51L961.109,1177.45L1039.57,1097.81L1097.74,1040.15L1096.31,1036.88L1095.81,1034.55L1094.54,1031.44L1091.43,1030.16L1089.1,1029.67L1085.82,1028.23L1028.17,1086.4L948.526,1164.87L897.471,1214.93L893.646,1220.3L689.913,1422.87L689.153,1425.78L689.026,1427.5L671.701,1445.1L632.555,1483.17L623.551,1490.71L611.375,1504.28L593.653,1523.32L585.642,1530.02L578.511,1535.76L574.63,1541.07L566.004,1550.83L554.232,1561.12L513.128,1600.91L392.089,1720.71L391.164,1723.46L391.224,1725.36L392.018,1727.99L394.011,1731.82L393.163,1732.81ZM423.356,1755.8L424.346,1754.95L428.187,1756.95L430.849,1757.77L432.834,1757.92L435.655,1757.06L520.47,1670.9L611.716,1578.3L634.035,1554.66L648.536,1541.58L678.201,1510.58L709.232,1480.94L721.446,1467.41L737.739,1452.45L740.8,1448.16L748.632,1441.28L751.127,1440.1L758.247,1434.35L808.565,1383.55L1045.22,1145.88L1087.75,1102L1113.26,1077.87L1111.81,1074.58L1111.31,1072.24L1110.03,1069.12L1106.91,1067.84L1104.57,1067.34L1101.28,1065.89L1077.15,1091.4L1033.27,1133.93L795.6,1370.59L744.802,1420.91L739.052,1428.02L737.871,1430.52L730.995,1438.35L726.701,1441.41L711.741,1457.71L698.215,1469.92L668.577,1500.95L637.572,1530.62L624.496,1545.12L600.853,1567.44L508.252,1658.68L422.087,1743.5L421.232,1746.32L421.378,1748.3L422.202,1750.96L424.205,1754.81L423.356,1755.8ZM461.823,1770.5L462.813,1769.66L466.499,1771.5L469.16,1772.33L471.106,1772.43L474.845,1770.66L656.221,1588.01L661.043,1581.81L674.567,1569.59L745.641,1497.26L798.43,1443.42L816.904,1425.12L818.682,1425.06L821.378,1424.08L1020.32,1224.08L1102.5,1140.79L1123.13,1120.98L1121.72,1117.73L1121.24,1115.41L1120,1112.33L1116.91,1111.08L1114.6,1110.6L1111.35,1109.2L1091.53,1129.83L1008.25,1212L808.243,1410.95L807.261,1413.64L807.202,1415.42L788.906,1433.9L735.063,1486.69L662.736,1557.76L650.521,1571.28L644.312,1576.1L461.67,1757.48L459.894,1761.22L460,1763.17L460.824,1765.83L462.671,1769.51L461.823,1770.5ZM509.644,1781.7L512.33,1782.54L514.242,1782.62L517.08,1781.78L672.838,1625L686.386,1612.8L744.571,1553.33L780.672,1515.89L811.596,1486.14L816.399,1479.92L832.385,1462.81L839.327,1456.88L855.284,1439.75L859.602,1436.71L864.159,1433.91L868.973,1427.7L875.287,1422.98L994.392,1304.92L1024.14,1274L1056.63,1240.31L1105.76,1190.15L1114.51,1182.36L1139.56,1157.77L1138.14,1154.51L1137.66,1152.19L1136.4,1149.1L1133.31,1147.84L1130.99,1147.36L1127.73,1145.94L1103.14,1170.99L1095.35,1179.74L1045.19,1228.87L1011.5,1261.36L980.58,1291.11L862.521,1410.21L857.804,1416.53L851.587,1421.34L848.791,1425.9L845.754,1430.22L828.619,1446.17L822.692,1453.12L805.584,1469.1L799.357,1473.9L769.611,1504.83L732.173,1540.93L672.696,1599.11L660.505,1612.66L503.721,1768.42L502.882,1771.26L502.956,1773.17L503.804,1775.86L509.644,1781.7ZM562.692,1781.57L565.42,1782.46L567.371,1782.57L571.011,1780.7L603.876,1749.22L784.381,1567.54L814.042,1536.53L909.409,1442.54L1042.98,1307.69L1132.46,1216.99L1149.48,1200.93L1148.08,1197.69L1147.61,1195.38L1146.37,1192.3L1143.3,1191.06L1140.99,1190.59L1137.75,1189.19L1121.68,1206.22L1030.99,1295.7L896.139,1429.27L802.144,1524.63L771.135,1554.29L589.46,1734.8L557.978,1767.66L556.103,1771.3L556.216,1773.26L557.104,1775.98L562.692,1781.57ZM616.012,1781.72L618.686,1782.55L620.673,1782.7L624.354,1780.87L659.045,1747.53L725.475,1679.75L898.59,1505.4L932.247,1472.87L969.89,1435.13L1009.07,1395.26L1036.95,1366.14L1043.19,1361.36L1069.46,1334.31L1086.65,1318.41L1096.48,1308.02L1113.38,1289.99L1157.53,1245.89L1156.17,1242.68L1155.71,1240.39L1154.5,1237.35L1151.46,1236.14L1149.17,1235.68L1145.96,1234.32L1101.86,1278.47L1083.83,1295.37L1073.44,1305.2L1057.54,1322.39L1030.49,1348.66L1025.7,1354.9L996.587,1382.78L956.716,1421.96L918.981,1459.6L886.453,1493.26L712.096,1666.37L644.316,1732.8L610.984,1767.5L609.15,1771.18L609.298,1773.16L610.134,1775.84L616.012,1781.72ZM669.085,1781.61L671.766,1782.46L673.631,1782.48L677.379,1780.72L690.919,1768.52L880.527,1577.56L999.447,1457.48L1009.15,1446.96L1012.03,1442.48L1023.28,1431.67L1025.98,1430.69L1043.05,1414.68L1058.3,1398.67L1060.1,1394.95L1064.63,1392.13L1102.08,1356.04L1105,1351.6L1167.45,1289.04L1166.1,1285.85L1165.66,1283.58L1164.47,1280.55L1161.45,1279.36L1159.17,1278.92L1155.99,1277.58L1093.42,1340.03L1088.98,1342.94L1052.9,1380.39L1050.07,1384.93L1046.36,1386.73L1030.35,1401.97L1014.33,1419.05L1013.35,1421.75L1002.54,1433L998.065,1435.87L987.545,1445.58L867.463,1564.5L676.506,1754.1L664.308,1767.64L662.541,1771.39L662.567,1773.26L663.41,1775.94L669.085,1781.61ZM722.192,1781.55L724.759,1782.28L726.74,1782.42L730.287,1780.45L740.237,1772.01L1022.14,1489.51L1046.72,1464.44L1047.43,1461.48L1054.45,1455.63L1073.35,1437.76L1103.39,1407.13L1146.21,1363.54L1159.72,1349.47L1184.14,1326.09L1186.41,1324.69L1184.78,1321.22L1184.17,1318.77L1182.72,1315.48L1179.43,1314.03L1176.98,1313.42L1173.51,1311.79L1172.1,1314.06L1148.73,1338.48L1134.66,1351.99L1091.07,1394.81L1060.44,1424.85L1042.57,1443.75L1036.72,1450.77L1033.76,1451.48L1008.69,1476.06L726.184,1757.96L717.749,1767.91L715.78,1771.46L715.923,1773.44L716.652,1776.01L722.192,1781.55ZM775.617,1781.8L778.297,1782.64L780.283,1782.79L783.031,1781.86L815.906,1750.39L849.564,1716.02L981.572,1583.29L1009.7,1554.42L1017.77,1547.79L1021.91,1542.74L1107.72,1455.73L1125.84,1438.92L1128.65,1434.37L1142.83,1419.14L1157.33,1406.06L1194.16,1369.35L1188.16,1363.35L1188.02,1363.21L1182.03,1357.21L1145.31,1394.04L1132.24,1408.54L1117,1422.72L1112.46,1425.53L1095.64,1443.65L1008.64,1529.46L1003.58,1533.6L996.953,1541.68L968.085,1569.8L835.352,1701.81L800.987,1735.47L769.515,1768.34L768.586,1771.09L768.733,1773.08L769.575,1775.76L775.617,1781.8ZM828.719,1781.73L831.336,1782.5L833.289,1782.62L836.085,1781.74L851.489,1767.73L1032.01,1586.07L1070.06,1546.9L1079.98,1538.44L1094.9,1522.11L1168.87,1447.16L1194.75,1421.56L1188.94,1415.75L1188.8,1415.61L1182.99,1409.8L1157.39,1435.67L1082.44,1509.64L1066.11,1524.56L1057.65,1534.49L1018.48,1572.53L836.821,1753.06L822.81,1768.46L821.929,1771.26L822.043,1773.21L822.822,1775.83L828.719,1781.73ZM881.879,1781.71L884.56,1782.55L886.498,1782.65L889.222,1781.7L904.647,1767.71L1046.56,1624.65L1093.77,1576.27L1152.07,1516.9L1194.4,1474.66L1188.8,1469.06L1188.66,1468.92L1183.06,1463.32L1140.82,1505.65L1081.45,1563.95L1033.07,1611.17L890.012,1753.07L876.022,1768.5L875.069,1771.22L875.168,1773.16L876.011,1775.84L881.879,1781.71ZM934.991,1781.65L937.489,1782.31L939.491,1782.47L944.88,1778.67L948.496,1776.77L1067.34,1656.61L1123.71,1598.99L1151.71,1570L1164.01,1558.4L1194.23,1527.95L1188.66,1522.38L1188.52,1522.24L1182.94,1516.67L1152.49,1546.88L1140.89,1559.19L1111.9,1587.19L1054.29,1643.56L934.128,1762.4L932.228,1766.02L928.425,1771.41L928.588,1773.41L929.248,1775.91L934.991,1781.65ZM988.281,1781.76L990.946,1782.59L992.917,1782.72L995.784,1781.91L1149.65,1626.91L1194.8,1581.98L1188.52,1575.7L1188.38,1575.55L1182.09,1569.27L1137.16,1614.42L982.158,1768.29L981.348,1771.15L981.48,1773.12L982.306,1775.79L988.281,1781.76ZM1041.47,1781.77L1044.14,1782.61L1046.12,1782.75L1048.95,1781.9L1160.61,1669.27L1185.99,1645.01L1184.19,1641.37L1183.47,1638.82L1181.87,1635.38L1178.43,1633.77L1175.88,1633.06L1172.23,1631.25L1147.98,1656.64L1035.34,1768.29L1034.49,1771.12L1034.64,1773.11L1035.47,1775.78L1041.47,1781.77Z" fill-rule="evenodd" fill="#000000"/>
</g>
</svg>
