<?xml version="1.0" encoding="UTF-8" standalone="no"?>
<!-- Created with Inkscape (http://www.inkscape.org/) -->

<svg
   width="210mm"
   height="297mm"
   viewBox="0 0 210 297"
   version="1.1"
   id="svg1"
   inkscape:version="1.3.2 (091e20e, 2023-11-25)"
   sodipodi:docname="drawing_final1.svg"
   xmlns:inkscape="http://www.inkscape.org/namespaces/inkscape"
   xmlns:sodipodi="http://sodipodi.sourceforge.net/DTD/sodipodi-0.dtd"
   xmlns="http://www.w3.org/2000/svg"
   xmlns:svg="http://www.w3.org/2000/svg">
  <sodipodi:namedview
     id="namedview1"
     pagecolor="#ffffff"
     bordercolor="#000000"
     borderopacity="0.25"
     inkscape:showpageshadow="2"
     inkscape:pageopacity="0.0"
     inkscape:pagecheckerboard="0"
     inkscape:deskcolor="#d1d1d1"
     inkscape:document-units="mm"
     inkscape:zoom="0.71950987"
     inkscape:cx="612.22232"
     inkscape:cy="296.03485"
     inkscape:window-width="1392"
     inkscape:window-height="1067"
     inkscape:window-x="44"
     inkscape:window-y="25"
     inkscape:window-maximized="0"
     inkscape:current-layer="g4" />
  <defs
     id="defs1" />
  <g
     inkscape:label="Layer 1"
     inkscape:groupmode="layer"
     id="layer1">
    <g
       id="layer0"
       transform="matrix(0.11264325,0,0,0.11264325,67.935978,4.3107971)">
      <path
         d="M 0,0 H 1208 V 1800 H 0 Z"
         fill="#ffffff"
         id="path1" />
    </g>
    <g
       id="layer1-8"
       transform="matrix(0.11264325,0,0,0.11264325,67.935978,4.3107971)">
      <path
         d="m 457.781,233.487 3.302,1.463 2.219,0.381 3.011,-0.666 22.262,-21.861 -1.075,-2.914 -0.277,-2.115 -0.946,-2.785 -2.784,-0.946 -2.116,-0.277 -2.913,-1.074 -21.861,22.262 -0.667,3.01 0.381,2.22 z m -75.378,128.552 3.085,1.246 2.089,0.25 17.226,-15.866 9.932,-8.453 11.634,-10.428 4.53,-2.824 15.838,-17.255 4.806,-6.224 4.709,-6.322 6.609,-8.099 15.267,-15.987 4.599,-4.593 0.834,-1.005 -1.88,-3.718 -3.718,-1.88 -1.005,0.834 -4.593,4.599 -15.987,15.267 -8.099,6.609 -6.322,4.709 -6.224,4.807 -17.255,15.837 -2.824,4.531 -10.428,11.634 -8.453,9.931 -15.866,17.226 0.25,2.089 z M 482.6,261.842 l 3.678,1.839 9.931,-8.454 4.477,-2.877 21.829,-20.455 42.05,-40.682 15.016,-14.4 -1.443,-3.281 -0.498,-2.337 -1.277,-3.116 -3.116,-1.277 -2.337,-0.498 -3.281,-1.443 -14.4,15.016 -40.682,42.05 -20.455,21.829 -2.877,4.477 -8.454,9.931 z m -106.631,159.806 3.026,1.188 3.159,-0.518 2.696,-0.981 8.098,-6.61 15.247,-14.169 26.303,-25.174 5.846,-7.024 1.753,-3.761 3.745,-5.448 12.164,-13.575 1.717,-1.96 0.858,-0.981 -1.881,-3.719 -3.719,-1.88 -0.981,0.857 -1.96,1.718 -13.574,12.164 -5.448,3.744 -3.762,1.754 -7.023,5.846 -25.175,26.303 -14.169,15.246 -6.609,8.099 -0.981,2.696 -0.518,3.158 z m 172.817,-172.817 3.621,1.783 4.472,-2.882 3.604,-1.912 10.848,-9.375 30.05,-28.781 31.868,-30.64 -1.584,-3.422 -0.582,-2.421 -1.404,-3.243 -3.243,-1.404 -2.421,-0.583 -3.422,-1.583 -30.641,31.867 -28.781,30.051 -9.375,10.848 -1.911,3.604 -2.883,4.471 z m -187.525,240.699 3.5,1.662 2.387,0.548 1.993,0.155 14.287,-15.129 13.136,-12.602 3.714,-1.801 41.702,-42.868 10.415,-11.648 5.667,-7.202 4.727,-6.304 2.455,-3.06 0.841,-0.998 -1.869,-3.708 -3.708,-1.869 -0.998,0.841 -3.06,2.455 -6.304,4.727 -7.202,5.667 -11.648,10.415 -42.868,41.701 -1.801,3.714 -12.603,13.137 -15.128,14.287 0.155,1.993 0.548,2.387 z m 221.536,-221.536 3.41,1.571 11.773,-10.289 6.318,-4.713 3.5,-2.015 5.445,-3.748 31.897,-30.611 32.95,-33.235 -1.503,-3.342 -0.534,-2.372 -1.332,-3.17 -3.17,-1.332 -2.372,-0.534 -3.342,-1.503 -33.235,32.95 -30.611,31.897 -3.748,5.445 -2.015,3.5 -4.713,6.318 -10.289,11.773 z m -218.778,271.953 3.558,1.72 2.228,0.39 3.084,-0.594 7.892,-6.815 53.062,-51.732 6.016,-6.853 1.047,-2.63 0.973,-2.704 1.975,-3.541 3.058,-4.295 0.762,-1.077 -1.843,-3.681 -3.682,-1.843 -1.076,0.761 -4.296,3.059 -3.541,1.974 -2.704,0.973 -2.63,1.047 -6.853,6.016 -51.731,53.062 -6.816,7.893 -0.593,3.083 0.39,2.228 z m 111.227,-111.228 3.177,1.338 3.679,-1.836 2.981,-0.696 3.455,-2.061 8.035,-6.672 3.063,-4.292 0.981,-2.696 10.479,-11.582 2.01,-3.505 0.695,-1.144 -1.785,-3.624 -3.624,-1.785 -1.143,0.695 -3.505,2.011 -11.583,10.479 -2.696,0.981 -4.291,3.062 -6.672,8.036 -2.061,3.454 -0.696,2.981 -1.837,3.679 z m 133.29,-133.29 3.633,1.795 11.697,-10.365 6.253,-4.778 6.237,-4.794 8.899,-7.647 13.51,-12.229 30.097,-28.734 25.908,-25.57 -1.835,-3.673 -0.733,-2.572 -1.63,-3.468 -3.469,-1.63 -2.572,-0.733 -3.673,-1.835 -25.57,25.907 -28.734,30.098 -12.229,13.509 -7.647,8.899 -4.793,6.238 -4.779,6.252 -10.364,11.698 z m -242.679,295.854 3.583,1.744 2.262,0.424 2.833,-0.844 15.391,-14.024 17.163,-17.769 8.992,-7.554 32.508,-33.677 1.965,-3.551 2.805,-4.548 3.898,-5.295 1.519,-2.158 0.787,-1.052 -1.782,-3.62 -3.62,-1.782 -1.053,0.787 -2.158,1.518 -5.294,3.899 -4.548,2.805 -3.551,1.964 -33.677,32.509 -7.555,8.992 -17.768,17.163 -14.024,15.391 -0.844,2.833 0.424,2.262 z m 170.978,-170.979 3.559,1.72 6.276,-4.754 6.272,-4.76 31.54,-32.806 4.799,-6.231 0.773,-1.066 -1.741,-3.58 -3.58,-1.741 -1.066,0.772 -6.231,4.8 -32.807,31.54 -4.759,6.271 -4.754,6.277 z m 81.813,-81.812 3.574,1.736 11.663,-10.399 9.944,-8.44 10.814,-9.41 11.756,-10.306 13.603,-12.135 39.27,-37.946 27.753,-27.401 -1.867,-3.706 -0.753,-2.592 -1.66,-3.498 -3.498,-1.66 -2.592,-0.753 -3.706,-1.868 -27.401,27.754 -37.946,39.27 -12.135,13.603 -10.306,11.756 -9.41,10.814 -8.44,9.944 -10.399,11.663 z m -247.276,300.45 3.39,1.551 2.262,0.423 3.186,-0.49 11.669,-10.394 33.689,-32.495 16.087,-17.006 17.929,-18.84 1.863,-3.653 3.803,-5.389 16.812,-18.12 2.532,-2.983 0.779,-1.06 -1.853,-3.691 -3.692,-1.853 -1.059,0.779 -2.984,2.531 -18.119,16.812 -5.39,3.803 -3.652,1.863 -18.841,17.929 -17.006,16.087 -32.495,33.69 -10.393,11.668 -0.491,3.187 0.424,2.262 z m 221.537,-221.537 3.212,1.374 2.402,-1.276 3.185,-0.491 4.574,-2.78 2.837,-4.517 1.775,-3.74 5.075,-4.118 3.746,-1.769 7.607,-8.94 5.658,-7.211 14.208,-15.207 0.877,-0.962 -1.84,-3.679 -3.678,-1.839 -0.962,0.876 -15.208,14.209 -7.211,5.658 -8.939,7.606 -1.77,3.747 -4.117,5.074 -3.74,1.776 -4.518,2.836 -2.78,4.574 -0.491,3.186 -1.276,2.401 z m 53.316,-53.316 3.692,1.854 13.512,-12.227 9.008,-7.538 8.965,-7.581 6.267,-4.764 12.637,-11.263 51.18,-49.937 20.093,-20.352 -1.761,-3.601 -0.689,-2.527 -1.565,-3.403 -3.402,-1.564 -2.528,-0.69 -3.6,-1.761 -20.353,20.093 -49.936,51.18 -11.264,12.637 -4.764,6.267 -7.58,8.966 -7.539,9.008 -12.227,13.511 z m -261.983,315.158 3.462,1.623 2.281,0.443 3.766,-1.75 9.788,-8.596 4.554,-2.8 7.913,-8.633 63.706,-64.988 2.016,-3.499 2.017,-3.498 4.787,-6.244 4.279,-4.914 0.83,-1.008 -1.848,-3.687 -3.687,-1.849 -1.009,0.831 -4.913,4.278 -6.244,4.787 -3.498,2.018 -3.5,2.016 -64.987,63.705 -8.633,7.914 -2.8,4.554 -8.597,9.788 -1.749,3.766 0.443,2.281 z m 110.308,-110.309 3.621,1.782 6.21,-4.821 3.629,-1.886 3.99,-5.202 1.939,-3.576 0.551,-1.288 -1.555,-3.394 -3.393,-1.554 -1.288,0.55 -3.576,1.939 -5.203,3.99 -1.885,3.63 -4.821,6.21 z m 25.739,-25.739 3.389,1.551 4.395,-2.96 3.781,-1.734 4.534,-2.819 18.746,-19.863 2.879,-4.475 15.96,-17.132 0.756,-1.082 0.735,-1.104 -1.859,-3.697 -3.698,-1.859 -1.103,0.734 -1.082,0.757 -17.133,15.96 -4.475,2.879 -19.862,18.745 -2.82,4.535 -1.734,3.781 -2.959,4.395 z m 97.439,-97.439 3.132,1.294 2.662,-1.016 8.115,-6.592 16.329,-14.925 4.439,-2.915 52.118,-50.838 13.569,-12.169 74.521,-74.396 -1.718,-3.556 -0.663,-2.502 -1.525,-3.363 -3.364,-1.525 -2.501,-0.663 -3.557,-1.718 -74.396,74.52 -12.169,13.57 -50.837,52.117 -2.915,4.439 -14.925,16.33 -6.593,8.114 -1.015,2.662 z m -227.971,281.146 3.433,1.594 2.099,0.261 3.124,-0.553 2.654,-1.023 24.54,-23.261 1.774,-3.741 16.313,-14.941 29.061,-27.932 28.767,-30.064 4.985,-6.046 0.941,-2.736 1.745,-3.771 2.904,-4.449 0.785,-1.054 -1.785,-3.624 -3.624,-1.785 -1.054,0.785 -4.449,2.904 -3.77,1.745 -2.737,0.941 -6.046,4.985 -30.064,28.767 -27.932,29.061 -14.941,16.313 -3.741,1.774 -23.261,24.54 -1.022,2.654 -0.554,3.124 0.261,2.099 z m 133.29,-133.29 3.438,1.6 4.545,-2.809 5.288,-3.904 6.709,-7.999 3.973,-5.22 0.883,-0.955 0.903,-6.451 -6.451,0.903 -0.956,0.882 -5.22,3.973 -7.999,6.709 -3.904,5.288 -2.809,4.545 z m 21.142,-21.142 3.694,1.855 4.393,-2.961 3.526,-1.989 16.821,-18.11 10.332,-11.731 0.782,-1.055 -1.859,-3.698 -3.698,-1.859 -1.055,0.782 -11.73,10.332 -18.111,16.821 -1.989,3.526 -2.96,4.394 z m 106.632,-106.632 3.718,1.88 30.08,-28.751 6.201,-4.831 7.168,-5.701 9.033,-7.513 10.85,-9.373 62.252,-60.927 26.241,-27.074 4.106,-3.249 -1.875,-3.712 -0.757,-2.596 -1.666,-3.504 -3.504,-1.666 -2.595,-0.757 -3.713,-1.875 -3.249,4.106 -27.074,26.241 -60.927,62.252 -9.373,10.85 -7.513,9.033 -5.701,7.168 -4.83,6.201 -28.752,30.08 z m -283.126,336.3 3.675,1.836 2.438,0.6 1.821,-0.018 2.764,-0.913 20.429,-21.855 6.3,-4.732 32.24,-32.107 95.944,-97.096 3.91,-5.282 1.885,-3.63 4.7,-6.331 4.128,-5.064 0.855,-0.984 -1.837,-3.675 -3.675,-1.837 -0.984,0.854 -5.065,4.128 -6.33,4.7 -3.631,1.885 -5.282,3.911 -97.096,95.944 -32.107,32.24 -4.731,6.299 -21.856,20.429 -0.913,2.765 -0.017,1.82 0.599,2.438 z m 239.003,-239.002 3.613,1.775 23.68,-22.282 18.164,-16.768 26.431,-25.045 13.562,-12.177 12.627,-11.274 21.743,-20.541 3.005,-4.349 8.021,-6.687 83.505,-83.797 -1.694,-3.532 -0.649,-2.487 -1.503,-3.342 -3.341,-1.503 -2.487,-0.648 -3.532,-1.694 -83.798,83.504 -6.686,8.021 -4.349,3.006 -20.542,21.743 -11.273,12.627 -12.177,13.561 -25.046,26.432 -16.768,18.163 -22.282,23.68 z m -388.838,442.01 3.297,1.46 2.299,0.46 3.122,-0.55 10.812,-9.415 6.329,-4.702 11.377,-12.522 42.004,-40.727 51.05,-51.906 53.642,-54.828 5.399,-3.793 19.584,-20.862 81.375,-80.412 27.201,-27.953 14.042,-15.374 1.896,-3.619 10.784,-9.439 16.308,-14.946 29.717,-30.954 81.527,-80.259 19.079,-17.69 30.617,-31.891 5.188,-4.004 8.607,-9.778 12.64,-11.26 61.132,-60.208 -1.823,-3.662 -0.727,-2.564 -1.619,-3.459 -3.459,-1.62 -2.564,-0.726 -3.662,-1.823 -60.208,61.132 -11.26,12.64 -9.778,8.607 -4.004,5.188 -31.891,30.617 -17.69,19.079 -80.26,81.527 -30.953,29.716 -14.946,16.309 -9.439,10.784 -3.619,1.896 -15.374,14.042 -27.953,27.202 -80.412,81.374 -20.862,19.584 -3.793,5.399 -54.828,53.642 -51.906,51.049 -40.727,42.005 -12.522,11.377 -4.702,6.329 -9.412,10.812 -0.555,3.122 0.461,2.304 z m -11.951,65.13 3.462,1.62 2.369,0.53 2.899,-0.78 11.773,-10.29 130.282,-128.94 36.19,-37.349 6.589,-8.119 10.297,-11.764 15.855,-17.238 7.21,-5.659 23.257,-24.543 13.128,-14.45 0.74,-1.098 0.716,-1.123 -1.864,-3.702 -3.703,-1.864 -1.123,0.715 -1.098,0.741 -14.45,13.127 -24.542,23.257 -5.66,7.21 -17.238,15.855 -11.764,10.298 -8.119,6.589 -37.349,36.19 -128.943,130.277 -10.289,11.78 -0.778,2.9 0.53,2.37 z m 299.672,-299.675 3.54,1.701 6.318,-4.713 33.753,-32.432 13.086,-14.491 26.369,-25.108 9.015,-7.532 8.022,-6.686 19.805,-18.802 85.229,-83.911 47.44,-48.161 64.035,-62.82 10.226,-9.998 -1.83,-3.668 -0.73,-2.568 -1.625,-3.464 -3.464,-1.625 -2.568,-0.73 -3.668,-1.829 -9.998,10.225 -62.819,64.036 -48.161,47.44 -83.912,85.228 -18.802,19.806 -6.686,8.022 -7.532,9.014 -25.108,26.369 -14.491,13.087 -32.432,33.753 -4.712,6.318 z m -456.8613,510.035 3.4327,1.6 2.3655,0.52 1.8596,0.02 3.7242,-1.79 66.6823,-65.69 6.644,-8.06 95.248,-94.11 40.029,-40.87 99.585,-100.808 46.387,-47.375 0.978,-2.699 1.871,-3.645 0.721,-1.117 -1.832,-3.67 -3.67,-1.832 -1.118,0.721 -3.645,1.87 -2.698,0.978 -47.375,46.388 -100.809,99.589 -40.864,40.02 -94.115,95.25 -8.065,6.65 -65.6875,66.68 -1.7912,3.72 0.0211,1.86 0.527,2.37 z m 545.1083,-545.107 3.606,1.767 16.291,-14.963 12.615,-11.285 5.334,-3.859 28.227,-26.927 30.999,-29.671 26.399,-25.078 10.325,-11.737 8.885,-7.661 3.202,-4.152 43.482,-44.765 4.465,-2.889 20.89,-19.557 7.506,-9.04 22.462,-21.662 -1.695,-3.533 -0.649,-2.487 -1.503,-3.342 -3.342,-1.504 -2.488,-0.648 -3.532,-1.695 -21.662,22.462 -9.04,7.506 -19.557,20.89 -2.889,4.464 -44.765,43.483 -4.152,3.201 -7.661,8.886 -11.737,10.325 -25.078,26.399 -29.671,30.999 -26.927,28.227 -3.859,5.334 -11.285,12.615 -14.963,16.291 z M 25.7387,1356.8 l 3.6117,1.77 2.3955,0.56 1.8969,0.06 4.5558,-2.8 116.3514,-117.14 123.713,-122.64 6.699,-8.01 11.763,-10.3 47.356,-48.24 42.567,-43.84 45.542,-46.386 4.719,-6.313 9.7,-10.523 2.128,-3.387 0.487,-1.352 -1.555,-3.393 -3.393,-1.555 -1.352,0.487 -3.387,2.128 -10.523,9.7 -6.312,4.719 -46.382,45.542 -43.841,42.563 -48.245,47.36 -10.299,11.76 -8.009,6.7 -122.643,123.72 -117.1349,116.35 -2.7981,4.55 0.0584,1.9 0.5571,2.39 z m 615.8903,-615.893 3.583,1.744 10.727,-9.496 25.379,-24.26 15.425,-13.99 7.228,-5.641 20.871,-19.577 24.541,-23.258 6.786,-7.923 29.972,-28.858 34.32,-35.543 9.581,-8.803 18.26,-18.51 -1.564,-3.403 -0.571,-2.409 -1.387,-3.225 -3.225,-1.387 -2.409,-0.571 -3.403,-1.564 -18.509,18.26 -8.804,9.582 -35.542,34.319 -28.859,29.972 -7.922,6.786 -23.259,24.542 -19.576,20.87 -5.642,7.228 -13.99,15.425 -24.26,25.379 -9.496,10.728 z m -620.4865,673.663 3.6213,1.78 2.3675,0.53 3.0015,-0.68 5.4249,-3.76 101.3963,-102.68 33.674,-32.51 20.71,-21.57 200.121,-198.83 24.284,-25.36 35.225,-36.473 34.545,-35.317 0.766,-2.912 1.075,-2.602 0.512,-1.326 -1.589,-3.428 -3.427,-1.588 -1.327,0.511 -2.601,1.076 -2.912,0.765 -35.317,34.545 -36.475,35.229 -25.355,24.28 -198.829,200.12 -21.574,20.71 -32.512,33.68 -102.6744,101.39 -3.7675,5.43 -0.6755,3 0.529,2.37 z m 673.8025,-673.805 3.655,1.817 1.916,-1.76 8.131,-6.578 11.548,-10.514 6.329,-4.702 8.083,-6.624 5.44,-3.752 95.024,-96.178 19.268,-19.34 -1.405,-3.243 -0.475,-2.314 -1.244,-3.082 -3.082,-1.244 -2.314,-0.475 -3.244,-1.406 -19.34,19.268 -96.177,95.025 -3.753,5.439 -6.624,8.084 -4.702,6.329 -10.513,11.548 -6.578,8.13 -1.76,1.917 z m -671.0448,724.215 3.6214,1.79 2.3819,0.54 3.1276,-0.55 8.1279,-6.58 113.405,-114.57 33.312,-34.71 15.029,-16.22 17.235,-15.86 2.741,-0.94 21.847,-20.43 6.582,-8.13 29.817,-30.85 14.504,-13.08 89.008,-89.32 72.053,-73.19 22.422,-23.54 30.785,-31.719 18.72,-19.888 0.941,-2.737 0.495,-1.343 -1.493,-3.331 -3.331,-1.493 -1.343,0.496 -2.736,0.94 -19.889,18.72 -31.723,30.785 -23.54,22.42 -73.187,72.05 -89.323,89.01 -13.074,14.51 -30.852,29.81 -8.126,6.59 L 211,1266 l -0.936,2.74 -15.858,17.24 -16.225,15.03 -34.711,33.31 -114.5668,113.41 -6.58,8.12 -0.5494,3.13 0.5435,2.38 z m 697.7018,-697.698 3.361,1.521 3.497,-2.018 7.22,-5.649 4.541,-2.813 8.049,-6.658 11.677,-10.385 26.417,-25.061 39.792,-41.1 33.444,-32.742 -1.671,-3.509 -0.635,-2.474 -1.483,-3.321 -3.321,-1.483 -2.473,-0.635 -3.51,-1.671 -32.741,33.444 -41.101,39.792 -25.06,26.417 -10.385,11.677 -6.659,8.049 -2.813,4.542 -5.649,7.219 -2.018,3.498 z m -698.8846,757.048 2.2378,0.4 3.0453,-0.63 4.5116,-2.85 30.0547,-28.77 84.8502,-86.13 18.955,-19.65 8.518,-9.87 4.005,-5.19 3.782,-5.41 5.948,-5.08 2.556,-1.12 3.64,-1.88 10.411,-11.65 5.692,-7.17 7.672,-8.88 14.34,-13.24 10.089,-10.13 3.046,-0.63 28.275,-26.88 95.313,-94.05 28.725,-30.11 93.995,-95.37 13.077,-14.5 16.276,-14.97 4.923,-6.11 29.726,-30.945 17.749,-19.021 0.791,-1.048 0.489,-1.349 -1.805,-3.643 -3.643,-1.805 -1.35,0.489 -1.048,0.79 -19.02,17.749 -30.944,29.723 -6.107,4.93 -14.979,16.27 -14.5,13.08 -95.369,93.99 -30.106,28.73 -94.049,95.31 -26.88,28.28 -0.631,3.04 -10.134,10.09 -13.237,14.34 -8.875,7.67 -7.177,5.7 -11.65,10.41 -1.876,3.64 -1.121,2.55 -5.083,5.95 -5.411,3.78 -5.187,4.01 -9.866,8.52 -19.654,18.95 -86.1277,84.85 -28.7766,30.06 -2.8423,4.51 -0.6316,3.04 0.3993,2.24 z M 712.41,829.649 l 3.591,1.752 7.915,-6.793 11.646,-10.416 4.41,-2.944 11.65,-10.411 14.456,-13.121 64.952,-63.741 30.354,-30.316 -1.649,-3.488 -0.622,-2.46 -1.463,-3.302 -3.302,-1.463 -2.46,-0.622 -3.488,-1.65 -30.316,30.354 -63.742,64.952 -13.12,14.457 -10.412,11.65 -2.944,4.41 -10.415,11.646 -6.793,7.915 z m -689.5378,748.011 2.4226,0.58 2.1308,0.3 3.6338,-1.89 62.2224,-60.95 57.5722,-58.25 37.091,-38.29 18.704,-19.9 2.889,-4.47 10.839,-9.38 39.815,-41.08 5.258,-3.94 32.42,-31.92 42.889,-41.68 65.952,-64.58 11.243,-12.66 111.5,-112.79 45.298,-46.63 3.841,-5.35 4.493,-2.86 8.505,-9.88 11.409,-10.66 17.701,-19.065 3.146,-4.207 0.474,-1.365 0.715,-1.123 -1.792,-3.631 -3.631,-1.792 -1.123,0.715 -1.365,0.474 -4.207,3.146 -19.069,17.701 -10.653,11.407 -9.88,8.51 -2.861,4.49 -5.351,3.84 -46.626,45.3 -112.794,111.5 -12.657,11.24 -64.58,65.95 -41.681,42.89 -31.927,32.42 -3.934,5.26 -41.079,39.82 -9.383,10.84 -4.465,2.88 -19.905,18.71 -38.286,37.09 -58.2519,57.57 -60.9557,62.22 -1.8815,3.64 0.2923,2.13 0.5842,2.42 z m 687.6998,-692.999 3.507,1.67 6.107,-4.924 10.783,-9.441 7.983,-6.725 14.284,-13.293 14.356,-13.221 21.647,-22.476 14.376,-13.201 26.424,-25.054 17.819,-18.95 8.058,-6.65 24.76,-24.88 -1.645,-3.482 -0.619,-2.458 -1.458,-3.297 -3.297,-1.458 -2.458,-0.619 -3.483,-1.645 -24.879,24.76 -6.65,8.058 -18.95,17.819 -25.054,26.424 -13.201,14.376 -22.476,21.647 -13.221,14.356 -13.293,14.284 -6.725,7.983 -9.441,10.783 -4.924,6.107 z m -687.6757,746.199 2.3162,0.48 1.7284,-0.12 2.7072,-0.96 4.5197,-2.84 196.9652,-198.31 12.309,-13.43 25.253,-24.38 4.962,-6.07 0.927,-2.75 5.38,-3.81 7.123,-5.75 5.746,-7.12 29.83,-29 7.207,-5.67 208.045,-209.29 52.836,-53.79 60.963,-62.22 7.544,-8.999 11.469,-10.592 9.02,-7.527 22.396,-23.566 1.942,-3.573 23.662,-22.3 41.887,-40.845 10.79,-9.433 25.489,-24.15 14.515,-13.062 7.564,-8.983 70.844,-70.718 -1.554,-3.393 -0.565,-2.404 -1.378,-3.216 -3.217,-1.378 -2.404,-0.565 -3.393,-1.555 -70.718,70.845 -8.982,7.564 -13.062,14.515 -24.15,25.489 -9.434,10.789 -40.844,41.888 -22.3,23.662 -3.574,1.942 -23.566,22.395 -7.526,9.02 -10.593,11.469 -9.002,7.544 -62.215,60.967 -53.795,52.83 -209.29,208.05 -5.662,7.2 -29.001,29.83 -7.124,5.75 -5.746,7.12 -3.813,5.38 -2.75,0.93 -6.069,4.96 -24.385,25.26 -13.43,12.3 -198.3075,196.97 -2.8342,4.52 -0.9698,2.71 -0.1101,1.72 0.4778,2.32 z m 1.0039,46.82 0.99,-0.85 3.7779,1.94 2.6248,0.79 2.0055,0.17 2.8068,-0.87 29.8367,-30.84 45.6721,-44.41 20.532,-21.75 88.015,-86.64 16.93,-18 39.904,-40.99 21.602,-22.53 13.28,-14.29 13.185,-14.39 1.919,-3.6 4.04,-5.15 0.779,-1.06 -1.793,-3.63 -3.632,-1.8 -1.06,0.78 -5.152,4.04 -3.596,1.92 -14.392,13.19 -14.298,13.27 -22.522,21.61 -40.989,39.9 -18.001,16.93 -86.639,88.02 -21.7535,20.53 -44.4134,45.67 -30.833,29.84 -0.8702,2.8 0.167,2.01 0.7863,2.62 1.9395,3.78 z m 351.1488,-351.15 3.647,1.81 3.414,-2.1 1.452,-0.39 1.78,-0.06 3.773,-1.74 11.684,-10.38 100.498,-101.73 128.324,-127.23 15.216,-16.03 139.048,-140.403 9.819,-10.405 1.102,-2.574 5.647,-7.223 2.108,-3.408 3.704,-3.649 5.041,-4.151 4.585,-2.769 25.136,-26.342 3.364,-2.152 4.412,-2.942 6.23,-4.8 5.06,-5.971 2.777,-4.577 7.204,-5.666 14.371,-13.205 17.155,-15.938 18.529,-18.241 -1.615,-3.453 -0.601,-2.44 -1.432,-3.27 -3.27,-1.432 -2.44,-0.601 -3.453,-1.615 -18.241,18.529 -15.938,17.155 -13.206,14.371 -5.665,7.204 -4.577,2.777 -5.971,5.06 -4.8,6.23 -2.943,4.412 -2.151,3.364 -26.342,25.136 -2.769,4.585 -4.151,5.041 -3.649,3.704 -3.408,2.108 -7.223,5.647 -2.574,1.102 -10.405,9.819 -140.4,139.043 -16.038,15.22 -127.224,128.33 -101.735,100.49 -10.378,11.69 -1.742,3.77 -0.059,1.78 -0.387,1.45 -2.1,3.42 z m -323.5716,376.75 0.9899,-0.85 3.7828,1.94 2.6519,0.82 2.0266,0.19 2.8192,-0.86 249.5092,-250.56 15.861,-17.23 5.676,-7.19 9.422,-10.8 7.564,-8.99 8.62,-9.76 0.88,-0.96 1.819,-7.37 -7.373,1.82 -0.958,0.88 -9.765,8.62 -8.982,7.56 -10.802,9.42 -7.193,5.68 -17.232,15.86 -250.5562,249.51 -0.8577,2.82 0.1881,2.02 0.8134,2.66 1.9443,3.78 z m 360.3416,-360.34 3.523,1.68 9.937,-8.45 5.196,-3.99 1.259,-0.58 1.97,0.13 2.937,-0.74 65.509,-66.86 134.855,-133.56 158.779,-159.282 1.049,-2.628 4.322,-3.032 28.964,-29.867 19.061,-17.709 14.149,-15.266 2.833,-4.521 4.756,-6.275 3.996,-5.196 0.53,-1.309 0.564,-1.274 -1.812,-3.651 -3.651,-1.812 -1.274,0.564 -1.309,0.53 -5.196,3.996 -6.275,4.756 -4.521,2.833 -15.266,14.149 -17.709,19.061 -29.867,28.964 -3.032,4.322 -2.628,1.049 -159.278,158.778 -133.563,134.86 -66.86,65.51 -0.741,2.93 0.132,1.97 -0.579,1.26 -3.997,5.2 -8.447,9.93 z m 462.377,-462.38 3.624,1.785 4.379,-2.974 4.241,-3.113 7.138,-5.731 18.038,-16.894 8.026,-6.681 24.003,-23.797 -1.461,-3.3 -0.509,-2.348 -1.294,-3.132 -3.132,-1.294 -2.348,-0.509 -3.299,-1.461 -23.797,24.003 -6.682,8.027 -16.893,18.037 -5.731,7.139 -3.113,4.241 -2.975,4.379 z m -801.9185,854.09 0.9899,-0.85 3.8264,1.99 2.5958,0.76 2.017,0.18 3.7462,-1.77 161.1702,-162.4 22.687,-21.44 16.019,-17.07 0.874,-2.81 7.547,-8.99 18.617,-20 28.098,-27.05 2.702,-0.98 13.381,-12.35 16.913,-18.02 6.602,-8.11 11.241,-12.66 17.732,-19.04 0.748,-1.09 0.802,-1.03 -1.867,-3.71 -3.706,-1.87 -1.036,0.81 -1.091,0.74 -19.037,17.74 -12.66,11.24 -8.106,6.6 -18.018,16.91 -12.357,13.38 -0.975,2.71 -27.056,28.09 -19.991,18.62 -9,7.55 -2.802,0.87 -17.074,16.02 -21.436,22.69 -162.4025,161.17 -1.7692,3.74 0.1786,2.02 0.7573,2.6 1.9878,3.82 z m 375.9685,-375.97 3.66,1.83 13.6,-12.14 3.558,-1.96 2.933,-0.74 6.286,-4.75 143.909,-142.89 11.366,-12.54 17.217,-15.87 94.261,-95.1 29.014,-29.82 46.255,-47.509 26.96,-28.194 4.522,-2.833 8.017,-6.69 16.327,-14.927 38.076,-39.14 5.842,-7.028 26.274,-25.203 24.75,-24.889 -1.538,-3.377 -0.556,-2.393 -1.363,-3.202 -3.202,-1.364 -2.393,-0.555 -3.377,-1.538 -24.889,24.75 -25.203,26.274 -7.028,5.841 -39.14,38.077 -14.927,16.327 -6.691,8.017 -2.832,4.521 -28.195,26.96 -47.506,46.255 -29.818,29.01 -95.102,94.27 -15.876,17.21 -12.534,11.37 -142.893,143.91 -4.746,6.28 -0.743,2.94 -1.958,3.55 -12.139,13.6 z m -357.7251,410.9 0.9899,-0.84 3.865,2.02 2.4739,0.64 1.8279,-0.01 3.0104,-0.67 9.759,-8.63 -1.94,-3.77 -0.796,-2.64 -1.725,-3.56 -3.563,-1.73 -2.634,-0.79 -3.7788,-1.94 -8.6258,9.76 -0.6664,3.01 -0.0106,1.83 0.6354,2.47 2.0266,3.86 z m 17.4651,-17.46 1.917,0.08 3.451,1.61 2.423,0.58 3.182,-0.49 5.415,-3.78 17.689,-19.08 47.394,-48.21 17.22,-15.87 66.501,-67.71 15.9,-17.19 14.98,-16.27 3.758,-5.44 23.245,-24.55 35.297,-36.41 5.508,-5.52 0.827,-1.01 -1.804,-3.64 -3.644,-1.81 -1.011,0.83 -5.522,5.51 -36.404,35.29 -24.556,23.25 -5.434,3.76 -16.274,14.98 -17.193,15.9 -67.707,66.5 -15.874,17.22 -48.206,47.39 -19.08,17.69 -3.777,5.42 -0.496,3.18 0.585,2.42 1.613,3.45 z m 262.903,-262.9 3.702,1.86 12.602,-11.3 8.084,-6.62 20.525,-21.76 29.655,-31.02 4.548,-4.64 0.865,-0.97 -1.846,-3.69 -3.684,-1.84 -0.974,0.86 -4.644,4.55 -31.015,29.65 -21.76,20.53 -6.624,8.08 -11.298,12.6 z m 104.793,-104.8 3.713,1.88 26.355,-25.12 2.791,-0.89 2.895,-0.78 5.408,-3.79 193.627,-192.45 31.774,-32.57 93.182,-94.35 45.713,-44.368 120.3,-120.545 -1.611,-3.444 -0.595,-2.435 -1.424,-3.262 -3.263,-1.424 -2.434,-0.596 -3.445,-1.606 -120.545,120.295 -44.373,45.715 -94.342,93.18 -32.572,31.77 -192.454,193.63 -3.784,5.41 -0.783,2.89 -0.886,2.79 -25.122,26.36 z m -336.583,389.76 0.99,-0.85 3.831,1.99 2.667,0.83 1.933,0.1 2.834,-0.85 160.22,-161.51 3.983,-5.21 25.962,-27.35 10.289,-11.77 15.903,-17.19 20.57,-21.72 19.968,-18.64 8.088,-6.62 32.466,-33.72 27.805,-29.19 7.263,-7.44 0.813,-1.03 -1.79,-3.62 -3.628,-1.79 -1.025,0.81 -7.445,7.26 -29.188,27.81 -33.719,32.46 -6.62,8.09 -18.64,19.97 -21.715,20.57 -17.19,15.9 -11.772,10.29 -27.355,25.96 -5.209,3.99 -161.513,160.22 -0.843,2.83 0.095,1.93 0.828,2.67 1.993,3.83 z m 365.857,-365.86 3.705,1.87 27.339,-25.98 7.089,-5.78 3.554,-1.96 2.694,-0.98 8.102,-6.61 202.497,-203.8 7.026,-5.85 9.97,-10.25 0.687,-2.99 4.48,-2.87 99.659,-100.74 8.638,-9.75 5.696,-7.17 4.511,-2.84 7.177,-5.69 3.439,-2.08 90.541,-91.471 23.67,-22.287 4.35,-4.848 -1.6,-3.439 -0.6,-2.432 -1.42,-3.258 -3.25,-1.42 -2.44,-0.593 -3.43,-1.601 -4.85,4.345 -22.289,23.675 -91.47,90.539 -2.077,3.44 -5.692,7.18 -2.842,4.51 -7.174,5.69 -9.747,8.64 -100.735,99.66 -2.874,4.48 -2.99,0.69 -10.253,9.97 -5.844,7.02 -203.806,202.5 -6.605,8.1 -0.984,2.7 -1.961,3.55 -5.781,7.09 -25.977,27.34 z m -265.801,318.98 0.99,-0.85 3.826,1.99 2.673,0.83 1.972,0.14 2.805,-0.88 86.652,-88 4.04,-5.15 3.802,-5.39 58.16,-59.5 37.433,-36.11 32.391,-33.79 27.843,-29.15 34.399,-35.47 14.702,-14.71 0.805,-1.03 -1.791,-3.63 -3.628,-1.79 -1.034,0.8 -14.714,14.7 -35.463,34.4 -29.15,27.84 -33.794,32.4 -36.106,37.43 -59.502,58.16 -5.391,3.8 -5.152,4.04 -88.004,86.65 -0.871,2.81 0.133,1.97 0.834,2.67 1.988,3.83 z m 319.895,-319.9 3.68,1.85 7.077,-5.8 7.561,-7.14 1.52,-0.32 3.191,-0.49 5.372,-3.82 79.492,-78.62 110.57,-111.88 74.787,-75.97 105.354,-104.23 16.024,-15.23 25.161,-26.318 44.681,-43.568 8.31,-8.233 -1.65,-3.492 -0.63,-2.464 -1.47,-3.306 -3.3,-1.467 -2.46,-0.625 -3.5,-1.654 -8.23,8.313 -43.568,44.679 -26.317,25.161 -15.23,16.024 -104.232,105.35 -75.968,74.79 -111.886,110.57 -78.617,79.49 -3.82,5.38 -0.487,3.19 -0.318,1.52 -7.147,7.56 -5.792,7.07 z m -268.559,321.74 0.99,-0.85 3.845,2.01 2.666,0.82 1.918,0.08 2.823,-0.85 57.243,-58.58 102.279,-103.63 18.675,-19.94 26.032,-27.28 6.653,-8.05 14.44,-13.14 4.564,-2.79 5.843,-7.03 4.806,-6.22 20.673,-19.78 3.619,-1.89 7.585,-8.96 4.765,-6.27 4.805,-6.23 0.785,-1.05 -1.772,-3.61 -3.611,-1.77 -1.053,0.78 -6.227,4.81 -6.265,4.76 -8.962,7.59 -1.895,3.62 -19.774,20.67 -6.225,4.81 -7.026,5.84 -2.791,4.56 -13.137,14.44 -8.055,6.66 -27.283,26.03 -19.933,18.67 -103.631,102.28 -58.581,57.25 -0.854,2.82 0.08,1.92 0.827,2.66 2.007,3.85 z m 303.348,-303.35 3.599,1.76 4.468,-2.89 10.855,-9.36 3.675,-1.85 2.713,-0.96 29.172,-27.82 137.49,-138.28 20.013,-18.6 37.169,-38.21 115.268,-116.38 109.129,-109.643 3.35,-4.009 -1.19,-3.022 -0.34,-2.181 -1.04,-2.883 -2.89,-1.044 -2.18,-0.343 -3.02,-1.184 -4.01,3.345 -109.646,109.134 -116.38,115.27 -38.209,37.16 -18.595,20.02 -138.281,137.49 -27.821,29.17 -0.964,2.71 -1.841,3.68 -9.368,10.85 -2.885,4.47 z m -237.305,290.48 0.99,-0.85 3.706,1.87 2.654,0.81 1.926,0.09 2.884,-0.79 103.252,-104.5 37.974,-39.24 23.215,-24.59 4.784,-6.24 5.65,-7.22 10.593,-9.63 3.629,-1.89 3.738,-1.78 4.894,-6.13 3.775,-5.42 5.759,-7.11 15.228,-14.19 2.621,-1.05 7.988,-6.72 7.615,-8.94 2.865,-4.49 10.296,-11.76 8.873,-7.67 2.619,-1.06 8.014,-6.7 3.569,-1.94 8.113,-6.6 222.915,-223.83 84.257,-83.05 11.484,-12.41 88.576,-89.76 19.55,-20.89 4.33,-3.028 -1.38,-3.217 -0.46,-2.298 -1.22,-3.058 -3.05,-1.219 -2.3,-0.459 -3.22,-1.379 -3.02,4.33 -20.9,19.548 -89.754,88.58 -12.417,11.48 -83.045,84.26 -223.834,222.92 -6.595,8.11 -1.947,3.57 -6.693,8.01 -1.059,2.62 -7.673,8.87 -11.765,10.3 -4.489,2.86 -8.932,7.62 -6.72,7.99 -1.055,2.62 -14.188,15.23 -7.11,5.75 -5.418,3.78 -6.136,4.89 -1.778,3.74 -1.887,3.63 -9.63,10.59 -7.219,5.65 -6.247,4.79 -24.586,23.21 -39.241,37.98 -104.496,103.25 -0.793,2.88 0.088,1.93 0.815,2.65 1.867,3.71 z m 36.629,16.54 0.989,-0.84 3.832,1.99 2.632,0.79 1.899,0.06 2.752,-0.92 119.802,-121.04 39.789,-41.1 10.289,-11.78 9.759,-8.62 5.312,-3.88 5.738,-7.13 6.697,-8.02 19.047,-17.72 13.563,-12.17 7.542,-9.01 38.07,-39.14 17.606,-17.33 1.712,-0.13 2.917,-0.76 202.57,-203.73 5.368,-3.82 50.061,-51.06 78.461,-79.64 58.17,-57.66 -1.43,-3.27 -0.5,-2.33 -1.27,-3.11 -3.11,-1.28 -2.33,-0.49 -3.28,-1.44 -57.65,58.17 -79.644,78.47 -51.055,50.06 -3.825,5.37 -203.733,202.57 -0.76,2.91 -0.127,1.72 -17.325,17.6 -39.146,38.07 -9.004,7.54 -12.176,13.57 -17.722,19.04 -8.011,6.7 -7.131,5.74 -3.881,5.31 -8.626,9.76 -11.772,10.29 -41.104,39.79 -121.039,119.8 -0.925,2.75 0.06,1.9 0.794,2.63 1.993,3.83 z m 30.193,22.99 0.99,-0.85 3.841,2 2.662,0.82 1.985,0.15 2.821,-0.86 84.815,-86.16 91.246,-92.6 22.319,-23.64 14.501,-13.08 29.665,-31 31.031,-29.64 12.214,-13.53 16.293,-14.96 3.061,-4.29 7.832,-6.88 2.495,-1.18 7.12,-5.75 50.318,-50.8 236.655,-237.67 42.53,-43.88 25.51,-24.13 -1.45,-3.29 -0.5,-2.34 -1.28,-3.12 -3.12,-1.28 -2.34,-0.5 -3.29,-1.45 -24.13,25.51 -43.88,42.53 -237.67,236.66 -50.798,50.32 -5.75,7.11 -1.181,2.5 -6.876,7.83 -4.294,3.06 -14.96,16.3 -13.526,12.21 -29.638,31.03 -31.005,29.67 -13.076,14.5 -23.643,22.32 -92.601,91.24 -86.165,84.82 -0.855,2.82 0.146,1.98 0.824,2.66 2.003,3.85 z m 38.467,14.7 0.99,-0.84 3.686,1.84 2.661,0.83 1.946,0.1 3.739,-1.77 181.376,-182.65 4.822,-6.2 13.524,-12.22 71.074,-72.33 52.789,-53.84 18.474,-18.3 1.778,-0.06 2.696,-0.98 198.942,-200 82.18,-83.29 20.63,-19.81 -1.41,-3.25 -0.48,-2.32 -1.24,-3.08 -3.09,-1.25 -2.31,-0.48 -3.25,-1.4 -19.82,20.63 -83.28,82.17 -200.007,198.95 -0.982,2.69 -0.059,1.78 -18.296,18.48 -53.843,52.79 -72.327,71.07 -12.215,13.52 -6.209,4.82 -182.642,181.38 -1.776,3.74 0.106,1.95 0.824,2.66 1.847,3.68 z m 47.821,11.2 2.686,0.84 1.912,0.08 2.838,-0.84 155.758,-156.78 13.548,-12.2 58.185,-59.47 36.101,-37.44 30.924,-29.75 4.803,-6.22 15.986,-17.11 6.942,-5.93 15.957,-17.13 4.318,-3.04 4.557,-2.8 4.814,-6.21 6.314,-4.72 119.105,-118.06 29.748,-30.92 32.49,-33.69 49.13,-50.16 8.75,-7.79 25.05,-24.59 -1.42,-3.26 -0.48,-2.32 -1.26,-3.09 -3.09,-1.26 -2.32,-0.48 -3.26,-1.42 -24.59,25.05 -7.79,8.75 -50.16,49.13 -33.69,32.49 -30.92,29.75 -118.059,119.1 -4.717,6.32 -6.217,4.81 -2.796,4.56 -3.037,4.32 -17.135,15.95 -5.927,6.95 -17.108,15.98 -6.227,4.8 -29.746,30.93 -37.438,36.1 -59.477,58.18 -12.191,13.55 -156.784,155.76 -0.839,2.84 0.074,1.91 0.848,2.69 z m 53.048,-0.13 2.728,0.89 1.951,0.11 3.64,-1.87 32.865,-31.48 180.505,-181.68 29.661,-31.01 95.367,-93.99 133.571,-134.85 89.48,-90.7 17.02,-16.06 -1.4,-3.24 -0.47,-2.31 -1.24,-3.08 -3.07,-1.24 -2.31,-0.47 -3.24,-1.4 -16.07,17.03 -90.69,89.48 -134.851,133.57 -93.995,95.36 -31.009,29.66 -181.675,180.51 -31.482,32.86 -1.875,3.64 0.113,1.96 0.888,2.72 z m 53.32,0.15 2.674,0.83 1.987,0.15 3.681,-1.83 34.691,-33.34 66.43,-67.78 173.115,-174.35 33.657,-32.53 37.643,-37.74 39.18,-39.87 27.88,-29.12 6.24,-4.78 26.27,-27.05 17.19,-15.9 9.83,-10.39 16.9,-18.03 44.15,-44.1 -1.36,-3.21 -0.46,-2.29 -1.21,-3.04 -3.04,-1.21 -2.29,-0.46 -3.21,-1.36 -44.1,44.15 -18.03,16.9 -10.39,9.83 -15.9,17.19 -27.05,26.27 -4.79,6.24 -29.113,27.88 -39.871,39.18 -37.735,37.64 -32.528,33.66 -174.357,173.11 -67.78,66.43 -33.332,34.7 -1.834,3.68 0.148,1.98 0.836,2.68 z m 53.073,-0.11 2.681,0.85 1.865,0.02 3.748,-1.76 13.54,-12.2 189.608,-190.96 118.92,-120.08 9.703,-10.52 2.88,-4.48 11.25,-10.81 2.7,-0.98 17.07,-16.01 15.25,-16.01 1.8,-3.72 4.53,-2.82 37.45,-36.09 2.92,-4.44 62.45,-62.56 -1.35,-3.19 -0.44,-2.27 -1.19,-3.03 -3.02,-1.19 -2.28,-0.44 -3.18,-1.34 -62.57,62.45 -4.44,2.91 -36.08,37.45 -2.83,4.54 -3.71,1.8 -16.01,15.24 -16.02,17.08 -0.98,2.7 -10.81,11.25 -4.475,2.87 -10.52,9.71 -120.082,118.92 -190.957,189.6 -12.198,13.54 -1.767,3.75 0.026,1.87 0.843,2.68 z m 53.107,-0.06 2.567,0.73 1.981,0.14 3.547,-1.97 9.95,-8.44 281.903,-282.5 24.58,-25.07 0.71,-2.96 7.02,-5.85 18.9,-17.87 30.04,-30.63 42.82,-43.59 13.51,-14.07 24.42,-23.38 2.27,-1.4 -1.63,-3.47 -0.61,-2.45 -1.45,-3.29 -3.29,-1.45 -2.45,-0.61 -3.47,-1.63 -1.41,2.27 -23.37,24.42 -14.07,13.51 -43.59,42.82 -30.63,30.04 -17.87,18.9 -5.85,7.02 -2.96,0.71 -25.07,24.58 -282.506,281.9 -8.435,9.95 -1.969,3.55 0.143,1.98 0.729,2.57 z m 53.425,0.25 2.68,0.84 1.986,0.15 2.748,-0.93 32.875,-31.47 33.658,-34.37 132.008,-132.73 28.128,-28.87 8.07,-6.63 4.14,-5.05 85.81,-87.01 18.12,-16.81 2.81,-4.55 14.18,-15.23 14.5,-13.08 36.83,-36.71 -6,-6 -0.14,-0.14 -5.99,-6 -36.72,36.83 -13.07,14.5 -15.24,14.18 -4.54,2.81 -16.82,18.12 -87,85.81 -5.06,4.14 -6.627,8.08 -28.868,28.12 -132.733,132.01 -34.365,33.66 -31.472,32.87 -0.929,2.75 0.147,1.99 0.842,2.68 z m 53.102,-0.07 2.617,0.77 1.953,0.12 2.796,-0.88 15.404,-14.01 180.521,-181.66 38.05,-39.17 9.92,-8.46 14.92,-16.33 73.97,-74.95 25.88,-25.6 -5.81,-5.81 -0.14,-0.14 -5.81,-5.81 -25.6,25.87 -74.95,73.97 -16.33,14.92 -8.46,9.93 -39.17,38.04 -181.659,180.53 -14.011,15.4 -0.881,2.8 0.114,1.95 0.779,2.62 z m 53.16,-0.02 2.681,0.84 1.938,0.1 2.724,-0.95 15.425,-13.99 141.913,-143.06 47.21,-48.38 58.3,-59.37 42.33,-42.24 -5.6,-5.6 -0.14,-0.14 -5.6,-5.6 -42.24,42.33 -59.37,58.3 -48.38,47.22 -143.058,141.9 -13.99,15.43 -0.953,2.72 0.099,1.94 0.843,2.68 z m 53.112,-0.06 2.498,0.66 2.002,0.16 5.389,-3.8 3.616,-1.9 118.844,-120.16 56.37,-57.62 28,-28.99 12.3,-11.6 30.22,-30.45 -5.57,-5.57 -0.14,-0.14 -5.58,-5.57 -30.45,30.21 -11.6,12.31 -28.99,28 -57.61,56.37 -120.162,118.84 -1.9,3.62 -3.803,5.39 0.163,2 0.66,2.5 z m 53.29,0.11 2.665,0.83 1.971,0.13 2.867,-0.81 153.866,-155 45.15,-44.93 -6.28,-6.28 -0.14,-0.15 -6.29,-6.28 -44.93,45.15 -155.002,153.87 -0.81,2.86 0.132,1.97 0.826,2.67 z m 53.189,0.01 2.67,0.84 1.98,0.14 2.83,-0.85 111.66,-112.63 25.38,-24.26 -1.8,-3.64 -0.72,-2.55 -1.6,-3.44 -3.44,-1.61 -2.55,-0.71 -3.65,-1.81 -24.25,25.39 -112.64,111.65 -0.85,2.83 0.15,1.99 0.83,2.67 z"
         fill-rule="evenodd"
         fill="#000000"
         id="path2" />
    </g>
  </g>
  <g
     transform="matrix(25.400000,0.000000,0.000000,25.400000,-0.000000,0.000000)"
     inkscape:groupmode="layer"
     inkscape:label="% Preview"
     id="g5">
    <g
       inkscape:groupmode="layer"
       inkscape:label="Pen-up movement"
       id="g3">
      <path
         style="stroke-width:0.008268;fill:none;stroke-linejoin:round;stroke-linecap:round;stroke:LightPink"
         d="M8.268 0.000  8.247 0.001  8.205 0.002  8.142 0.004  8.059 0.006  7.954 0.010  7.828 0.013  7.682 0.018  4.718 0.108  3.261 0.152  3.114 0.156  2.988 0.160  2.884 0.163  2.800 0.166  2.737 0.168  2.696 0.169  2.675 0.170 M2.675 0.170  2.693 0.179  2.731 0.198  2.786 0.227  2.861 0.265  2.954 0.312  3.066 0.370  3.197 0.436  4.183 0.939  4.313 1.005  4.425 1.062  4.518 1.110  4.593 1.148  4.649 1.177  4.686 1.196  4.705 1.205 M4.705 1.205  4.691 1.228  4.665 1.273  4.625 1.342  4.571 1.433  4.504 1.547  4.451 1.638  4.411 1.707  4.384 1.752  4.371 1.775 M4.371 1.775  4.388 1.757  4.424 1.722  4.477 1.669  4.548 1.597  4.637 1.509  4.708 1.438  4.761 1.384  4.797 1.349  4.815 1.331 M4.815 1.331  4.801 1.351  4.775 1.390  4.736 1.449  4.683 1.528  4.618 1.626  4.539 1.744  4.473 1.843  4.421 1.922  4.381 1.981  4.355 2.020  4.342 2.040 M4.342 2.040  4.358 2.024  4.389 1.993  4.436 1.946  4.498 1.883  4.577 1.805  4.670 1.711  4.780 1.602  4.874 1.508  4.952 1.430  5.015 1.367  5.061 1.320  5.093 1.289  5.108 1.273 M5.108 1.273  5.095 1.290  5.070 1.323  5.031 1.372  4.980 1.438  4.915 1.521  4.838 1.620  4.748 1.736  4.637 1.878  4.547 1.994  4.470 2.093  4.406 2.176  4.354 2.242  4.315 2.291  4.290 2.324  4.277 2.341 M4.277 2.341  4.292 2.326  4.321 2.297  4.366 2.252  4.425 2.193  4.499 2.119  4.588 2.030  4.691 1.926  4.845 1.773  4.949 1.669  5.037 1.580  5.111 1.506  5.171 1.447  5.215 1.403  5.245 1.373  5.259 1.358 M5.259 1.358  5.246 1.375  5.220 1.407  5.181 1.456  5.128 1.521  5.063 1.603  4.984 1.701  4.892 1.815  4.657 2.108  4.565 2.222  4.486 2.320  4.420 2.401  4.368 2.466  4.328 2.516  4.302 2.548  4.289 2.564 M4.289 2.564  4.303 2.550  4.330 2.523  4.371 2.482  4.426 2.427  4.495 2.359  4.577 2.277  4.645 2.208  4.700 2.153  4.741 2.112  4.768 2.085  4.782 2.071 M4.782 2.071  4.799 2.055  4.831 2.022  4.881 1.973  4.946 1.907  5.029 1.825  5.127 1.726  5.209 1.644  5.275 1.578  5.324 1.529  5.357 1.496  5.374 1.480 M5.374 1.480  5.360 1.496  5.334 1.529  5.294 1.577  5.241 1.642  5.174 1.723  5.095 1.820  5.002 1.933  4.669 2.339  4.576 2.452  4.496 2.549  4.430 2.630  4.377 2.695  4.337 2.743  4.311 2.776  4.297 2.792 M4.297 2.792  4.313 2.776  4.344 2.745  4.390 2.699  4.452 2.637  4.529 2.560  4.622 2.467  4.731 2.359  4.823 2.266  4.901 2.188  4.963 2.126  5.009 2.080  5.040 2.049  5.055 2.034 M5.055 2.034  5.070 2.019  5.099 1.990  5.142 1.947  5.201 1.889  5.273 1.816  5.331 1.758  5.375 1.714  5.404 1.685  5.418 1.671 M5.418 1.671  5.405 1.687  5.378 1.719  5.339 1.768  5.285 1.832  5.219 1.913  5.139 2.010  5.046 2.124  4.694 2.550  4.601 2.664  4.521 2.761  4.455 2.842  4.401 2.906  4.362 2.955  4.335 2.987  4.322 3.003 M4.322 3.003  4.336 2.988  4.366 2.959  4.410 2.914  4.470 2.855  4.544 2.781  4.632 2.692  4.736 2.589  4.890 2.435  4.993 2.331  5.082 2.243  5.156 2.169  5.215 2.109  5.260 2.065  5.289 2.035  5.304 2.021 M5.304 2.021  5.319 2.006  5.348 1.976  5.393 1.932  5.452 1.873  5.496 1.829  5.526 1.799  5.540 1.784 M5.540 1.784  5.527 1.801  5.500 1.833  5.460 1.881  5.406 1.945  5.340 2.026  5.259 2.123  5.166 2.235  4.753 2.731  4.660 2.844  4.579 2.940  4.513 3.021  4.459 3.085  4.419 3.133  4.392 3.166  4.379 3.182 M4.379 3.182  4.392 3.168  4.420 3.141  4.460 3.100  4.515 3.046  4.582 2.978  4.664 2.896  4.732 2.828  4.786 2.774  4.827 2.734  4.854 2.706  4.868 2.693 M4.868 2.693  4.887 2.674  4.904 2.656  4.920 2.641  4.934 2.627  4.946 2.615  4.956 2.604  4.965 2.596  4.972 2.589  4.977 2.584  4.980 2.580  4.982 2.578 M4.982 2.578  4.999 2.561  5.034 2.527  5.086 2.475  5.155 2.406  5.241 2.319  5.311 2.250  5.362 2.198  5.397 2.164  5.414 2.146 M5.414 2.146  5.401 2.163  5.375 2.195  5.335 2.244  5.282 2.309  5.217 2.390  5.137 2.488  5.045 2.602  4.772 2.938  4.680 3.052  4.601 3.150  4.535 3.231  4.482 3.296  4.443 3.345  4.417 3.377  4.403 3.393 M4.403 3.393  4.420 3.377  4.453 3.344  4.502 3.295  4.567 3.229  4.650 3.147  4.748 3.049  4.830 2.967  4.896 2.901  4.945 2.852  4.978 2.819  4.994 2.802 M4.994 2.802  5.011 2.785  5.027 2.770  5.040 2.756  5.052 2.744  5.063 2.734  5.071 2.726  5.078 2.719  5.083 2.714  5.086 2.710  5.088 2.709 M5.088 2.709  5.107 2.690  5.145 2.652  5.202 2.595  5.277 2.519  5.372 2.425  5.448 2.349  5.504 2.293  5.542 2.255  5.561 2.236 M5.561 2.236  5.547 2.252  5.520 2.284  5.480 2.332  5.426 2.396  5.359 2.476  5.278 2.572  5.184 2.684  4.683 3.279  4.589 3.391  4.508 3.487  4.440 3.567  4.386 3.631  4.346 3.679  4.319 3.711  4.305 3.727 M4.305 3.727  4.320 3.712  4.350 3.683  4.394 3.638  4.453 3.579  4.527 3.505  4.616 3.416  4.720 3.313  4.951 3.081  5.055 2.978  5.143 2.889  5.217 2.815  5.277 2.756  5.321 2.711  5.351 2.682  5.365 2.667 M5.365 2.667  5.352 2.683  5.324 2.714  5.282 2.761  5.227 2.824  5.158 2.903  5.075 2.997  4.978 3.107  4.028 4.187  3.931 4.297  3.848 4.391  3.779 4.470  3.724 4.533  3.682 4.580  3.655 4.612  3.641 4.627 M3.641 4.627  3.635 4.659  3.623 4.724  3.605 4.820  3.594 4.884  3.588 4.916 M3.588 4.916  3.603 4.901  3.632 4.872  3.677 4.827  3.736 4.768  3.810 4.694  3.899 4.605  4.002 4.502  4.502 4.001  4.606 3.898  4.695 3.809  4.769 3.735  4.828 3.676  4.873 3.631  4.902 3.602  4.917 3.587 M4.917 3.587  4.903 3.603  4.875 3.634  4.833 3.681  4.777 3.743  4.707 3.821  4.624 3.914  4.526 4.024  3.282 5.412  3.184 5.522  3.100 5.615  3.031 5.693  2.974 5.755  2.933 5.802  2.905 5.833  2.891 5.849 M2.891 5.849  2.906 5.834  2.935 5.805  2.980 5.760  3.039 5.701  3.113 5.627  3.202 5.538  3.305 5.435  4.894 3.846  4.997 3.742  5.086 3.654  5.160 3.580  5.219 3.520  5.264 3.476  5.293 3.446  5.308 3.432 M5.308 3.432  5.294 3.447  5.266 3.478  5.223 3.524  5.167 3.586  5.096 3.663  5.011 3.756  4.912 3.864  3.184 5.754  3.085 5.862  3.000 5.955  2.930 6.032  2.874 6.094  2.831 6.141  2.803 6.171  2.789 6.187 M2.789 6.187  2.803 6.172  2.833 6.142  2.877 6.098  2.937 6.039  3.011 5.965  3.099 5.876  3.203 5.772  5.106 3.870  5.209 3.766  5.298 3.677  5.372 3.604  5.431 3.544  5.476 3.500  5.505 3.470  5.520 3.455 M5.520 3.455  5.506 3.471  5.477 3.501  5.435 3.548  5.378 3.609  5.307 3.687  5.222 3.779  5.123 3.887  3.166 6.012  3.066 6.120  2.981 6.212  2.910 6.289  2.854 6.351  2.811 6.397  2.783 6.428  2.768 6.443 M2.768 6.443  2.783 6.428  2.813 6.399  2.857 6.354  2.917 6.295  2.990 6.221  3.079 6.132  3.183 6.029  5.280 3.932  5.342 3.869  5.446 3.766  5.535 3.677  5.609 3.603  5.668 3.544  5.712 3.499  5.742 3.470  5.757 3.455 M5.757 3.455  5.742 3.470  5.714 3.501  5.671 3.547  5.614 3.609  5.543 3.685  5.458 3.777  5.358 3.885  3.343 6.060  3.179 6.237  3.079 6.344  2.994 6.436  2.923 6.513  2.866 6.574  2.823 6.621  2.795 6.651  2.781 6.667 M2.781 6.667  2.796 6.652  2.825 6.622  2.870 6.578  2.929 6.518  3.003 6.445  3.092 6.356  3.195 6.252  5.292 4.156  5.460 3.987  5.564 3.883  5.653 3.795  5.727 3.721  5.786 3.661  5.830 3.617  5.860 3.587  5.875 3.573 M5.875 3.573  5.860 3.588  5.832 3.619  5.789 3.665  5.733 3.726  5.662 3.803  5.577 3.895  5.477 4.003  3.466 6.182  3.173 6.499  3.074 6.607  2.988 6.699  2.917 6.776  2.861 6.838  2.818 6.884  2.790 6.915  2.775 6.930 M2.775 6.930  2.790 6.915  2.819 6.885  2.864 6.841  2.923 6.781  2.997 6.707  3.085 6.618  3.188 6.514  5.277 4.410  5.421 4.265  5.525 4.161  5.613 4.072  5.687 3.998  5.746 3.938  5.790 3.893  5.819 3.864  5.834 3.849 M5.834 3.849  5.820 3.864  5.792 3.895  5.749 3.941  5.692 4.003  5.621 4.080  5.536 4.172  5.437 4.280  3.427 6.460  3.173 6.735  3.074 6.843  2.989 6.935  2.918 7.013  2.861 7.074  2.819 7.120  2.790 7.151  2.776 7.166 M2.776 7.166  2.791 7.152  2.820 7.122  2.865 7.077  2.924 7.018  2.997 6.944  3.086 6.854  3.189 6.750  5.278 4.646  5.413 4.509  5.516 4.405  5.605 4.316  5.678 4.242  5.737 4.182  5.782 4.138  5.811 4.108  5.826 4.093 M5.826 4.093  5.812 4.108  5.783 4.139  5.741 4.186  5.684 4.247  5.613 4.324  5.528 4.416  5.429 4.524  3.419 6.705  3.173 6.971  3.074 7.079  2.989 7.171  2.918 7.248  2.861 7.310  2.819 7.356  2.791 7.387  2.776 7.402 M2.776 7.402  2.777 7.425  2.778 7.471  2.779 7.541  2.780 7.587  2.781 7.610 M2.781 7.610  2.795 7.595  2.825 7.565  2.869 7.521  2.929 7.462  3.002 7.388  3.091 7.299  3.195 7.195  3.923 6.467  4.027 6.363  4.116 6.274  4.190 6.201  4.249 6.141  4.294 6.097  4.323 6.067  4.338 6.052 M4.338 6.052  4.324 6.068  4.297 6.100  4.256 6.148  4.202 6.211  4.133 6.291  4.051 6.386  3.956 6.497  3.285 7.279  3.189 7.390  3.108 7.485  3.039 7.564  2.985 7.628  2.944 7.676  2.917 7.707  2.903 7.723 M2.903 7.723  2.918 7.709  2.947 7.679  2.992 7.635  3.051 7.575  3.125 7.501  3.214 7.413  3.317 7.309  4.087 6.540  4.190 6.436  4.279 6.347  4.353 6.274  4.412 6.214  4.457 6.170  4.486 6.140  4.501 6.125 M4.501 6.125  4.516 6.111  4.545 6.081  4.590 6.037  4.649 5.977  4.723 5.904  4.812 5.815  4.915 5.711  6.137 4.489  6.241 4.386  6.330 4.297  6.404 4.223  6.463 4.164  6.507 4.119  6.537 4.090  6.552 4.075 M6.552 4.075  6.537 4.090  6.509 4.121  6.466 4.166  6.408 4.227  6.337 4.304  6.251 4.395  6.150 4.502  4.121 6.664  3.397 7.435  3.296 7.542  3.210 7.634  3.139 7.710  3.081 7.771  3.038 7.817  3.010 7.847  2.995 7.862 M2.995 7.862  3.010 7.848  3.040 7.818  3.084 7.774  3.143 7.714  3.217 7.641  3.306 7.552  3.410 7.448  4.248 6.609  4.352 6.506  4.441 6.417  4.515 6.343  4.574 6.284  4.618 6.239  4.648 6.210  4.663 6.195 M4.663 6.195  4.649 6.211  4.621 6.242  4.580 6.290  4.525 6.353  4.456 6.432  4.374 6.527  4.278 6.637  3.461 7.576  3.365 7.686  3.282 7.781  3.213 7.859  3.158 7.923  3.117 7.970  3.090 8.002  3.076 8.017 M3.076 8.017  3.092 8.002  3.105 7.988  3.117 7.976  3.128 7.966  3.136 7.957  3.143 7.950  3.148 7.945  3.152 7.942  3.154 7.940 M3.154 7.940  3.168 7.925  3.198 7.896  3.242 7.851  3.302 7.792  3.375 7.718  3.464 7.629  3.568 7.526  3.905 7.188  4.009 7.085  4.097 6.996  4.171 6.922  4.231 6.863  4.275 6.818  4.305 6.789  4.319 6.774 M4.319 6.774  4.338 6.755  4.375 6.718  4.431 6.663  4.505 6.588  4.598 6.495  4.673 6.421  4.728 6.365  4.766 6.328  4.784 6.309 M4.784 6.309  4.770 6.325  4.743 6.357  4.702 6.404  4.647 6.468  4.579 6.547  4.497 6.642  4.401 6.753  3.675 7.594  3.579 7.705  3.497 7.800  3.428 7.879  3.374 7.943  3.333 7.990  3.305 8.022  3.292 8.038 M3.292 8.038  3.306 8.023  3.336 7.993  3.380 7.949  3.440 7.890  3.514 7.816  3.602 7.727  3.706 7.623  4.500 6.830  4.603 6.726  4.692 6.637  4.766 6.563  4.825 6.504  4.870 6.460  4.899 6.430  4.914 6.415 M4.914 6.415  4.900 6.431  4.874 6.464  4.834 6.512  4.780 6.576  4.713 6.657  4.632 6.753  4.539 6.866  4.110 7.379  4.017 7.492  3.936 7.588  3.869 7.669  3.815 7.733  3.776 7.781  3.749 7.814  3.735 7.830 M3.735 7.830  3.750 7.815  3.780 7.785  3.824 7.741  3.883 7.682  3.957 7.608  4.046 7.519  4.150 7.415  4.739 6.826  4.843 6.722  4.932 6.633  5.006 6.559  5.065 6.500  5.109 6.455  5.139 6.426  5.154 6.411 M5.154 6.411  5.140 6.427  5.113 6.459  5.073 6.507  5.020 6.572  4.953 6.652  4.872 6.749  4.778 6.861  4.339 7.388  4.245 7.500  4.164 7.597  4.097 7.677  4.044 7.742  4.003 7.790  3.977 7.822  3.963 7.838 M3.963 7.838  3.978 7.823  4.007 7.794  4.052 7.749  4.111 7.690  4.185 7.616  4.274 7.527  4.377 7.424  4.894 6.907  4.998 6.804  5.086 6.715  5.160 6.641  5.219 6.582  5.264 6.537  5.294 6.508  5.308 6.493 M5.308 6.493  5.295 6.509  5.268 6.542  5.229 6.590  5.176 6.655  5.109 6.736  5.030 6.833  4.938 6.947  4.627 7.327  4.534 7.440  4.455 7.538  4.389 7.619  4.335 7.684  4.296 7.732  4.269 7.765  4.256 7.781 M4.256 7.781  4.274 7.789  4.310 7.806  4.364 7.830  4.400 7.846  4.418 7.854 M4.418 7.854  4.441 7.871  4.461 7.887  4.479 7.901  4.495 7.913  4.510 7.924  4.522 7.933  4.532 7.941  4.540 7.947  4.546 7.952  4.550 7.955  4.552 7.956 M4.552 7.956  4.571 7.963  4.609 7.978  4.666 8.000  4.704 8.014  4.723 8.021 M4.723 8.021  4.746 8.027  4.793 8.038  4.864 8.055  4.911 8.066  4.935 8.071 M4.935 8.071  4.961 8.071  5.013 8.071  5.092 8.071  5.144 8.071  5.170 8.071 M5.170 8.071  5.196 8.071  5.249 8.071  5.328 8.071  5.380 8.071  5.406 8.071 M5.406 8.071  5.433 8.071  5.485 8.071  5.563 8.071  5.616 8.071  5.642 8.071 M5.642 8.071  5.668 8.071  5.720 8.070  5.799 8.071  5.851 8.070  5.877 8.070 M5.877 8.070  5.904 8.071  5.956 8.071  6.035 8.071  6.088 8.071  6.114 8.072 M6.114 8.072  6.141 8.072  6.193 8.071  6.271 8.072  6.324 8.071  6.350 8.071 M6.350 8.071  6.376 8.071  6.429 8.071  6.507 8.071  6.560 8.071  6.586 8.071 M6.586 8.071  6.612 8.071  6.664 8.071  6.743 8.071  6.795 8.071  6.821 8.071 M6.821 8.071  6.847 8.071  6.900 8.071  6.979 8.071  7.031 8.071  7.058 8.071 M7.058 8.071  7.084 8.071  7.136 8.071  7.215 8.071  7.267 8.071  7.293 8.071 M7.293 8.071  7.296 8.051  7.301 8.009  7.308 7.947  7.318 7.864  7.331 7.760  7.346 7.635  7.363 7.489  7.719 4.546  8.074 1.602  8.198 0.582  8.215 0.437  8.230 0.312  8.243 0.208  8.253 0.125  8.260 0.062  8.265 0.021  8.268 0.000"
         desc="pen-up transit"
         id="path3" />
    </g>
    <g
       inkscape:groupmode="layer"
       inkscape:label="Pen-down movement"
       id="g4">
      <path
         style="stroke-width:0.008268;fill:none;stroke-linejoin:round;stroke-linecap:round;stroke:Blue"
         d="M2.675 0.170  2.691 0.170  2.723 0.170  2.773 0.170  3.761 0.170  4.749 0.170  5.738 0.170  6.726 0.170  7.715 0.170  7.937 0.170  7.980 0.170  8.012 0.170  8.032 0.170  8.032 0.190  8.032 0.222  8.032 0.265  8.032 1.253  8.032 2.242  8.032 3.230  8.032 4.219  8.032 5.207  8.032 6.196  8.032 7.184  8.032 8.057  8.032 8.100  8.032 8.132  8.032 8.152  8.012 8.152  7.980 8.152  7.936 8.152  6.948 8.152  5.960 8.152  4.971 8.152  3.983 8.152  2.994 8.152  2.770 8.152  2.727 8.152  2.695 8.152  2.674 8.152  2.674 8.132  2.674 8.100  2.674 8.057  2.674 7.069  2.675 6.080  2.674 5.092  2.675 4.103  2.675 3.115  2.675 2.126  2.675 1.138  2.675 0.268  2.675 0.219  2.675 0.186  2.675 0.170 M4.705 1.205  4.719 1.212  4.729 1.213  4.743 1.210  4.769 1.185  4.792 1.162  4.812 1.142  4.828 1.126  4.841 1.113  4.837 1.100  4.835 1.091  4.831 1.079  4.819 1.075  4.810 1.073  4.797 1.069  4.776 1.089  4.757 1.109  4.737 1.129  4.718 1.148  4.700 1.167  4.697 1.181  4.698 1.190  4.705 1.205 M4.371 1.775  4.384 1.781  4.393 1.782  4.429 1.749  4.470 1.712  4.514 1.674  4.565 1.628  4.586 1.615  4.621 1.577  4.656 1.539  4.677 1.511  4.698 1.483  4.727 1.447  4.764 1.409  4.795 1.376  4.815 1.356  4.819 1.352  4.811 1.335  4.794 1.327  4.790 1.330  4.769 1.351  4.735 1.383  4.699 1.419  4.663 1.448  4.635 1.469  4.607 1.490  4.569 1.525  4.531 1.560  4.518 1.580  4.472 1.632  4.434 1.676  4.405 1.708  4.381 1.733  4.364 1.752  4.365 1.762  4.371 1.775 M4.815 1.331  4.831 1.339  4.875 1.301  4.895 1.289  4.943 1.244  4.992 1.198  5.178 1.018  5.208 0.990  5.230 0.968  5.245 0.954  5.238 0.939  5.236 0.929  5.231 0.915  5.217 0.909  5.206 0.907  5.192 0.901  5.163 0.931  5.128 0.968  4.948 1.154  4.902 1.203  4.857 1.251  4.844 1.270  4.822 1.297  4.807 1.315  4.812 1.326  4.815 1.331 M4.342 2.040  4.355 2.045  4.369 2.043  4.381 2.038  4.417 2.009  4.485 1.946  4.524 1.909  4.563 1.872  4.602 1.834  4.627 1.803  4.635 1.787  4.652 1.763  4.681 1.730  4.703 1.706  4.717 1.689  4.709 1.673  4.692 1.664  4.659 1.694  4.619 1.730  4.595 1.747  4.578 1.754  4.547 1.780  4.510 1.819  4.473 1.858  4.436 1.897  4.373 1.964  4.343 2.000  4.339 2.012  4.337 2.026  4.342 2.040 M5.108 1.273  5.125 1.281  5.144 1.268  5.160 1.260  5.208 1.218  5.416 1.019  5.445 0.991  5.468 0.969  5.483 0.955  5.476 0.939  5.473 0.929  5.467 0.914  5.453 0.908  5.442 0.906  5.427 0.899  5.412 0.914  5.391 0.936  5.362 0.966  5.163 1.173  5.122 1.221  5.113 1.237  5.101 1.257  5.106 1.268  5.108 1.273 M4.277 2.341  4.292 2.348  4.303 2.351  4.312 2.351  4.341 2.320  4.375 2.284  4.433 2.228  4.450 2.220  4.635 2.030  4.681 1.979  4.706 1.947  4.727 1.919  4.742 1.901  4.734 1.884  4.717 1.876  4.699 1.890  4.671 1.911  4.639 1.937  4.587 1.983  4.397 2.168  4.389 2.184  4.333 2.242  4.294 2.280  4.266 2.306  4.267 2.315  4.269 2.325  4.277 2.341 M5.259 1.358  5.274 1.365  5.327 1.320  5.355 1.298  5.370 1.290  5.394 1.273  5.441 1.228  5.488 1.183  5.536 1.138  5.616 1.056  5.645 1.027  5.667 1.005  5.682 0.990  5.675 0.975  5.673 0.965  5.667 0.951  5.653 0.945  5.642 0.942  5.627 0.936  5.612 0.951  5.590 0.972  5.562 1.001  5.480 1.082  5.435 1.129  5.390 1.176  5.344 1.223  5.328 1.248  5.319 1.263  5.298 1.291  5.270 1.322  5.252 1.343  5.257 1.353  5.259 1.358 M4.289 2.564  4.305 2.572  4.315 2.574  4.328 2.571  4.363 2.541  4.599 2.311  4.625 2.281  4.630 2.269  4.634 2.257  4.643 2.242  4.660 2.218  4.652 2.202  4.636 2.193  4.612 2.210  4.596 2.219  4.584 2.223  4.572 2.228  4.542 2.254  4.312 2.490  4.282 2.525  4.280 2.539  4.281 2.548  4.289 2.564 M4.782 2.071  4.796 2.077  4.813 2.069  4.826 2.066  4.841 2.057  4.877 2.027  4.890 2.008  4.895 1.996  4.919 1.969  4.941 1.945  4.953 1.924  4.945 1.908  4.929 1.900  4.909 1.912  4.857 1.959  4.845 1.963  4.826 1.976  4.797 2.012  4.788 2.027  4.785 2.041  4.776 2.057  4.782 2.071 M5.374 1.480  5.390 1.488  5.441 1.442  5.497 1.399  5.536 1.365  5.596 1.311  5.641 1.269  5.685 1.226  5.730 1.184  5.763 1.151  5.791 1.124  5.813 1.101  5.832 1.083  5.844 1.070  5.836 1.054  5.833 1.043  5.826 1.027  5.811 1.020  5.799 1.017  5.783 1.009  5.759 1.033  5.732 1.060  5.702 1.090  5.669 1.124  5.627 1.168  5.585 1.213  5.542 1.257  5.488 1.317  5.454 1.357  5.411 1.412  5.384 1.443  5.365 1.464  5.371 1.475  5.374 1.480 M4.297 2.792  4.313 2.800  4.323 2.801  4.336 2.798  4.369 2.768  4.404 2.735  4.442 2.696  4.480 2.657  4.520 2.623  4.664 2.474  4.673 2.458  4.685 2.438  4.713 2.400  4.705 2.384  4.689 2.376  4.651 2.404  4.631 2.416  4.615 2.425  4.466 2.569  4.432 2.609  4.393 2.647  4.354 2.685  4.320 2.722  4.291 2.753  4.288 2.766  4.289 2.776  4.297 2.792 M5.055 2.034  5.071 2.041  5.127 1.999  5.227 1.895  5.266 1.854  5.291 1.821  5.284 1.805  5.268 1.798  5.235 1.822  5.194 1.862  5.090 1.962  5.065 1.995  5.048 2.018  5.053 2.028  5.055 2.034 M5.418 1.671  5.434 1.679  5.486 1.632  5.530 1.595  5.580 1.551  5.630 1.507  5.690 1.454  5.864 1.286  5.894 1.256  5.920 1.231  5.943 1.208  5.961 1.190  5.976 1.175  5.988 1.164  5.979 1.148  5.976 1.136  5.969 1.121  5.953 1.113  5.941 1.110  5.925 1.101  5.914 1.112  5.900 1.127  5.881 1.146  5.859 1.168  5.833 1.195  5.803 1.225  5.635 1.399  5.581 1.459  5.538 1.509  5.494 1.559  5.457 1.603  5.429 1.634  5.410 1.655  5.416 1.666  5.418 1.671 M4.322 3.003  4.337 3.010  4.347 3.012  4.361 3.010  4.413 2.964  4.562 2.820  4.713 2.661  4.721 2.644  4.738 2.621  4.779 2.577  4.813 2.540  4.824 2.527  4.827 2.522  4.819 2.506  4.802 2.498  4.798 2.501  4.785 2.513  4.746 2.548  4.704 2.587  4.681 2.604  4.664 2.612  4.505 2.763  4.361 2.912  4.315 2.964  4.313 2.978  4.315 2.988  4.322 3.003 M5.304 2.021  5.318 2.027  5.329 2.021  5.343 2.019  5.363 2.007  5.376 1.987  5.384 1.970  5.406 1.952  5.423 1.944  5.457 1.905  5.482 1.873  5.511 1.841  5.533 1.817  5.549 1.801  5.540 1.784  5.524 1.776  5.491 1.807  5.453 1.843  5.421 1.868  5.381 1.902  5.373 1.919  5.355 1.941  5.338 1.949  5.318 1.961  5.306 1.982  5.304 1.996  5.298 2.007  5.304 2.021 M5.540 1.784  5.557 1.793  5.585 1.768  5.617 1.738  5.656 1.705  5.696 1.671  5.724 1.650  5.780 1.600  6.007 1.379  6.038 1.347  6.063 1.322  6.083 1.302  6.096 1.288  6.089 1.273  6.086 1.261  6.078 1.246  6.063 1.239  6.052 1.236  6.036 1.228  6.010 1.254  5.980 1.284  5.946 1.318  5.725 1.545  5.675 1.600  5.654 1.628  5.620 1.669  5.587 1.708  5.554 1.744  5.532 1.768  5.538 1.779  5.540 1.784 M4.379 3.182  4.394 3.189  4.404 3.191  4.421 3.184  4.464 3.145  4.484 3.133  4.519 3.095  4.802 2.806  4.820 2.775  4.841 2.748  4.864 2.721  4.856 2.705  4.839 2.697  4.813 2.719  4.785 2.741  4.754 2.759  4.466 3.041  4.428 3.076  4.415 3.096  4.377 3.140  4.370 3.156  4.372 3.167  4.379 3.182 M4.868 2.693  4.884 2.701  4.912 2.679  4.927 2.671  4.945 2.648  4.954 2.632  4.956 2.626  4.949 2.611  4.934 2.605  4.929 2.607  4.913 2.615  4.890 2.633  4.881 2.649  4.860 2.677  4.865 2.687  4.868 2.693 M4.982 2.578  4.997 2.586  5.016 2.573  5.033 2.565  5.053 2.552  5.094 2.509  5.137 2.464  5.149 2.444  5.189 2.401  5.220 2.368  5.227 2.359  5.218 2.342  5.202 2.334  5.192 2.341  5.157 2.374  5.116 2.411  5.096 2.424  5.051 2.467  5.008 2.507  4.996 2.527  4.988 2.544  4.975 2.564  4.980 2.574  4.982 2.578 M5.414 2.146  5.428 2.152  5.440 2.148  5.476 2.119  5.512 2.086  5.548 2.052  5.568 2.039  5.799 1.814  5.859 1.760  6.124 1.496  6.153 1.467  6.175 1.445  6.190 1.430  6.182 1.414  6.179 1.403  6.172 1.388  6.157 1.381  6.146 1.379  6.131 1.371  6.116 1.386  6.094 1.408  6.065 1.437  5.801 1.701  5.747 1.762  5.521 1.993  5.508 2.012  5.475 2.049  5.442 2.085  5.413 2.121  5.408 2.133  5.414 2.146 M4.403 3.393  4.418 3.401  4.428 3.402  4.441 3.399  4.453 3.395  4.490 3.359  4.527 3.325  4.562 3.291  4.570 3.275  4.605 3.243  4.642 3.209  4.685 3.167  4.728 3.126  4.771 3.085  4.814 3.040  4.857 2.996  4.899 2.952  4.921 2.925  4.925 2.912  4.933 2.896  4.946 2.876  4.949 2.871  4.941 2.855  4.925 2.847  4.921 2.851  4.901 2.864  4.884 2.871  4.872 2.876  4.845 2.898  4.801 2.940  4.756 2.983  4.712 3.025  4.671 3.068  4.629 3.111  4.588 3.154  4.553 3.192  4.522 3.226  4.505 3.234  4.469 3.272  4.435 3.309  4.402 3.343  4.397 3.355  4.395 3.369  4.396 3.378  4.403 3.393 M4.994 2.802  5.010 2.809  5.030 2.797  5.053 2.780  5.083 2.744  5.100 2.721  5.105 2.717  5.109 2.688  5.080 2.692  5.076 2.696  5.052 2.714  5.017 2.743  5.000 2.767  4.987 2.787  4.992 2.797  4.994 2.802 M5.088 2.709  5.105 2.717  5.124 2.703  5.140 2.695  5.176 2.655  5.214 2.615  5.240 2.585  5.260 2.563  5.264 2.558  5.255 2.542  5.239 2.533  5.234 2.537  5.182 2.582  5.140 2.622  5.102 2.657  5.093 2.673  5.080 2.692  5.085 2.703  5.088 2.709 M5.561 2.236  5.578 2.244  5.590 2.232  5.606 2.217  5.626 2.198  5.650 2.174  5.678 2.147  5.711 2.116  5.770 2.070  5.810 2.036  5.858 1.995  6.134 1.725  6.169 1.689  6.200 1.657  6.227 1.629  6.251 1.605  6.269 1.590  6.261 1.574  6.257 1.562  6.250 1.547  6.234 1.539  6.223 1.536  6.206 1.528  6.192 1.546  6.155 1.582  6.115 1.621  6.072 1.662  5.802 1.938  5.760 1.986  5.727 2.027  5.680 2.086  5.650 2.118  5.623 2.146  5.600 2.170  5.580 2.190  5.564 2.207  5.553 2.219  5.558 2.230  5.561 2.236 M4.305 3.727  4.322 3.735  4.332 3.738  4.341 3.738  4.353 3.734  4.381 3.703  4.411 3.671  4.443 3.637  4.471 3.616  4.614 3.473  5.040 3.043  5.057 3.019  5.065 3.003  5.086 2.975  5.108 2.948  5.100 2.932  5.084 2.924  5.057 2.946  5.029 2.967  5.013 2.975  4.990 2.993  4.559 3.418  4.416 3.561  4.396 3.589  4.359 3.623  4.327 3.654  4.299 3.680  4.295 3.692  4.295 3.700  4.297 3.711  4.305 3.727 M5.365 2.667  5.381 2.675  5.412 2.646  5.447 2.613  5.486 2.576  5.526 2.539  5.567 2.502  5.606 2.465  5.645 2.428  5.684 2.391  5.723 2.356  5.762 2.322  5.800 2.287  5.848 2.241  5.896 2.196  5.910 2.176  5.945 2.147  6.250 1.841  6.279 1.812  6.301 1.790  6.316 1.775  6.308 1.760  6.305 1.748  6.299 1.734  6.284 1.727  6.273 1.724  6.257 1.717  6.243 1.731  6.220 1.753  6.191 1.782  5.886 2.087  5.856 2.122  5.837 2.136  5.791 2.184  5.746 2.232  5.711 2.271  5.676 2.310  5.641 2.348  5.604 2.387  5.568 2.426  5.531 2.466  5.493 2.506  5.456 2.546  5.422 2.582  5.394 2.612  5.373 2.635  5.357 2.651  5.363 2.662  5.365 2.667 M3.641 4.627  3.656 4.634  3.666 4.636  3.680 4.633  3.727 4.592  3.755 4.571  3.806 4.515  3.992 4.335  4.219 4.104  4.456 3.861  4.480 3.844  4.524 3.798  4.567 3.752  4.928 3.395  4.969 3.354  5.009 3.313  5.049 3.271  5.111 3.203  5.119 3.187  5.167 3.145  5.240 3.079  5.283 3.033  5.328 2.987  5.371 2.942  5.733 2.586  5.775 2.547  5.817 2.507  5.863 2.460  5.908 2.413  5.953 2.366  5.976 2.348  6.015 2.305  6.071 2.255  6.275 2.054  6.305 2.025  6.327 2.003  6.342 1.988  6.334 1.971  6.330 1.960  6.323 1.945  6.308 1.938  6.297 1.934  6.280 1.926  6.266 1.941  6.244 1.964  6.215 1.993  6.013 2.197  5.963 2.254  5.920 2.292  5.902 2.315  5.855 2.360  5.808 2.405  5.761 2.451  5.721 2.493  5.682 2.535  5.326 2.897  5.281 2.940  5.235 2.985  5.189 3.029  5.123 3.101  5.081 3.149  5.065 3.157  4.997 3.219  4.955 3.260  4.914 3.299  4.873 3.340  4.516 3.701  4.470 3.744  4.423 3.788  4.407 3.812  4.164 4.049  3.934 4.276  3.753 4.462  3.697 4.513  3.676 4.541  3.635 4.589  3.632 4.603  3.634 4.613  3.641 4.627 M3.588 4.916  3.603 4.923  3.614 4.926  3.626 4.922  3.679 4.876  4.257 4.305  4.417 4.139  4.446 4.103  4.492 4.051  4.527 4.013  4.562 3.975  4.594 3.950  4.629 3.913  4.663 3.877  4.697 3.841  4.730 3.804  4.755 3.777  4.762 3.766  4.754 3.750  4.737 3.742  4.727 3.749  4.697 3.776  4.663 3.807  4.627 3.841  4.591 3.875  4.554 3.910  4.529 3.942  4.491 3.977  4.453 4.012  4.401 4.058  4.365 4.087  4.199 4.248  3.627 4.825  3.582 4.877  3.578 4.890  3.580 4.901  3.588 4.916 M4.917 3.587  4.932 3.595  4.961 3.574  5.001 3.534  5.110 3.430  5.168 3.366  5.207 3.328  5.246 3.291  5.285 3.254  5.361 3.191  5.405 3.150  5.449 3.108  5.827 2.736  6.037 2.522  6.299 2.265  6.329 2.236  6.351 2.214  6.366 2.199  6.358 2.183  6.355 2.172  6.348 2.156  6.332 2.149  6.321 2.146  6.305 2.138  6.290 2.153  6.268 2.175  6.239 2.205  5.982 2.467  5.768 2.677  5.396 3.055  5.354 3.099  5.313 3.143  5.250 3.219  5.213 3.258  5.175 3.297  5.138 3.336  5.074 3.394  4.969 3.502  4.930 3.543  4.909 3.572  4.914 3.582  4.917 3.587 M2.891 5.849  2.906 5.856  2.917 5.859  2.925 5.859  2.941 5.851  2.972 5.820  3.237 5.559  3.266 5.524  3.689 5.106  3.866 4.925  4.308 4.478  4.476 4.307  4.514 4.268  4.518 4.256  4.526 4.240  4.530 4.235  4.521 4.218  4.505 4.210  4.500 4.214  4.484 4.222  4.472 4.226  4.433 4.264  4.262 4.432  3.815 4.874  3.634 5.051  3.216 5.473  3.181 5.503  2.920 5.767  2.889 5.798  2.881 5.815  2.881 5.823  2.884 5.834  2.891 5.849 M5.308 3.432  5.324 3.439  5.357 3.409  5.396 3.373  5.453 3.323  5.476 3.306  5.739 3.055  5.778 3.018  5.816 2.981  5.856 2.944  5.902 2.892  5.941 2.858  5.955 2.839  6.148 2.641  6.168 2.628  6.214 2.585  6.260 2.541  6.294 2.501  6.328 2.468  6.356 2.440  6.378 2.420  6.393 2.405  6.386 2.389  6.383 2.378  6.376 2.363  6.361 2.357  6.350 2.354  6.335 2.346  6.307 2.375  6.275 2.408  6.238 2.446  6.199 2.480  6.155 2.526  6.112 2.572  6.099 2.592  5.900 2.785  5.882 2.799  5.848 2.838  5.796 2.884  5.759 2.923  5.722 2.962  5.685 3.001  5.434 3.264  5.417 3.287  5.367 3.344  5.338 3.375  5.315 3.399  5.300 3.416  5.306 3.426  5.308 3.432 M2.789 6.187  2.805 6.195  2.815 6.197  2.824 6.197  2.844 6.185  2.880 6.149  3.360 5.666  3.909 5.122  3.938 5.086  3.991 5.040  4.201 4.827  4.390 4.632  4.591 4.426  4.612 4.398  4.655 4.352  4.665 4.337  4.667 4.331  4.660 4.315  4.645 4.309  4.639 4.311  4.624 4.320  4.577 4.363  4.549 4.384  4.344 4.586  4.149 4.775  3.935 4.985  3.890 5.037  3.854 5.067  3.310 5.616  2.827 6.095  2.791 6.132  2.778 6.152  2.778 6.160  2.781 6.171  2.789 6.187 M5.520 3.455  5.536 3.463  5.584 3.421  5.620 3.386  5.658 3.350  5.696 3.313  5.765 3.251  5.797 3.226  5.843 3.183  5.889 3.140  5.925 3.105  5.962 3.071  5.998 3.036  6.028 3.001  6.072 2.959  6.117 2.916  6.161 2.874  6.313 2.716  6.356 2.677  6.391 2.641  6.418 2.613  6.437 2.595  6.430 2.579  6.427 2.569  6.421 2.554  6.407 2.548  6.396 2.546  6.381 2.539  6.343 2.576  6.299 2.620  6.260 2.662  6.102 2.815  6.059 2.859  6.017 2.903  5.974 2.948  5.939 2.978  5.905 3.014  5.870 3.050  5.836 3.086  5.793 3.133  5.749 3.179  5.724 3.211  5.662 3.279  5.625 3.318  5.589 3.356  5.554 3.392  5.530 3.420  5.512 3.439  5.517 3.450  5.520 3.455 M2.768 6.443  2.784 6.451  2.795 6.453  2.808 6.450  2.832 6.434  3.282 5.978  3.431 5.834  3.477 5.786  3.523 5.738  4.224 5.042  4.411 4.857  4.447 4.819  4.482 4.781  4.518 4.744  4.674 4.582  4.780 4.475  4.828 4.426  4.831 4.413  4.838 4.395  4.831 4.380  4.816 4.373  4.798 4.380  4.786 4.384  4.737 4.432  4.629 4.537  4.467 4.693  4.430 4.729  4.392 4.765  4.355 4.801  3.658 5.502  3.473 5.688  3.425 5.734  3.377 5.780  3.233 5.929  2.778 6.379  2.761 6.403  2.758 6.417  2.761 6.427  2.768 6.443 M5.757 3.455  5.773 3.463  5.781 3.455  5.817 3.426  5.869 3.379  5.897 3.358  5.932 3.329  5.957 3.313  6.378 2.886  6.407 2.856  6.432 2.832  6.450 2.813  6.464 2.800  6.457 2.786  6.455 2.776  6.450 2.762  6.436 2.756  6.425 2.754  6.411 2.748  6.387 2.773  6.358 2.801  6.326 2.833  5.899 3.255  5.882 3.279  5.853 3.315  5.832 3.343  5.785 3.394  5.756 3.430  5.749 3.438  5.754 3.449  5.757 3.455 M2.781 6.667  2.797 6.674  2.807 6.677  2.821 6.674  2.857 6.645  3.360 6.137  3.508 5.983  3.575 5.911  3.615 5.874  3.651 5.841  3.663 5.837  3.710 5.793  3.760 5.746  3.789 5.710  3.833 5.665  3.877 5.619  3.921 5.573  3.986 5.515  4.380 5.119  4.700 4.795  4.750 4.742  4.799 4.690  4.845 4.643  4.891 4.597  4.936 4.550  4.967 4.516  4.995 4.487  5.019 4.461  5.025 4.443  5.019 4.429  5.004 4.422  4.986 4.428  4.943 4.468  4.898 4.511  4.851 4.557  4.804 4.602  4.757 4.648  4.705 4.697  4.653 4.747  4.328 5.067  3.932 5.461  3.874 5.526  3.828 5.570  3.783 5.614  3.737 5.658  3.701 5.687  3.668 5.723  3.638 5.755  3.610 5.784  3.606 5.796  3.572 5.833  3.536 5.873  3.464 5.939  3.310 6.087  2.802 6.590  2.773 6.626  2.770 6.640  2.773 6.651  2.781 6.667 M5.875 3.573  5.890 3.579  5.905 3.570  5.937 3.545  5.957 3.533  5.993 3.503  6.045 3.457  6.084 3.420  6.123 3.383  6.162 3.346  6.338 3.164  6.420 3.084  6.450 3.055  6.472 3.033  6.487 3.018  6.479 3.003  6.477 2.992  6.470 2.977  6.455 2.970  6.444 2.968  6.429 2.960  6.414 2.975  6.392 2.998  6.364 3.027  6.283 3.109  6.101 3.285  6.064 3.324  6.027 3.363  5.990 3.403  5.944 3.454  5.915 3.490  5.902 3.510  5.877 3.542  5.868 3.558  5.873 3.567  5.875 3.573 M2.775 6.930  2.785 6.932  2.799 6.929  2.819 6.916  2.850 6.886  2.883 6.855  2.917 6.822  2.952 6.789  3.328 6.406  3.370 6.363  3.412 6.319  3.450 6.276  3.468 6.252  3.485 6.229  3.511 6.206  3.522 6.201  3.539 6.193  3.585 6.141  3.610 6.109  3.644 6.070  3.708 6.011  3.752 5.966  3.766 5.964  3.794 5.937  3.825 5.907  3.857 5.877  3.891 5.844  4.314 5.427  4.357 5.383  4.399 5.338  4.441 5.294  4.858 4.871  4.916 4.806  4.988 4.740  5.010 4.713  5.054 4.667  5.098 4.622  5.142 4.576  5.173 4.543  5.199 4.515  5.221 4.491  5.224 4.487  5.226 4.481  5.219 4.465  5.202 4.457  5.196 4.459  5.192 4.462  5.152 4.500  5.107 4.541  5.062 4.585  5.016 4.629  4.970 4.673  4.943 4.695  4.876 4.767  4.813 4.825  4.389 5.242  4.345 5.284  4.300 5.327  4.256 5.369  3.839 5.792  3.803 5.829  3.771 5.862  3.743 5.892  3.719 5.917  3.717 5.931  3.672 5.975  3.613 6.039  3.574 6.073  3.542 6.098  3.490 6.144  3.482 6.160  3.477 6.172  3.454 6.198  3.430 6.215  3.407 6.233  3.364 6.271  3.320 6.313  3.276 6.355  2.894 6.731  2.861 6.766  2.828 6.800  2.797 6.832  2.767 6.864  2.754 6.884  2.751 6.898  2.753 6.908  2.768 6.922  2.775 6.930 M5.834 3.849  5.850 3.857  5.885 3.827  5.937 3.781  5.956 3.767  6.008 3.721  6.072 3.663  6.360 3.380  6.392 3.348  6.421 3.320  6.445 3.296  6.466 3.275  6.482 3.259  6.495 3.246  6.487 3.231  6.485 3.219  6.478 3.205  6.464 3.198  6.453 3.196  6.437 3.188  6.425 3.201  6.409 3.217  6.388 3.237  6.364 3.262  6.335 3.290  6.303 3.323  6.020 3.611  5.962 3.675  5.916 3.727  5.903 3.747  5.857 3.798  5.826 3.833  5.831 3.844  5.834 3.849 M2.776 7.166  2.787 7.169  2.796 7.170  2.813 7.162  2.855 7.120  3.088 6.891  3.344 6.633  3.508 6.463  3.549 6.419  3.591 6.375  3.604 6.355  3.652 6.314  3.828 6.132  3.852 6.114  3.996 5.972  4.186 5.788  4.478 5.501  4.528 5.445  5.023 4.945  5.223 4.738  5.240 4.714  5.260 4.702  5.298 4.658  5.349 4.611  5.391 4.565  5.427 4.526  5.441 4.507  5.443 4.501  5.447 4.496  5.438 4.480  5.422 4.472  5.418 4.476  5.412 4.478  5.393 4.492  5.352 4.530  5.308 4.570  5.261 4.621  5.217 4.658  5.204 4.678  5.181 4.695  4.974 4.896  4.474 5.391  4.418 5.441  4.131 5.733  3.946 5.923  3.805 6.067  3.787 6.090  3.605 6.267  3.563 6.315  3.544 6.328  3.500 6.369  3.455 6.411  3.286 6.575  3.027 6.830  2.798 7.064  2.757 7.107  2.749 7.123  2.750 7.132  2.752 7.143  2.768 7.158  2.776 7.166 M5.826 4.093  5.842 4.100  5.868 4.078  5.916 4.037  5.952 4.007  6.015 3.948  6.079 3.889  6.127 3.840  6.175 3.790  6.238 3.731  6.278 3.694  6.316 3.657  6.356 3.620  6.395 3.578  6.435 3.536  6.470 3.506  6.502 3.475  6.528 3.448  6.550 3.426  6.568 3.409  6.580 3.396  6.573 3.381  6.570 3.370  6.564 3.355  6.549 3.349  6.538 3.346  6.523 3.339  6.491 3.371  6.454 3.407  6.412 3.448  6.383 3.484  6.341 3.524  6.299 3.563  6.262 3.602  6.225 3.641  6.188 3.680  6.129 3.744  6.079 3.792  6.030 3.840  5.971 3.904  5.912 3.967  5.882 4.003  5.840 4.050  5.818 4.077  5.823 4.088  5.826 4.093 M2.776 7.402  2.786 7.405  2.794 7.404  2.806 7.400  2.826 7.387  3.548 6.660  3.700 6.508  3.754 6.448  3.793 6.410  3.831 6.374  3.866 6.340  3.888 6.313  3.892 6.301  3.916 6.284  3.948 6.258  3.973 6.227  4.017 6.184  4.061 6.141  4.106 6.098  4.138 6.073  4.834 5.372  5.060 5.145  5.295 4.906  5.565 4.630  5.598 4.591  5.649 4.543  5.689 4.510  5.739 4.458  5.788 4.406  5.797 4.390  5.849 4.341  5.902 4.291  6.088 4.109  6.136 4.068  6.173 4.032  6.211 3.997  6.249 3.961  6.313 3.903  6.347 3.863  6.595 3.615  6.624 3.586  6.646 3.564  6.661 3.549  6.654 3.534  6.652 3.524  6.645 3.509  6.631 3.503  6.620 3.501  6.605 3.494  6.591 3.509  6.568 3.531  6.539 3.560  6.292 3.808  6.252 3.842  6.194 3.906  6.158 3.944  6.123 3.981  6.087 4.019  6.045 4.067  5.864 4.253  5.830 4.289  5.797 4.324  5.765 4.358  5.749 4.366  5.697 4.416  5.645 4.466  5.611 4.505  5.564 4.556  5.524 4.590  5.010 5.094  4.309 5.791  4.082 6.017  4.057 6.049  4.014 6.093  3.971 6.137  3.928 6.181  3.896 6.207  3.871 6.238  3.854 6.262  3.842 6.266  3.815 6.288  3.780 6.325  3.744 6.362  3.707 6.401  3.647 6.455  2.934 7.163  2.768 7.329  2.755 7.349  2.751 7.360  2.750 7.368  2.752 7.378  2.768 7.394  2.776 7.402 M2.781 7.610  2.785 7.606  2.802 7.615  2.813 7.618  2.822 7.619  2.835 7.615  2.865 7.584  2.897 7.550  2.931 7.515  2.967 7.478  3.170 7.281  3.215 7.233  3.261 7.185  3.651 6.801  3.688 6.761  3.726 6.721  3.903 6.539  3.951 6.489  3.999 6.439  4.058 6.376  4.116 6.312  4.125 6.296  4.146 6.268  4.138 6.252  4.122 6.245  4.094 6.266  4.078 6.274  4.015 6.333  3.951 6.392  3.902 6.439  3.852 6.487  3.670 6.664  3.630 6.702  3.590 6.739  3.206 7.130  3.157 7.175  3.109 7.221  2.912 7.423  2.872 7.462  2.836 7.497  2.804 7.528  2.775 7.556  2.771 7.568  2.772 7.577  2.776 7.589  2.784 7.605  2.781 7.610 M4.338 6.052  4.354 6.061  4.369 6.051  4.376 6.049  4.384 6.049  4.400 6.042  4.452 5.996  4.898 5.545  5.467 4.980  5.534 4.909  6.151 4.286  6.195 4.240  6.199 4.229  6.224 4.197  6.234 4.182  6.250 4.166  6.273 4.147  6.293 4.135  6.330 4.096  6.367 4.057  6.404 4.018  6.439 3.996  6.467 3.974  6.489 3.948  6.501 3.927  6.533 3.902  6.597 3.844  6.635 3.808  6.673 3.773  6.709 3.737  6.736 3.710  6.755 3.692  6.748 3.677  6.745 3.666  6.739 3.651  6.724 3.645  6.714 3.642  6.698 3.635  6.661 3.673  6.618 3.718  6.582 3.755  6.547 3.794  6.488 3.857  6.463 3.889  6.443 3.902  6.417 3.924  6.395 3.952  6.373 3.986  6.333 4.023  6.295 4.061  6.256 4.098  6.243 4.118  6.225 4.140  6.209 4.157  6.194 4.166  6.162 4.191  6.150 4.196  6.104 4.239  5.482 4.856  5.410 4.924  4.846 5.493  4.395 5.938  4.349 5.990  4.341 6.007  4.341 6.015  4.339 6.021  4.330 6.036  4.335 6.047  4.338 6.052 M2.903 7.723  2.907 7.720  2.924 7.728  2.936 7.732  2.945 7.733  2.957 7.729  3.003 7.683  3.701 6.982  4.064 6.618  4.099 6.579  4.134 6.541  4.159 6.509  4.201 6.462  4.235 6.422  4.277 6.374  4.285 6.342  4.252 6.350  4.205 6.392  4.165 6.425  4.117 6.467  4.085 6.492  4.047 6.527  4.009 6.562  3.308 7.260  2.944 7.623  2.897 7.669  2.894 7.682  2.895 7.690  2.898 7.702  2.906 7.719  2.903 7.723 M4.501 6.125  4.517 6.133  4.561 6.095  4.584 6.078  4.589 6.075  4.598 6.076  4.611 6.072  4.662 6.021  4.902 5.776  5.500 5.184  6.160 4.521  6.204 4.477  6.208 4.465  6.228 4.452  6.258 4.421  6.290 4.388  6.322 4.355  6.356 4.320  6.398 4.281  6.440 4.241  6.503 4.173  6.516 4.153  6.555 4.102  6.560 4.091  6.552 4.075  6.535 4.067  6.524 4.072  6.473 4.110  6.453 4.123  6.385 4.186  6.346 4.228  6.307 4.270  6.270 4.306  6.236 4.339  6.204 4.370  6.174 4.399  6.161 4.418  6.149 4.423  6.105 4.467  5.443 5.127  4.850 5.725  4.606 5.965  4.554 6.015  4.551 6.028  4.551 6.037  4.548 6.043  4.531 6.066  4.509 6.092  4.494 6.110  4.499 6.120  4.501 6.125 M6.552 4.075  6.567 4.083  6.587 4.070  6.606 4.056  6.638 4.030  6.677 3.993  6.718 3.955  6.753 3.926  6.783 3.896  6.809 3.870  6.830 3.849  6.847 3.832  6.859 3.820  6.853 3.806  6.851 3.795  6.845 3.781  6.831 3.776  6.821 3.773  6.806 3.767  6.775 3.798  6.740 3.833  6.701 3.873  6.671 3.909  6.633 3.949  6.596 3.989  6.571 4.020  6.557 4.039  6.544 4.059  6.549 4.070  6.552 4.075 M2.995 7.862  3.000 7.859  3.016 7.867  3.028 7.871  3.037 7.872  3.054 7.864  3.090 7.827  3.768 7.144  3.818 7.096  3.869 7.048  3.907 7.008  3.940 6.973  3.944 6.961  3.977 6.921  4.019 6.876  4.060 6.832  4.094 6.799  4.127 6.767  4.157 6.739  4.185 6.712  4.197 6.707  4.256 6.653  4.293 6.613  4.331 6.573  4.360 6.537  4.410 6.481  4.441 6.447  4.468 6.419  4.489 6.396  4.496 6.387  4.487 6.371  4.471 6.362  4.461 6.369  4.422 6.406  4.377 6.448  4.321 6.498  4.285 6.527  4.245 6.564  4.205 6.602  4.150 6.661  4.146 6.673  4.108 6.713  4.067 6.754  4.026 6.798  3.981 6.839  3.937 6.880  3.897 6.914  3.885 6.918  3.848 6.952  3.809 6.989  3.761 7.039  3.714 7.089  3.031 7.767  2.994 7.804  2.986 7.821  2.987 7.830  2.990 7.841  2.999 7.858  2.995 7.862 M4.663 6.195  4.679 6.203  4.706 6.178  4.739 6.149  4.755 6.141  4.768 6.138  4.796 6.116  5.434 5.483  5.484 5.427  5.522 5.392  5.561 5.357  5.979 4.935  6.313 4.592  6.352 4.550  6.392 4.509  6.432 4.467  6.452 4.454  6.488 4.425  6.560 4.359  6.729 4.185  6.755 4.154  6.794 4.116  6.832 4.079  6.871 4.042  6.903 4.011  6.929 3.984  6.951 3.962  6.969 3.944  6.981 3.932  6.974 3.917  6.972 3.906  6.966 3.892  6.952 3.886  6.941 3.883  6.926 3.877  6.894 3.909  6.857 3.945  6.816 3.986  6.778 4.025  6.741 4.064  6.704 4.103  6.673 4.129  6.499 4.298  6.433 4.370  6.403 4.406  6.391 4.426  6.349 4.466  6.308 4.505  6.266 4.545  5.923 4.879  5.501 5.297  5.466 5.335  5.431 5.374  5.375 5.424  4.741 6.062  4.720 6.090  4.717 6.103  4.708 6.119  4.676 6.155  4.654 6.179  4.660 6.190  4.663 6.195 M3.076 8.017  3.080 8.014  3.097 8.023  3.109 8.025  3.117 8.026  3.130 8.022  3.156 8.000  3.173 7.984  3.165 7.968  3.161 7.956  3.154 7.940  3.138 7.932  3.126 7.929  3.109 7.920  3.091 7.941  3.071 7.963  3.068 7.977  3.068 7.985  3.071 7.996  3.080 8.013  3.076 8.017 M3.154 7.940  3.162 7.940  3.177 7.948  3.188 7.950  3.202 7.948  3.226 7.931  3.265 7.890  3.305 7.846  3.515 7.633  3.553 7.597  3.591 7.562  3.886 7.262  4.023 7.114  4.040 7.090  4.074 7.053  4.109 7.017  4.143 6.981  4.263 6.857  4.299 6.819  4.324 6.795  4.328 6.790  4.319 6.774  4.303 6.766  4.299 6.770  4.274 6.794  4.237 6.830  4.113 6.951  4.077 6.985  4.040 7.019  4.004 7.054  3.980 7.070  3.831 7.207  3.531 7.502  3.496 7.540  3.461 7.579  3.247 7.789  3.203 7.829  3.162 7.867  3.146 7.891  3.143 7.905  3.146 7.916  3.153 7.931  3.154 7.940 M4.319 6.774  4.336 6.782  4.362 6.759  4.392 6.732  4.428 6.703  4.473 6.654  4.519 6.606  4.556 6.567  4.590 6.531  4.622 6.499  4.650 6.469  4.670 6.448  4.674 6.444  4.666 6.428  4.650 6.419  4.645 6.423  4.625 6.443  4.592 6.474  4.559 6.506  4.524 6.540  4.487 6.575  4.439 6.620  4.391 6.666  4.361 6.702  4.331 6.735  4.311 6.758  4.317 6.768  4.319 6.774 M4.784 6.309  4.800 6.318  4.823 6.296  4.847 6.274  4.870 6.252  4.894 6.229  4.918 6.206  4.930 6.202  4.943 6.199  4.967 6.182  5.670 5.483  5.826 5.328  5.966 5.184  6.379 4.766  6.582 4.569  7.050 4.100  7.079 4.071  7.101 4.049  7.116 4.034  7.109 4.019  7.106 4.008  7.100 3.994  7.085 3.987  7.074 3.985  7.059 3.978  7.044 3.993  7.022 4.015  6.993 4.044  6.525 4.511  6.328 4.714  5.909 5.127  5.765 5.268  5.066 5.971  4.911 6.127  4.895 6.151  4.891 6.163  4.887 6.176  4.861 6.203  4.838 6.228  4.818 6.249  4.801 6.267  4.787 6.281  4.776 6.293  4.781 6.304  4.784 6.309 M3.292 8.038  3.296 8.034  3.313 8.043  3.325 8.047  3.333 8.047  3.346 8.043  3.392 7.996  4.056 7.327  4.074 7.304  4.112 7.264  4.151 7.223  4.189 7.182  4.235 7.130  4.270 7.092  4.305 7.054  4.351 7.006  4.397 6.958  4.441 6.916  4.485 6.875  4.521 6.846  4.665 6.696  4.698 6.662  4.730 6.628  4.760 6.597  4.788 6.567  4.821 6.534  4.824 6.529  4.816 6.513  4.800 6.505  4.796 6.509  4.763 6.541  4.721 6.581  4.677 6.622  4.633 6.664  4.484 6.808  4.454 6.844  4.413 6.888  4.372 6.933  4.323 6.978  4.275 7.024  4.237 7.059  4.199 7.094  4.147 7.140  4.107 7.178  4.066 7.217  4.025 7.255  4.002 7.273  3.333 7.937  3.286 7.984  3.282 7.996  3.283 8.005  3.286 8.016  3.295 8.033  3.292 8.038 M4.914 6.415  4.930 6.423  4.956 6.399  4.985 6.372  5.017 6.342  5.052 6.309  5.083 6.283  5.099 6.274  5.111 6.270  5.147 6.240  5.844 5.539  6.045 5.337  6.076 5.311  6.120 5.265  6.123 5.252  6.143 5.239  6.187 5.195  6.585 4.792  6.623 4.749  6.649 4.718  6.669 4.705  6.700 4.680  6.716 4.670  7.117 4.265  7.157 4.228  7.192 4.195  7.222 4.166  7.241 4.144  7.234 4.129  7.232 4.118  7.225 4.104  7.211 4.097  7.200 4.095  7.185 4.088  7.164 4.107  7.133 4.140  7.100 4.175  7.064 4.212  6.659 4.614  6.650 4.629  6.625 4.661  6.612 4.681  6.580 4.706  6.537 4.744  6.134 5.143  6.090 5.186  6.077 5.206  6.064 5.209  6.019 5.253  5.993 5.284  5.292 5.981  5.089 6.183  5.060 6.219  5.055 6.231  5.047 6.246  5.021 6.278  4.988 6.312  4.960 6.342  4.937 6.366  4.919 6.385  4.906 6.399  4.911 6.410  4.914 6.415 M3.735 7.830  3.740 7.826  3.757 7.835  3.768 7.839  3.777 7.839  3.790 7.835  3.835 7.789  4.174 7.445  4.192 7.422  4.209 7.398  4.467 7.134  4.633 6.974  4.900 6.695  5.052 6.538  5.090 6.500  5.117 6.473  5.121 6.468  5.113 6.452  5.097 6.444  5.092 6.448  5.062 6.478  5.027 6.513  4.870 6.665  4.591 6.932  4.431 7.098  4.167 7.356  4.143 7.373  4.120 7.391  3.776 7.730  3.730 7.776  3.726 7.788  3.726 7.797  3.730 7.809  3.739 7.826  3.735 7.830 M5.154 6.411  5.170 6.419  5.202 6.394  5.235 6.362  5.242 6.360  5.256 6.359  5.280 6.342  5.632 5.993  6.123 5.497  6.454 5.160  6.922 4.698  6.993 4.630  7.030 4.591  7.067 4.552  7.104 4.513  7.302 4.320  7.324 4.299  7.339 4.284  7.332 4.268  7.329 4.257  7.323 4.242  7.308 4.236  7.297 4.233  7.281 4.226  7.245 4.263  7.052 4.461  7.013 4.498  6.974 4.535  6.935 4.572  6.868 4.644  6.406 5.111  6.068 5.442  5.572 5.933  5.224 6.285  5.207 6.309  5.204 6.323  5.203 6.330  5.172 6.363  5.146 6.395  5.151 6.406  5.154 6.411 M3.963 7.838  3.967 7.834  3.984 7.843  3.996 7.847  4.005 7.847  4.017 7.844  4.064 7.796  4.271 7.584  4.725 7.124  4.766 7.080  4.807 7.036  4.846 6.995  4.885 6.955  4.923 6.915  4.952 6.879  5.016 6.821  5.037 6.808  5.063 6.777  5.084 6.750  5.131 6.705  5.176 6.662  5.192 6.653  5.225 6.614  5.253 6.578  5.271 6.554  5.264 6.538  5.247 6.530  5.220 6.551  5.187 6.576  5.148 6.609  5.139 6.625  5.096 6.671  5.051 6.717  5.024 6.738  4.993 6.764  4.980 6.784  4.922 6.849  4.886 6.878  4.846 6.916  4.806 6.955  4.765 6.994  4.721 7.035  4.677 7.077  4.217 7.530  4.005 7.737  3.957 7.784  3.954 7.796  3.954 7.805  3.958 7.817  3.967 7.834  3.963 7.838 M5.308 6.493  5.324 6.501  5.344 6.488  5.392 6.446  5.408 6.438  5.421 6.434  5.462 6.395  5.505 6.354  5.550 6.311  6.160 5.697  6.204 5.656  6.248 5.615  6.413 5.445  6.924 4.929  7.360 4.491  7.408 4.443  7.423 4.425  7.418 4.412  7.416 4.402  7.412 4.389  7.399 4.385  7.389 4.383  7.376 4.378  7.358 4.393  7.310 4.441  6.872 4.877  6.356 5.388  6.186 5.553  6.145 5.597  6.104 5.641  5.490 6.251  5.456 6.287  5.424 6.321  5.394 6.352  5.367 6.380  5.363 6.392  5.355 6.409  5.313 6.457  5.300 6.477  5.306 6.487  5.308 6.493 M4.256 7.781  4.260 7.777  4.277 7.785  4.288 7.789  4.297 7.790  4.310 7.786  4.358 7.737  4.767 7.323  4.936 7.149  4.970 7.112  5.004 7.076  5.039 7.039  5.085 6.980  5.132 6.937  5.148 6.929  5.165 6.921  5.187 6.894  5.203 6.870  5.229 6.838  5.264 6.805  5.296 6.775  5.308 6.771  5.344 6.741  5.377 6.701  5.390 6.681  5.436 6.629  5.475 6.595  5.486 6.590  5.522 6.561  5.538 6.552  5.574 6.523  6.271 5.822  6.563 5.530  6.936 5.162  6.987 5.107  7.380 4.709  7.413 4.673  7.442 4.642  7.467 4.616  7.486 4.603  7.480 4.588  7.478 4.578  7.472 4.565  7.459 4.559  7.448 4.557  7.434 4.551  7.421 4.570  7.377 4.611  7.328 4.657  6.930 5.050  6.875 5.101  6.507 5.474  5.806 6.172  5.514 6.463  5.485 6.499  5.476 6.515  5.446 6.550  5.442 6.562  5.408 6.601  5.356 6.647  5.336 6.659  5.296 6.693  5.266 6.729  5.262 6.740  5.199 6.808  5.167 6.833  5.143 6.850  5.116 6.872  5.108 6.889  5.100 6.905  5.057 6.952  4.997 6.998  4.961 7.032  4.925 7.066  4.888 7.101  4.714 7.269  4.300 7.678  4.251 7.727  4.247 7.740  4.248 7.748  4.251 7.760  4.259 7.777  4.256 7.781 M4.418 7.854  4.422 7.851  4.440 7.859  4.452 7.863  4.460 7.863  4.472 7.859  4.516 7.815  5.003 7.322  5.180 7.140  5.225 7.088  5.269 7.050  5.292 7.032  5.318 7.001  5.347 6.965  5.390 6.926  5.432 6.887  5.492 6.832  5.525 6.793  5.694 6.619  5.726 6.588  5.752 6.562  5.772 6.542  5.780 6.542  5.793 6.538  5.842 6.488  6.539 5.787  6.691 5.635  6.715 5.618  6.937 5.391  7.285 5.038  7.477 4.848  7.506 4.819  7.528 4.797  7.543 4.782  7.537 4.768  7.534 4.758  7.529 4.744  7.515 4.738  7.505 4.736  7.490 4.730  7.475 4.745  7.453 4.767  7.424 4.796  7.234 4.988  6.881 5.336  6.655 5.558  6.638 5.581  5.937 6.278  5.784 6.430  5.734 6.480  5.731 6.493  5.730 6.500  5.694 6.537  5.654 6.578  5.480 6.747  5.440 6.781  5.386 6.841  5.347 6.883  5.307 6.925  5.272 6.955  5.240 6.980  5.223 7.004  5.185 7.047  5.132 7.093  4.950 7.269  4.457 7.757  4.413 7.801  4.409 7.813  4.410 7.821  4.413 7.833  4.422 7.850  4.418 7.854 M4.552 7.956  4.556 7.953  4.574 7.961  4.585 7.965  4.594 7.966  4.607 7.962  4.653 7.915  5.346 7.211  5.388 7.169  5.437 7.117  5.486 7.064  5.551 7.006  5.594 6.961  5.639 6.915  5.682 6.869  5.728 6.825  5.774 6.781  5.820 6.737  5.874 6.677  5.946 6.611  5.960 6.592  5.995 6.562  6.006 6.556  6.037 6.531  6.261 6.305  6.958 5.605  7.310 5.251  7.499 5.057  7.531 5.026  7.558 5.000  7.581 4.979  7.599 4.962  7.612 4.950  7.605 4.935  7.603 4.925  7.597 4.911  7.583 4.905  7.573 4.903  7.559 4.897  7.528 4.930  7.492 4.967  7.452 5.010  7.257 5.198  6.557 5.896  6.203 6.248  5.978 6.471  5.952 6.503  5.947 6.514  5.917 6.548  5.897 6.562  5.831 6.634  5.771 6.688  5.727 6.734  5.683 6.780  5.640 6.826  5.594 6.870  5.548 6.914  5.502 6.958  5.444 7.022  5.392 7.071  5.339 7.121  4.635 7.814  4.594 7.855  4.547 7.902  4.543 7.914  4.544 7.923  4.547 7.935  4.556 7.952  4.552 7.956 M4.723 8.021  4.727 8.018  4.743 8.026  4.755 8.030  4.764 8.030  4.781 8.022  4.814 7.989  5.510 7.287  5.585 7.212  5.606 7.185  5.666 7.130  5.982 6.810  6.216 6.571  6.249 6.538  6.276 6.511  6.297 6.490  6.305 6.489  6.317 6.485  6.362 6.440  7.059 5.739  7.200 5.598  7.564 5.229  7.595 5.198  7.621 5.173  7.641 5.155  7.655 5.141  7.649 5.126  7.647 5.116  7.641 5.103  7.628 5.097  7.618 5.095  7.603 5.089  7.578 5.115  7.548 5.146  7.515 5.180  7.146 5.545  6.445 6.242  6.304 6.382  6.259 6.427  6.255 6.439  6.254 6.447  6.216 6.485  6.173 6.529  5.935 6.763  5.614 7.078  5.560 7.138  5.532 7.159  4.831 7.856  4.756 7.930  4.722 7.964  4.714 7.980  4.715 7.989  4.718 8.001  4.726 8.017  4.723 8.021 M4.935 8.071  4.947 8.075  4.955 8.075  4.968 8.072  5.015 8.024  5.659 7.376  5.719 7.322  5.977 7.058  6.137 6.892  6.183 6.848  6.228 6.804  6.274 6.761  6.295 6.733  6.331 6.695  6.366 6.657  6.397 6.631  6.432 6.593  6.468 6.555  6.487 6.541  6.507 6.529  6.528 6.501  6.556 6.480  7.085 5.957  7.361 5.670  7.578 5.448  7.617 5.413  7.649 5.382  7.676 5.356  7.698 5.334  7.716 5.317  7.728 5.304  7.722 5.290  7.720 5.280  7.714 5.266  7.701 5.260  7.690 5.258  7.676 5.252  7.644 5.284  7.608 5.321  7.567 5.363  7.532 5.402  7.310 5.619  7.023 5.895  6.500 6.423  6.479 6.452  6.451 6.473  6.439 6.493  6.425 6.513  6.388 6.548  6.349 6.583  6.323 6.614  6.285 6.649  6.247 6.685  6.219 6.706  6.176 6.752  6.132 6.797  6.088 6.843  5.922 7.003  5.658 7.261  5.604 7.321  4.956 7.965  4.908 8.012  4.905 8.025  4.905 8.033  4.909 8.045  4.926 8.063  4.935 8.071 M5.170 8.071  5.182 8.075  5.191 8.075  5.207 8.067  5.249 8.027  5.353 7.927  6.049 7.226  6.153 7.121  6.197 7.076  6.241 7.030  6.285 6.984  6.708 6.567  7.300 5.969  7.697 5.567  7.730 5.536  7.755 5.512  7.772 5.496  7.766 5.481  7.764 5.471  7.759 5.457  7.745 5.452  7.735 5.450  7.720 5.444  7.688 5.478  7.649 5.519  7.247 5.916  6.649 6.508  6.232 6.931  6.186 6.975  6.140 7.019  6.094 7.063  5.393 7.759  5.289 7.863  5.185 7.971  5.149 8.009  5.141 8.025  5.141 8.034  5.145 8.046  5.162 8.062  5.170 8.071 M5.406 8.071  5.418 8.075  5.427 8.076  5.443 8.067  5.485 8.027  5.597 7.920  5.892 7.619  6.588 6.918  6.660 6.846  6.809 6.702  6.976 6.534  7.150 6.357  7.191 6.314  7.232 6.271  7.273 6.228  7.301 6.207  7.340 6.167  7.378 6.127  7.417 6.087  7.455 6.052  7.494 6.016  7.533 5.974  7.573 5.933  7.612 5.891  7.742 5.761  7.771 5.732  7.793 5.710  7.808 5.695  7.802 5.681  7.800 5.671  7.795 5.657  7.781 5.652  7.771 5.650  7.757 5.644  7.742 5.659  7.720 5.681  7.691 5.709  7.561 5.839  7.519 5.879  7.477 5.918  7.435 5.958  7.400 5.996  7.364 6.034  7.325 6.073  7.284 6.112  7.245 6.151  7.223 6.178  7.180 6.219  7.137 6.261  7.094 6.302  6.917 6.476  6.750 6.643  6.606 6.792  5.905 7.488  5.833 7.560  5.532 7.854  5.421 7.970  5.384 8.008  5.376 8.025  5.377 8.033  5.380 8.045  5.398 8.063  5.406 8.071 M5.642 8.071  5.654 8.075  5.662 8.075  5.679 8.067  5.739 8.013  6.435 7.312  6.580 7.166  7.107 6.633  7.150 6.587  7.163 6.567  7.213 6.519  7.225 6.515  7.261 6.480  7.300 6.443  7.336 6.406  7.368 6.373  7.376 6.356  7.396 6.344  7.432 6.309  7.562 6.184  7.575 6.164  7.786 5.952  7.815 5.923  7.837 5.901  7.852 5.886  7.846 5.872  7.844 5.862  7.839 5.849  7.825 5.844  7.815 5.841  7.801 5.836  7.786 5.851  7.764 5.873  7.735 5.901  7.524 6.112  7.504 6.125  7.378 6.256  7.344 6.291  7.331 6.312  7.315 6.319  7.281 6.352  7.244 6.387  7.206 6.427  7.173 6.463  7.169 6.475  7.121 6.525  7.101 6.537  7.054 6.581  6.522 7.108  5.820 7.804  5.675 7.949  5.621 8.009  5.613 8.025  5.613 8.034  5.617 8.046  5.634 8.062  5.642 8.071 M5.877 8.070  5.889 8.074  5.898 8.074  5.913 8.065  5.957 8.028  6.656 7.328  7.207 6.775  7.240 6.742  7.269 6.713  7.295 6.687  7.317 6.664  7.320 6.651  7.351 6.625  7.392 6.586  7.435 6.546  7.758 6.217  7.818 6.154  7.852 6.122  7.881 6.094  7.906 6.070  7.926 6.051  7.936 6.044  7.929 6.029  7.926 6.018  7.920 6.003  7.905 5.997  7.894 5.995  7.879 5.987  7.873 5.997  7.842 6.030  7.807 6.066  7.769 6.106  7.707 6.165  7.377 6.489  7.336 6.532  7.298 6.572  7.272 6.604  7.259 6.607  7.225 6.641  7.188 6.677  7.148 6.716  6.448 7.414  5.895 7.966  5.858 8.010  5.849 8.026  5.850 8.035  5.853 8.046  5.869 8.062  5.877 8.070 M6.114 8.072  6.126 8.076  6.135 8.076  6.147 8.072  6.193 8.028  6.293 7.932  6.442 7.780  7.028 7.191  7.069 7.149  7.111 7.106  7.152 7.063  7.188 7.034  7.207 7.011  7.587 6.625  7.627 6.588  7.668 6.551  7.680 6.531  7.743 6.463  7.807 6.405  7.903 6.310  7.934 6.279  7.956 6.257  7.970 6.243  7.956 6.229  7.944 6.216  7.933 6.205  7.924 6.196  7.917 6.189  7.902 6.203  7.880 6.225  7.849 6.256  7.754 6.352  7.696 6.416  7.628 6.479  7.608 6.492  7.571 6.531  7.533 6.572  7.148 6.953  7.125 6.971  7.096 7.007  7.053 7.048  7.011 7.090  6.968 7.131  6.379 7.717  6.227 7.866  6.126 7.971  6.087 8.012  6.083 8.024  6.084 8.033  6.088 8.045  6.106 8.063  6.114 8.072 M6.350 8.071  6.361 8.075  6.370 8.075  6.382 8.071  6.415 8.042  6.451 8.009  7.147 7.308  7.251 7.203  7.420 7.030  7.464 6.992  7.530 6.920  7.858 6.588  7.887 6.559  7.912 6.535  7.933 6.514  7.950 6.497  7.964 6.484  7.973 6.474  7.960 6.461  7.948 6.449  7.937 6.438  7.928 6.429  7.921 6.422  7.912 6.431  7.899 6.444  7.882 6.462  7.861 6.483  7.836 6.508  7.807 6.537  7.475 6.865  7.403 6.931  7.365 6.975  7.191 7.144  6.490 7.840  6.386 7.944  6.352 7.981  6.324 8.013  6.320 8.025  6.320 8.033  6.324 8.045  6.341 8.063  6.350 8.071 M6.586 8.071  6.597 8.075  6.606 8.076  6.618 8.071  6.651 8.041  6.687 8.009  7.316 7.375  7.525 7.160  7.784 6.897  7.904 6.777  7.935 6.746  7.957 6.724  7.971 6.710  7.958 6.697  7.947 6.685  7.937 6.675  7.928 6.666  7.921 6.659  7.907 6.673  7.884 6.696  7.854 6.727  7.734 6.847  7.471 7.106  7.256 7.315  6.622 7.944  6.589 7.980  6.560 8.013  6.555 8.025  6.556 8.033  6.560 8.045  6.577 8.063  6.586 8.071 M6.821 8.071  6.832 8.074  6.841 8.075  6.865 8.058  6.881 8.049  7.408 7.516  7.658 7.261  7.699 7.218  7.741 7.175  7.782 7.132  7.837 7.081  7.866 7.052  7.892 7.026  7.914 7.003  7.934 6.984  7.949 6.968  7.962 6.955  7.971 6.946  7.958 6.933  7.947 6.922  7.937 6.911  7.928 6.903  7.921 6.896  7.912 6.905  7.900 6.917  7.884 6.932  7.864 6.952  7.842 6.974  7.815 7.000  7.786 7.030  7.734 7.084  7.691 7.125  7.648 7.167  7.606 7.208  7.350 7.458  6.817 7.985  6.809 8.002  6.792 8.026  6.793 8.034  6.796 8.046  6.813 8.063  6.821 8.071 M7.058 8.071  7.069 8.075  7.078 8.076  7.091 8.072  7.139 8.024  7.773 7.385  7.906 7.253  7.937 7.222  7.959 7.200  7.973 7.186  7.959 7.171  7.946 7.158  7.935 7.147  7.925 7.137  7.917 7.129  7.903 7.143  7.880 7.166  7.850 7.197  7.718 7.329  7.079 7.964  7.030 8.012  7.027 8.024  7.027 8.033  7.031 8.045  7.049 8.063  7.058 8.071 M7.293 8.071  7.305 8.075  7.314 8.076  7.327 8.072  7.373 8.025  7.822 7.573  7.854 7.542  7.881 7.515  7.904 7.494  7.922 7.477  7.934 7.465  7.926 7.449  7.923 7.438  7.916 7.422  7.901 7.415  7.889 7.412  7.873 7.404  7.842 7.437  7.806 7.474  7.766 7.516  7.313 7.965  7.266 8.012  7.262 8.024  7.263 8.033  7.267 8.045  7.284 8.063  7.293 8.071"
         desc="pen-down drawing"
         id="path4" />
    </g>
  </g>
  <plotdata
     application="axidraw"
     model="1"
     plob_version="n/a"
     layer="-1"
     pause_dist="366356"
     pause_ref="366356"
     last_x="207.06875000000002"
     last_y="33.518750000000004"
     rand_seed="1"
     row="0" />
</svg>
