<?xml version='1.0' encoding='utf-8'?>
<svg xmlns="http://www.w3.org/2000/svg" version="1.1" id="svg72" width="1018" height="1370" viewBox="0 0 1018 1370"> <metadata id="metadata78"> </metadata> <defs id="defs76"/> <path style="fill:#000000" d="m 9.361679,1309.2553 c 0.4813,-40.2333 0.1396,-76.9928 -1.347,-144.8871 -1.7324,-79.1221 -1.8061,-91.4207 -0.5658,-94.3891 2.0899,-5.0018 8.185,-13.6169 19.8587,-28.0691 5.6888,-7.0429 10.8269,-13.7087 11.4179,-14.813 0.5909,-1.1042 2.0239,-8.2315 3.1844,-15.8383 4.9366,-32.36047 12.3419,-52.43674 25.1948,-68.30509 6.2509,-7.71743 13.2279,-12.97734 26.6754,-20.11042 6.0839,-3.22715 13.653501,-7.86404 16.821201,-10.3042 8.4631,-6.51929 19.8418,-18.83601 28.1435,-30.46385 4.0175,-5.62707 7.8738,-10.23103 8.5695,-10.23103 0.6957,0 3.3483,-1.8338 5.8945,-4.07511 4.6293,-4.07488 5.9556,-6.41697 16.3987,-28.95837 3.431,-7.40582 5.0092,-9.48684 11.9433,-15.748 4.7282,-4.26933 9.176,-9.35854 10.8954,-12.46652 2.6335,-4.76059 2.8965,-6.09409 2.8106,-14.252 -0.077,-7.34158 -0.6059,-10.28988 -2.8687,-16 -3.7086,-9.35853 -4.024,-13.41432 -2.0312,-26.12235 4.8352,-30.8349 19.8699,-56.37218 41.69,-70.81283 4.948,-3.27462 6.1573,-4.75611 9.3166,-11.41394 12.3668,-26.06129 38.4465,-52.62082 73.0284,-74.37227 8.1984,-5.1567 8.4045,-5.38253 8.9207,-9.77861 1.3212,-11.24913 3.9934,-22.50348 8.1918,-34.5 9.6902,-27.68903 12.4189,-36.76555 13.8924,-46.21133 0.8399,-5.38377 2.2405,-11.94676 3.1124,-14.58442 3.2993,-9.98032 1.2916,-17.25584 -10.1285,-36.70425 -6.2482,-10.6408 -7.5354,-14.32049 -11.0188,-31.5 -3.5983,-17.74657 -4.6588,-32.13284 -4.4226,-60 0.1856,-21.90563 -0.06,-26.54719 -1.9858,-37.5 -4.0238,-22.88704 -3.8631,-45.67391 0.4413,-62.61278 1.8647,-7.33782 7.1106,-18.19497 12.2283,-25.30838 l 3.8999,-5.4207 -2.9916,-7.07907 c -2.46,-5.82132 -3.0706,-8.85579 -3.4366,-17.07907 -0.2546,-5.72011 0.058,-12.35394 0.7314,-15.5 0.6471,-3.025 1.4221,-6.9905 1.7223,-8.81222 0.3575,-2.16992 0.9942,-3.1401 1.8462,-2.81314 0.7154,0.27449 1.5487,-0.14751 1.852,-0.93778 0.3032,-0.79027 1.2139,-1.43686 2.0237,-1.43686 0.8098,0 1.7911,-0.51563 2.1806,-1.14584 0.4983,-0.80641 -0.077,-0.94888 -1.941,-0.48095 -2.5158,0.63141 -2.6486,0.47509 -2.6384,-3.10416 0.014,-5.00382 2.0688,-11.52928 6.0935,-19.35502 1.8143,-3.52772 3.3205,-6.685 3.3472,-7.01618 0.027,-0.33119 1.736,-2.5273 3.7985,-4.88025 2.0625,-2.35295 3.75,-4.64258 3.75,-5.08807 0,-1.05733 9.1468,-13.06902 14.7364,-19.35193 5.8137,-6.53495 11.7489,-16.7733 13.7137,-23.656642 5.1417,-18.01338 28.7878,-48.068395 53.0499,-67.428476 16.602,-13.2476 26.1451,-18.7062345 40.9963,-23.4497535 38.6202,-12.335421 73.3492,-14.793921 105.0814,-7.438804 6.0073,1.392407 14.9723,3.38945699 19.9223,4.437889 17.1499,3.632414 37.6511,12.0703525 44.25,18.2125535 1.2375,1.151843 2.25,1.758675 2.25,1.348516 0,-0.410158 0.6288,-0.151099 1.3972,0.575686 0.7685,0.726786 3.5753,2.896429 6.2373,4.821429 11.1686,8.076433 31.2479,30.79602 43.7476,49.5 14.2571,21.33369 27.7531,53.955592 32.4763,78.500002 2.0806,10.81152 2.47,14.1455 9.1701,78.5 5.6497,54.26443 8.6191,81.41295 12.0863,110.5 2.7339,22.93521 3.331,26.06255 5.9374,31.09307 5.7065,11.01398 7.8313,27.8092 6.4794,51.21557 l -0.7397,12.80863 -5.2972,2.34268 c -3.2991,1.45901 -5.5559,3.15769 -5.983,4.50331 -1.1084,3.49228 3.6568,11.55059 13.6224,23.03674 11.3211,13.04831 13.6731,16.71032 14.9052,23.20704 1.2196,6.4309 4.6085,13.90788 9.7273,21.46133 5.7895,8.54322 8.478,14.1439 9.7528,20.31695 1.1233,5.43925 1.1689,5.49147 5.425,6.21804 13.6258,2.3261 21.1437,10.32673 37.493,39.9006 6.9756,12.618 10.6413,16.38206 19.8079,20.33961 21.4022,9.24007 42.4515,27.39313 70.2179,60.55643 4.3747,5.225 10.7868,12.70266 14.249,16.61701 5.127,5.79653 7.9483,10.5278 15.2059,25.5 18.343,37.84091 32.7772,78.42119 53.13482,149.38299 l 7.1721,25 -1.1402,27 c -3.5537,84.15174 -16.7091,164.77809 -40.20952,246.43329 l -5.0505,17.5486 4.0955,26.5091 c 5.0554,32.7217 8.5546,60.1011 10.609,83.009 1.9514,21.7599 3.0153,74.4373 1.5797,78.2134 -1.7107,4.4994 -5.5679,6.2665 -13.5443,6.205 -57.9022,-0.4464 -694.413,-0.2637 -812.3867,0.2331 l -159.322101,0.671 z m 292.499101,-12.3538 c 0,-0.5184 0.9273,-0.764 2.0607,-0.5457 1.5074,0.2903 2.608,-0.5306 4.0988,-3.0574 1.2289,-2.0829 2.8213,-3.4543 4.0107,-3.4543 1.8344,0 4.8298,-2.1264 4.8298,-3.4286 0,-0.3143 0.7875,-1.418 1.75,-2.4526 0.9625,-1.0347 2.65,-3.0389 3.75,-4.4538 1.1,-1.4149 3.0125,-2.5933 4.25,-2.6188 1.2375,-0.025 2.1375,-0.3924 2,-0.8156 -0.7591,-2.3361 7.6175,-9.2306 11.2148,-9.2306 2.2415,0 2.7591,-1.5412 0.7852,-2.3377 -0.6875,-0.2774 -0.2053,-0.5399 1.0715,-0.5834 2.9157,-0.099 5.5568,-2.6509 4.7959,-4.6336 -0.408,-1.0631 0.2698,-1.6727 2.3143,-2.0816 1.678,-0.3356 3.0989,-1.3725 3.3861,-2.471 0.2723,-1.041 1.0137,-1.8927 1.6476,-1.8927 0.634,0 0.8745,0.45 0.5346,1 -0.7135,1.1545 -0.2914,1.2409 1.9182,0.393 0.87,-0.3338 1.5818,-1.1578 1.5818,-1.831 0,-0.6732 1.125,-1.8261 2.5,-2.562 2.5223,-1.3499 3.3473,-3 1.5,-3 -2.1527,0 -0.8413,-1.8597 2.0132,-2.8548 3.4522,-1.2034 4.7356,-3.538 3.057,-5.5607 -0.8809,-1.0614 -0.8483,-1.4964 0.1381,-1.8399 1.9745,-0.6878 4.2515,0.3532 2.7723,1.2674 -0.8976,0.5547 -0.9094,1.2524 -0.049,2.8608 1.0952,2.0464 3.0628,2.9282 3.0731,1.3772 0,-0.4125 1.0177,-2.0156 2.2556,-3.5624 1.6189,-2.023 2.7637,-2.6155 4.0788,-2.1108 1.435,0.5506 1.5414,0.8834 0.4944,1.5471 -0.7336,0.465 -0.8559,0.8524 -0.2719,0.8608 1.3858,0.02 5.8008,-5.9553 4.9954,-6.7607 -0.3404,-0.3404 -1.8919,0.1331 -3.4478,1.0522 -3.0964,1.8291 -4.7834,1.2407 -2.911,-1.0154 0.9046,-1.09 0.9065,-1.863 0.01,-3.3017 -0.9501,-1.5214 -0.8618,-2.0527 0.4647,-2.795 1.1489,-0.6429 1.395,-1.4758 0.8245,-2.7903 -0.4473,-1.0306 -0.7126,-2.2989 -0.5897,-2.8184 0.3381,-1.4281 -2.1779,-5.885 -4.1561,-7.3621 -0.9625,-0.7187 -1.75,-2.4365 -1.75,-3.8174 0,-2.0556 -0.3625,-2.3956 -2,-1.8759 -1.3736,0.436 -2,0.1797 -2,-0.8183 0,-2.6764 -7.5875,-14.6152 -9.3171,-14.6603 -1.234,-0.032 -7.6829,-7.1329 -7.6829,-8.4594 0,-0.6371 -1.5607,-2.7116 -3.4682,-4.6101 -1.9075,-1.8986 -3.4825,-4.2394 -3.5,-5.2019 -0.017,-0.9625 -0.6646,-1.75 -1.4381,-1.75 -0.8656,0 -1.2241,-0.697 -0.9324,-1.8127 0.3632,-1.3889 -0.886,-2.5235 -5.3436,-4.8533 -3.9434,-2.0609 -5.9206,-3.7321 -6.1372,-5.1873 -0.3906,-2.6241 -2.9539,-2.7806 -8.8242,-0.5387 -2.6249,1.0025 -4.0247,2.0924 -3.7171,2.8941 0.3399,0.8858 -0.8496,1.4391 -3.8228,1.7782 -6.5977,0.7524 -17.6922,3.7384 -19.0924,5.1386 -0.6873,0.6873 -3.0821,1.5427 -5.3218,1.9008 -2.2397,0.3581 -8.0839,2.6298 -12.9871,5.0481 -4.9033,2.4183 -9.9158,4.7014 -11.139,5.0736 -1.2231,0.3723 -3.0231,1.6866 -4,2.9209 -0.9768,1.2342 -2.628,2.5682 -3.6692,2.9644 -1.0412,0.3962 -1.6227,0.9908 -1.2922,1.3212 0.3304,0.3305 -0.9232,2.081 -2.7859,3.8899 -4.0891,3.971 -3.8439,7.0144 0.6444,8.0002 3.3706,0.7403 5.0052,-0.1811 2.7979,-1.5771 -1.0347,-0.6543 -0.1296,-0.9348 3.0511,-0.9456 3.5766,-0.012 5.3153,-0.6691 8.3157,-3.1422 3.3592,-2.769 4.2928,-3.0585 8.1547,-2.5292 4.1916,0.5745 4.3863,0.4842 5.0026,-2.322 0.7141,-3.251 2.9462,-3.8834 15.3052,-4.3361 3.8358,-0.1405 6.6116,-0.7343 7.0959,-1.5179 1.4556,-2.3553 4.6416,4.0965 4.2189,8.5437 -0.1213,1.2767 -4.4174,5.743 -15.3746,15.984 -3.646,3.4076 -8.5786,8.5826 -10.9614,11.5 -6.6808,8.1796 -9.0512,10.9057 -11.9834,13.7813 -1.4873,1.4587 -3.1748,3.8899 -3.75,5.4027 -1.1764,3.0943 -1.3774,5.2854 -0.3946,4.3026 0.3581,-0.3581 1.1962,0.094 1.8624,1.0054 1.108,1.5153 1.3699,1.4714 3.0711,-0.5155 1.0229,-1.1947 2.656,-2.1721 3.6291,-2.1721 0.9731,0 2.3314,-0.9 3.0183,-2 0.687,-1.1 2.0267,-2 2.9771,-2 1.0465,0 1.5222,-0.5366 1.206,-1.3605 -0.3597,-0.9373 0.5894,-1.5408 3.0512,-1.9403 3.4471,-0.5594 6.9578,-2.7107 12.1562,-7.4492 1.3576,-1.2375 3.1005,-2.25 3.8732,-2.25 0.7727,0 1.7916,-0.6911 2.2643,-1.5357 0.4727,-0.8446 2.1825,-1.6321 3.7997,-1.75 1.6171,-0.1179 3.6152,-0.8572 4.4402,-1.6429 1.3042,-1.2421 1.5422,-1.2095 1.8234,0.25 0.1967,1.0215 1.2733,1.6786 2.75,1.6786 1.8593,0 2.4192,0.5261 2.3948,2.25 -0.017,1.2375 -0.6925,3.1235 -1.5,4.1911 -0.8075,1.0677 -1.4682,2.9174 -1.4682,4.1105 0,1.1931 -1.0344,3.6946 -2.2987,5.5589 -1.2643,1.8642 -3.1768,5.5253 -4.25,8.1358 -1.0732,2.6104 -2.253,4.7479 -2.6218,4.75 -0.3688,0 -0.9671,1.3537 -1.3295,3.0037 -0.3624,1.65 -1.0731,3 -1.5794,3 -0.5063,0 -0.9206,1.0699 -0.9206,2.3776 0,1.3076 -0.7133,2.9695 -1.5851,3.6931 -0.9923,0.8235 -1.4311,2.3653 -1.1732,4.1224 0.3232,2.2019 0.018,2.8069 -1.4148,2.8069 -1.0048,0 -1.8269,0.6484 -1.8269,1.441 0,2.9241 2.0565,2.5643 5.0899,-0.8905 3.4467,-3.9256 5.3193,-4.4288 6.7785,-1.8213 0.9051,1.6174 1.1083,1.6019 3.1434,-0.2399 l 2.1758,-1.969 -2.8438,-1.1792 c -3.0055,-1.2462 -2.2667,-1.9532 2.6562,-2.5421 1.6747,-0.2003 2.6011,-1.0082 2.8062,-2.4471 0.1684,-1.1814 1.2146,-2.3856 2.3249,-2.6759 1.6678,-0.4362 1.8344,-0.8721 0.9585,-2.5087 -0.9251,-1.7285 -0.5487,-2.2473 2.956,-4.074 4.9939,-2.603 5.9544,-2.618 5.9544,-0.093 0,1.1 -0.4059,2 -0.9021,2 -0.4962,0 -1.337,1.2375 -1.8683,2.75 -0.5314,1.5125 -3.0656,4.8435 -5.6315,7.4021 -4.897,4.8831 -8.373,9.3322 -11.2097,14.3479 -0.9331,1.65 -3.4273,5.3433 -5.5425,8.2073 -2.7575,3.7337 -3.8459,6.2099 -3.8459,8.75 0,1.9485 0.45,3.5427 1,3.5427 0.55,0 1,-0.4242 1,-0.9426 z m 286.7292,-34.6616 c -0.3323,-0.3323 -1.1948,-0.3678 -1.9167,-0.079 -0.7977,0.3192 -0.5608,0.5562 0.6042,0.6042 1.0542,0.043 1.6448,-0.193 1.3125,-0.5253 z m -5.7292,-6.431 c 0,-0.5306 1.6875,-0.9717 3.75,-0.9801 2.9217,-0.012 3.4187,-0.2496 2.25,-1.0761 -1.1709,-0.8281 -1.2159,-1.1754 -0.2052,-1.583 0.8402,-0.3388 -0.4764,-2.1938 -3.75,-5.2833 -2.7746,-2.6187 -5.0448,-5.0535 -5.0448,-5.4109 0,-1.397 -5.8081,-6.6314 -7.3582,-6.6314 -0.903,0 -1.6418,-0.4676 -1.6418,-1.039 0,-1.4419 -14.8439,-16.961 -16.2231,-16.961 -0.4273,0 -0.7769,-0.4503 -0.7769,-1.0007 0,-0.5503 -2.475,-3.417 -5.5,-6.3704 -3.025,-2.9534 -5.5,-5.8412 -5.5,-6.4175 0,-0.9792 -3.8324,-4.9763 -14.1897,-14.7995 -2.3706,-2.2484 -6.5087,-5.5744 -9.1956,-7.3911 -5.3026,-3.5852 -21.6147,-19.5645 -21.6147,-21.1737 0,-1.2642 -2.5603,-3.8471 -3.8135,-3.8471 -0.5261,0 -1.6895,-1.1187 -2.5854,-2.4861 -1.5267,-2.3301 -1.508,-2.607 0.2983,-4.4133 1.4721,-1.4721 2.9373,-1.83 6.2041,-1.5153 2.3522,0.2265 4.5287,0.8019 4.8366,1.2785 0.308,0.4767 1.6503,1.2073 2.9831,1.6238 1.3327,0.4164 3.3487,1.6194 4.4801,2.6734 1.1313,1.054 3.0784,2.1728 4.3268,2.4861 1.2485,0.3133 2.2699,0.8805 2.2699,1.2604 0,0.3799 1.6875,1.2865 3.75,2.0146 2.0625,0.7281 4.425,1.8903 5.25,2.5826 0.825,0.6923 2.5125,1.5673 3.75,1.9444 1.2375,0.3771 2.25,1.1054 2.25,1.6183 0,0.5129 0.9,0.9326 2,0.9326 1.1,0 2,0.4197 2,0.9326 0,0.5129 1.0125,1.2486 2.25,1.6348 1.2375,0.3862 2.4846,1.064 2.7713,1.5064 0.2867,0.4423 1.8584,1.0466 3.4926,1.3429 1.6342,0.2964 3.1246,0.9988 3.312,1.5611 0.1875,0.5622 1.1668,1.0222 2.1764,1.0222 2.1151,0 7.982,3.1289 7.9914,4.2618 0,0.419 1.8575,0.4658 4.12,0.104 3.9468,-0.6311 4.0842,-0.5648 3.3862,1.6346 -0.6507,2.0502 -0.4778,2.2193 1.6363,1.6004 1.3001,-0.3806 3.3862,-0.8356 4.6358,-1.0113 1.2496,-0.1756 3.1659,-1.1283 4.2584,-2.117 1.8614,-1.6846 1.8849,-1.9529 0.3726,-4.2609 -1.3362,-2.0393 -1.3807,-2.6097 -0.2585,-3.3146 0.7456,-0.4682 2.139,-0.6076 3.0966,-0.3096 2.685,0.8354 3.939,-0.3825 2.7264,-2.6481 -0.6142,-1.1477 -2.0881,-1.9393 -3.6111,-1.9393 -2.2253,0 -2.4908,-0.3284 -1.9636,-2.4288 0.5144,-2.0494 -0.3391,-3.2601 -5.4634,-7.75 -3.3402,-2.9267 -9.6361,-8.9552 -13.9909,-13.3967 -4.3548,-4.4415 -9.0474,-8.68 -10.4281,-9.419 -4.4745,-2.3946 -2.5026,-4.8404 3.2817,-4.0705 0.7106,0.095 2.6577,-0.9771 4.3267,-2.3815 1.8261,-1.5366 2.4494,-2.5535 1.5649,-2.5535 -0.8083,0 -1.693,-0.5819 -1.9659,-1.2931 -0.2729,-0.7112 -3.9211,-2.6001 -8.107,-4.1975 -4.1859,-1.5975 -7.6108,-3.3813 -7.6108,-3.9642 0,-1.5587 -8.6991,-6.5452 -11.4183,-6.5452 -1.2852,0 -2.8043,-0.5625 -3.3757,-1.25 -0.5713,-0.6875 -3.3264,-2.1366 -6.1224,-3.2201 -2.796,-1.0836 -5.0836,-2.3211 -5.0836,-2.75 0,-0.429 -0.5625,-0.7882 -1.25,-0.7983 -0.6875,-0.01 -4.6131,-1.5614 -8.7236,-3.4473 -4.9325,-2.263 -7.701,-3.0607 -8.1426,-2.3462 -1.004,1.6244 -5.6593,0.095 -6.3518,-2.0873 -0.8403,-2.6477 -6.1979,-8.1115 -11.532,-11.7607 -4.9026,-3.354 -17.1363,-9.3219 -19.2083,-9.3702 -0.7104,-0.017 -6.4667,-1.636 -12.7917,-3.5988 -6.325,-1.9627 -12.85,-3.8113 -14.5,-4.108 -1.65,-0.2967 -3.225,-0.8559 -3.5,-1.2427 -0.7677,-1.0798 -16.0127,-7.0204 -18.016,-7.0204 -0.9735,0 -2.029,-0.675 -2.3456,-1.5 -0.3166,-0.825 -1.6022,-1.5068 -2.857,-1.5151 -2.4824,-0.016 -7.998,-1.8274 -11.4656,-3.7646 -1.2014,-0.6712 -3.1404,-1.2203 -4.3091,-1.2203 -1.1686,0 -1.8466,-0.45 -1.5067,-1 0.3399,-0.55 -0.2225,-1 -1.2498,-1 -1.0274,0 -2.7414,-0.6607 -3.809,-1.4682 -1.0677,-0.8075 -2.9833,-1.4825 -4.2569,-1.5 -1.2737,-0.017 -3.2161,-0.5136 -4.3165,-1.1026 -2.6721,-1.43 -10.2565,-2.7827 -22.2118,-3.9615 -18.8968,-1.8632 -39.3799,3.846 -49.5245,13.8039 -11.3589,11.1498 -16.0622,23.6105 -16.5868,43.9439 -0.1848,7.165 0.1377,10.8977 1.0799,12.5 0.7389,1.2565 1.62,3.0409 1.958,3.9653 0.9651,2.6399 3.1507,2.9241 3.8451,0.5 0.6081,-2.123 0.6646,-2.1079 2.1304,0.5692 1.1619,2.1219 2.2438,2.75 4.7367,2.75 2.3915,0 3.4875,0.5846 4.2181,2.25 0.5429,1.2375 1.6621,2.2893 2.4871,2.3373 0.825,0.048 3.2085,0.4396 5.2967,0.8701 4.0747,0.84 6.0785,0.024 3.6744,-1.4965 -1.1556,-0.7308 -0.9759,-0.9336 0.8379,-0.9456 1.27,-0.01 2.0857,0.346 1.8128,0.7877 -0.7929,1.283 4.8362,0.5524 7.2216,-0.9372 1.9625,-1.2257 2.4033,-1.0865 4.5788,1.4453 2.3088,2.6869 2.434,2.7174 3.06,0.7452 0.8637,-2.7214 2.2989,-2.6184 2.6983,0.1937 0.2397,1.688 1.0811,2.3245 3.3685,2.5484 2.3797,0.2328 3.3212,1.0012 4.2887,3.5 1.1348,2.9306 1.3516,3.0535 2.5613,1.4516 1.8332,-2.4276 2.3404,-2.2131 3.1159,1.3176 0.3705,1.6871 1.3282,3.3187 2.1282,3.6257 0.8,0.307 2.6744,1.778 4.1653,3.2689 1.491,1.491 3.2278,2.8969 3.8596,3.1243 0.6319,0.2274 1.3025,1.3135 1.4904,2.4135 0.2469,1.4451 -0.1439,1.9185 -1.4084,1.7062 -1.2016,-0.2018 -1.75,0.3603 -1.75,1.7936 0,1.1481 -1.1261,3.302 -2.5025,4.7863 -2.4774,2.6719 -2.7947,4.9466 -0.6225,4.4639 0.6188,-0.1375 1.125,0.6019 1.125,1.643 0,1.0412 0.675,2.152 1.5,2.4686 0.825,0.3166 1.5,1.2344 1.5,2.0396 0,0.8052 0.9326,1.76 2.0723,2.1218 1.246,0.3954 1.8567,1.2198 1.5314,2.0673 -0.2975,0.7754 -0.2175,1.4125 0.1777,1.416 0.3952,0 1.4852,1.3535 2.4221,3 2.2511,3.9561 4.2383,3.9525 3.4465,-0.01 -0.5373,-2.6869 -0.3416,-3 1.875,-3 1.7212,0 2.475,0.5509 2.475,1.8089 0,0.9948 0.5759,2.5964 1.2797,3.559 1.0422,1.4252 1.7813,1.5594 3.9818,0.7228 2.281,-0.8673 2.8662,-0.7206 3.7555,0.941 1.1841,2.2125 3.5847,2.617 4.2628,0.7183 0.2597,-0.7271 0.8174,-0.879 1.3333,-0.3631 0.5159,0.5159 0.364,1.0737 -0.3631,1.3333 -2.8635,1.0227 -1.1511,3.0049 2.5,2.8939 3.3863,-0.103 3.7809,0.1543 4.0681,2.6529 0.2046,1.78 0.7396,2.5302 1.5,2.1033 0.8686,-0.4878 0.8621,-0.3182 -0.024,0.6394 -1.64,1.7715 3.8812,6.6129 8.5377,7.4865 2.168,0.4067 3.5718,1.3293 3.8933,2.5587 0.2765,1.0574 0.8705,1.6953 1.32,1.4175 0.4494,-0.2777 1.0737,-0.09 1.3873,0.4174 0.3135,0.5073 1.4688,0.6874 2.5673,0.4002 1.0985,-0.2873 3.1609,0.2401 4.5832,1.1721 2.5178,1.6497 2.538,1.7474 0.7653,3.7062 -1.8,1.989 -1.7697,2.0098 2.6658,1.829 6.6487,-0.2709 6.9865,-0.174 6.9865,2.0027 0,2.6923 1.7882,2.5206 4.527,-0.4347 2.7865,-3.0066 5.3997,-2.5004 7.6896,1.4894 0.9529,1.6604 2.533,2.9453 3.6219,2.9453 1.0623,0 2.6686,1.125 3.5695,2.5 0.901,1.375 2.2803,2.5 3.0653,2.5 0.785,0 1.7872,0.5987 2.227,1.3306 0.4398,0.7318 3.1661,2.8646 6.0584,4.7396 2.8922,1.875 5.493,4.1477 5.7795,5.0504 0.2865,0.9027 1.8456,1.9062 3.4647,2.23 2.067,0.4134 3.1329,1.3423 3.5788,3.1191 0.3493,1.3917 1.2613,2.5303 2.0267,2.5303 0.7654,0 1.3916,0.5651 1.3916,1.2559 0,0.6907 1.4625,1.8848 3.25,2.6535 3.5402,1.5224 6.75,4.3988 6.75,6.0488 0,0.573 0.9,1.0418 2,1.0418 1.1,0 2,0.3634 2,0.8076 0,0.4441 1.7262,1.5691 3.836,2.5 4.1902,1.8487 11.6791,2.3349 10.664,0.6924 -0.3432,-0.5553 0.4088,-1.0061 1.691,-1.0137 5.1811,-0.031 6.5571,-1.0283 7.3413,-5.3231 1.0805,-5.9176 0.8215,-6.6791 -3.8492,-11.3172 -2.3007,-2.2847 -5.3429,-5.4347 -6.7605,-7 -1.4175,-1.5653 -5.8438,-5.771 -9.8361,-9.346 -3.9923,-3.575 -8.411,-7.7281 -9.8194,-9.2292 -1.4083,-1.501 -3.4847,-3.0225 -4.6142,-3.381 -2.3164,-0.7351 -8.7205,-7.279 -10.6477,-10.8799 -1.3429,-2.5093 -0.6853,-6.0482 0.9375,-5.0453 0.5263,0.3253 1.4364,-0.3044 2.0224,-1.3994 0.6614,-1.2359 1.6602,-1.7625 2.634,-1.3888 1.1203,0.4299 1.2317,0.8101 0.3897,1.3305 -0.75,0.4635 -0.2673,0.9574 1.3268,1.3575 1.3782,0.3459 4.1291,2.2054 6.1133,4.1322 1.9841,1.9269 4.4993,3.5034 5.5893,3.5034 1.3487,0 1.9818,0.6731 1.9818,2.107 0,1.4124 0.4696,1.9268 1.4245,1.5603 0.8198,-0.3145 2.0821,0.4569 2.9734,1.8172 0.8518,1.3001 2.5404,2.6785 3.7523,3.0632 1.2119,0.3846 3.3568,1.7688 4.7664,3.0758 1.4096,1.3071 3.149,2.3765 3.8654,2.3765 1.5308,0 3.2746,1.2919 7.8575,5.8212 1.8483,1.8267 3.3674,2.9517 3.3758,2.5 0.01,-0.4517 0.4072,-0.2024 0.8863,0.5538 0.479,0.7563 2.0471,1.375 3.4846,1.375 1.4376,0 2.6138,0.5504 2.6138,1.2231 0,0.6727 1.7896,2.0302 3.977,3.0165 3.3801,1.5243 4.2228,1.5895 5.6146,0.4343 1.4105,-1.1705 1.8802,-1.0595 3.3864,0.8006 1.1878,1.4669 2.4342,1.9805 3.8854,1.601 1.8469,-0.483 2.1366,-0.1333 2.1366,2.5793 0,2.3769 0.6064,3.4144 2.5,4.2772 1.9402,0.884 2.5,1.8868 2.5,4.4785 0,3.1605 0.1908,3.3395 3.559,3.3395 2.118,0 3.3088,0.4049 2.941,1 -0.3399,0.55 -0.1415,1 0.441,1 0.5824,0 1.059,-0.3407 1.059,-0.7572 0,-1.5153 9.5353,0.033 11.9628,1.9426 2.5062,1.9713 5.2431,7.1788 4.8387,9.2063 -0.418,2.0951 2.2711,5.6083 4.2927,5.6083 1.1131,0 1.7646,0.4194 1.4478,0.9319 -0.7611,1.2315 4.4732,1.872 6.708,0.8209 0.9625,-0.4528 1.75,-1.2573 1.75,-1.788 z m -162.5411,-60.0313 c -0.9203,-1.4892 0.1467,-2.2988 2.0614,-1.5641 0.8836,0.3391 1.3264,1.0697 0.9841,1.6235 -0.8106,1.3116 -2.2151,1.2841 -3.0455,-0.059 z m -4.9589,-7.9335 c -0.3399,-0.55 0.083,-1 0.941,-1 0.8575,0 1.559,0.45 1.559,1 0,0.55 -0.4234,1 -0.941,1 -0.5175,0 -1.2191,-0.45 -1.559,-1 z m 43.5,-5 c 0,-0.55 0.45,-1 1,-1 0.55,0 1,0.45 1,1 0,0.55 -0.45,1 -1,1 -0.55,0 -1,-0.45 -1,-1 z m 82,-54 c 0,-0.55 0.45,-1 1,-1 0.55,0 1,0.45 1,1 0,0.55 -0.45,1 -1,1 -0.55,0 -1,-0.45 -1,-1 z m -47.7679,-31 c -0.8225,-1.317 -0.8822,-2 -0.1748,-2 1.7168,0 4.9427,1.9809 4.9427,3.0352 0,1.7585 -3.4974,0.9991 -4.7679,-1.0352 z m 228.9036,118.0838 c -0.7186,-0.4441 -1.2343,-1.1058 -1.1461,-1.4706 0.354,-1.4637 -0.6307,-3.0028 -1.2648,-1.9769 -0.7447,1.205 2.1747,5.7976 3.0983,4.874 0.3404,-0.3405 0.031,-0.9824 -0.6874,-1.4265 z m -104.1357,-7.0838 c 0,-0.55 -1.1515,-1 -2.559,-1 -1.4514,0 -2.2915,0.4328 -1.941,1 0.3399,0.55 1.4915,1 2.559,1 1.0676,0 1.941,-0.45 1.941,-1 z m 91,0 c 0,-0.55 -0.4596,-1 -1.0214,-1 -0.5618,0 -1.534,-1.125 -2.1605,-2.5 -0.6265,-1.375 -1.7577,-2.5 -2.5138,-2.5 -1.0462,0 -1.1289,0.4593 -0.346,1.922 2.1085,3.9397 6.0417,6.5945 6.0417,4.078 z m -97.0045,-8.25 c 0,-1.0848 -0.7557,-1.75 -1.9955,-1.75 -1.1,0 -2,0.642 -2,1.4267 0,0.7846 -0.7875,1.6201 -1.75,1.8564 -0.9625,0.2364 -0.064,0.3819 1.9955,0.3234 2.8581,-0.081 3.7466,-0.5211 3.75,-1.8565 z m -7.9955,-7.25 c 0,-0.825 -0.8734,-1.5 -1.941,-1.5 -2.326,0 -3.5863,1.6216 -1.8152,2.3356 2.3883,0.9629 3.7562,0.6586 3.7562,-0.8356 z m 21,0.1852 c 0,-1.4259 -6.8864,-5.1321 -7.8134,-4.2051 -0.7299,0.7299 4.7055,4.6461 7.5634,5.4496 0.1375,0.039 0.25,-0.5214 0.25,-1.2445 z m 80.9061,-2.2984 c -1.453,-1.7508 -2.3809,-1.0664 -1.5367,1.1335 0.3391,0.8835 1.0915,1.3129 1.6721,0.9541 0.725,-0.4481 0.6825,-1.102 -0.1354,-2.0876 z m -114.3805,-2.7445 c -1.8048,-1.3196 -1.8032,-1.3895 0.059,-2.4992 1.8843,-1.123 1.8838,-1.1662 -0.031,-2.6461 -2.5046,-1.9361 -3.4688,-0.8289 -2.833,3.253 0.3834,2.4614 1.0104,3.25 2.5839,3.25 1.995,0 2.0038,-0.054 0.2209,-1.3577 z m 10.4738,-1.7788 c 8e-4,-0.7835 -5.2458,-1.6147 -6.8394,-1.0835 -2.6945,0.8982 -0.8519,2.1642 2.8394,1.951 2.1996,-0.127 3.9996,-0.5174 4,-0.8675 z m 15.5108,-1.88 c 0.562,-0.9092 -0.8538,-2.8134 -6.8217,-9.1754 -1.9055,-2.0313 -4.7555,-2.1107 -5.4081,-0.1505 -0.5047,1.5159 8.0905,10.3424 10.0714,10.3424 0.8416,0 1.8129,-0.4574 2.1584,-1.0165 z m 143.4898,-1.3486 c 0,-0.7509 -0.8234,-2.4384 -1.8298,-3.75 -1.0063,-1.3117 -2.095,-3.1146 -2.4193,-4.0065 -0.4217,-1.16 -1.9227,-1.6483 -5.2736,-1.7155 -3.6352,-0.073 -5.2017,-0.6526 -6.9955,-2.588 -1.2712,-1.3717 -3.5872,-2.7748 -5.1465,-3.118 -1.5594,-0.3432 -3.3978,-0.7972 -4.0853,-1.009 -2.3658,-0.7289 -1.2452,1.1237 1.75,2.893 3.114,1.8395 3.2809,2.189 3.4175,7.1591 0.097,3.5145 3.0825,4.3286 3.0825,0.8404 0,-3.6559 1.1836,-3.6301 4.1523,0.091 3.1606,3.9611 4.9703,4.4344 6.9557,1.819 1.2108,-1.5951 1.3312,-1.5139 1.3602,0.9167 0.017,1.4666 0.5943,2.8936 1.2818,3.171 2.322,0.9369 3.75,0.6693 3.75,-0.7028 z m -64.1712,-2.7662 c -1.6998,-2.5601 -9.5974,-8.4334 -10.3407,-7.6901 -0.6797,0.6797 6.9129,8.0607 9.2366,8.9791 2.6246,1.0374 2.6382,1.0215 1.1041,-1.289 z m -101.8288,-0.7757 c 0,-1.005 -2.2429,-3.093 -3.3224,-3.093 -0.5074,0 -0.3786,0.6553 0.2861,1.4562 0.6647,0.8009 0.9214,1.9207 0.5705,2.4885 -0.3806,0.6159 -0.012,0.7921 0.9139,0.4369 0.8536,-0.3276 1.5519,-0.9074 1.5519,-1.2886 z m 63,0.348 c 0,-0.8575 -0.4573,-1.2764 -1.0163,-0.9309 -0.559,0.3454 -0.7574,1.047 -0.441,1.559 0.8573,1.387 1.4573,1.1284 1.4573,-0.6281 z m -72.6303,-1.691 c 1.0297,-3.8423 0.7003,-6.75 -0.7646,-6.75 -1.3156,0 -2.8151,7.4566 -1.7198,8.552 0.9954,0.9953 1.9132,0.3296 2.4844,-1.802 z m -203.8697,0.25 c -0.3399,-0.55 -1.0415,-1 -1.559,-1 -0.5175,0 -0.941,0.45 -0.941,1 0,0.55 0.7016,1 1.559,1 0.8575,0 1.2809,-0.45 0.941,-1 z m -5,-1 c -0.3399,-0.55 -1.154,-0.9931 -1.809,-0.9847 -0.7156,0.01 -0.5923,0.4022 0.309,0.9847 1.9211,1.2415 2.2673,1.2415 1.5,0 z m 351.4725,-5.3167 c -2.4504,-2.8181 -11.4857,-7.1022 -13.0023,-6.1649 -1.7393,1.075 -1.0258,2.5099 1.778,3.576 1.5115,0.5746 3.425,1.6573 4.2522,2.406 2.6864,2.4311 7.4256,4.4737 8.3154,3.5838 0.4843,-0.4842 -0.1055,-1.9772 -1.3433,-3.4009 z m -122.9725,0.2853 c 0,-1.1972 -2.8206,-2.4813 -3.6432,-1.6587 -0.8757,0.8757 0.6096,2.6901 2.2022,2.6901 0.7926,0 1.441,-0.4641 1.441,-1.0314 z m 67.5,0.031 c 0.3399,-0.55 0.1415,-1 -0.441,-1 -0.5824,0 -1.059,0.45 -1.059,1 0,0.55 0.1985,1 0.441,1 0.2425,0 0.7191,-0.45 1.059,-1 z m -57.6281,-3.1003 c -1.875,-1.1874 -3.8719,-1.119 -3.8719,0.1329 0,1.4307 4.3994,2.9934 4.8719,1.7305 0.2045,-0.5467 -0.2455,-1.3851 -1,-1.863 z m 71.1281,1.2231 c 0,-0.4826 -0.675,-1.4377 -1.5,-2.1224 -1.2165,-1.0096 -1.5,-0.9698 -1.5,0.2109 0,0.8007 0.3,1.7558 0.6667,2.1224 0.9497,0.9497 2.3333,0.8247 2.3333,-0.2109 z m -16,-1.6224 c 0,-0.825 -0.3375,-1.5005 -0.75,-1.5012 -0.4125,-7e-4 -2.1,-1.1414 -3.75,-2.535 -2.7604,-2.3313 -5.4528,-4.5669 -13.8891,-11.5323 -1.711,-1.4127 -4.6859,-3.1743 -6.6109,-3.9147 -1.925,-0.7404 -4.2104,-1.9471 -5.0787,-2.6815 -0.8683,-0.7344 -2.3308,-1.3353 -3.25,-1.3353 -0.9192,0 -1.6713,-0.405 -1.6713,-0.9 0,-1.617 7.3603,-1.0394 14,1.0987 8.6251,2.7773 16,5.9612 16,6.9075 0,0.4204 1.575,1.3339 3.5,2.03 1.925,0.696 3.5,1.6252 3.5,2.0647 0,0.4395 1.6875,0.8069 3.75,0.8164 2.6793,0.012 4.4225,0.7262 6.105,2.5 2.8812,3.0375 3.7488,3.106 4.4687,0.3528 0.3857,-1.4747 1.0619,-1.9361 2.1985,-1.5 0.9028,0.3465 2.6607,0.6299 3.9066,0.6299 1.2459,0 3.3029,0.9 4.5712,2 2.3318,2.0223 8,2.7823 8,1.0726 0,-1.7584 -5.2764,-5.0726 -8.0758,-5.0726 -1.5434,0 -3.0843,-0.45 -3.4242,-1 -0.3399,-0.55 -1.9415,-1 -3.559,-1 -1.6175,0 -2.941,-0.3907 -2.941,-0.8683 0,-0.4776 -1.9028,-1.1236 -4.2285,-1.4355 -2.3256,-0.312 -4.3913,-1.0557 -4.5903,-1.6527 -0.4968,-1.4904 -5.6312,-4.0435 -8.1315,-4.0435 -1.1273,0 -2.9497,-0.9 -4.0497,-2 -1.1947,-1.1947 -3.3333,-2 -5.3114,-2 -1.8318,0 -4.1929,-0.8212 -5.2841,-1.8378 -1.9033,-1.7732 -5.3782,-2.4395 -19.9674,-3.8287 -6.9048,-0.6574 -19.0196,1.1085 -21.8125,3.1797 -2.479,1.8383 -1.4444,4.305 2.3622,5.632 1.6573,0.5778 3.0132,1.4564 3.0132,1.9526 0,0.4962 0.48,0.9022 1.0667,0.9022 0.5867,0 2.4992,1.0728 4.25,2.3839 1.7508,1.3112 4.1958,2.6915 5.4333,3.0674 1.2375,0.3759 2.25,1.1335 2.25,1.6835 0,1.0569 -2.2025,0.566 -7.8721,-1.7546 -1.8547,-0.7591 -4.4153,-1.3802 -5.6902,-1.3802 -1.275,0 -4.9325,-1.3909 -8.1279,-3.0908 -5.3799,-2.8621 -20.3893,-6.6987 -26.3621,-6.7386 -1.3462,-0.01 -4.2477,-0.2807 -6.4477,-0.6038 -7.2809,-1.0694 -10.8052,-1.0796 -11.1663,-0.032 -0.3714,1.0771 7.3938,7.7565 13.9607,12.0085 4.2076,2.7244 10.7056,3.375 10.7056,1.0719 0,-0.7617 -1.125,-2.1221 -2.5,-3.023 -1.375,-0.901 -2.5,-2.0777 -2.5,-2.6151 0,-1.5409 4.6214,-1.138 6,0.5231 0.6847,0.825 2.3751,1.5 3.7565,1.5 3.4699,0 10.417,2.0705 12.3223,3.6725 0.8683,0.7301 2.0543,1.3275 2.6357,1.3275 0.5813,0 2.3458,0.6722 3.9212,1.4938 1.5754,0.8217 3.5768,1.4967 4.4477,1.5 0.8708,0 1.8744,0.2974 2.2303,0.6532 1.5695,1.5695 11.6066,4.2906 15.9363,4.3204 3.5411,0.024 4.75,0.4144 4.75,1.5326 0,2.5477 4.8828,1.8513 6.1243,-0.8735 1.2265,-2.6918 -0.2573,-6.6265 -2.4989,-6.6265 -0.7174,0 -1.8169,-1.125 -2.4434,-2.5 -0.6265,-1.375 -0.7627,-2.5 -0.3027,-2.5 1.297,0 14.3768,6.9347 16.6342,8.8192 7.3867,6.1664 8.7377,7.1808 9.5633,7.1808 0.5078,0 0.9232,-0.675 0.9232,-1.5 z m 83,-0.845 c 0,-1.596 -3.4149,-4.9067 -4.2253,-4.0963 -0.3097,0.3096 -2.0369,-1.4894 -3.8384,-3.9979 -1.8014,-2.5084 -3.8632,-4.5608 -4.5816,-4.5608 -0.7185,0 -2.7797,-0.8983 -4.5805,-1.9963 -1.8008,-1.0979 -4.0579,-1.9979 -5.0157,-2 -0.9578,0 -2.3036,-0.9037 -2.9905,-2.0037 -0.687,-1.1 -2.0491,-2 -3.0269,-2 -0.9778,0 -3.9697,-1.1461 -6.6487,-2.5469 -3.5571,-1.8599 -5.6227,-2.3581 -7.6587,-1.8471 l -2.788,0.6997 2.9272,2.3422 c 1.6099,1.2882 3.8845,2.3444 5.0547,2.3471 1.1701,0 2.6877,0.68 3.3724,1.505 0.6847,0.825 1.8425,1.5 2.5728,1.5 0.7303,0 1.6877,0.6406 2.1275,1.4236 0.8523,1.5172 11.7239,7.5647 13.6513,7.5937 0.6316,0.01 2.2082,1.1345 3.5034,2.5 1.4379,1.5159 3.4686,2.4827 5.2148,2.4827 1.8364,0 3.2429,0.7157 3.9302,2 1.2186,2.277 3,2.6659 3,0.655 z m -23,-4.04 c 0,-0.2117 -1.1424,-1.1335 -2.5387,-2.0484 -2.4791,-1.6244 -2.5086,-1.6153 -1.2594,0.385 1.0762,1.7232 3.7981,2.9153 3.7981,1.6634 z m -126,-1.556 c 0,-1.3504 -1.8229,-2.2865 -3.0163,-1.5489 -0.559,0.3454 -0.7574,1.047 -0.441,1.559 0.7507,1.2146 3.4573,1.2067 3.4573,-0.01 z m -252,-5.059 c 0,-0.55 -0.675,-1 -1.5,-1 -0.825,0 -1.5,0.45 -1.5,1 0,0.55 0.675,1 1.5,1 0.825,0 1.5,-0.45 1.5,-1 z m -15.75,-1.6623 c -0.6875,-0.2774 -1.8125,-0.2774 -2.5,0 -0.6875,0.2774 -0.125,0.5044 1.25,0.5044 1.375,0 1.9375,-0.227 1.25,-0.5044 z m 453.75,-4.7559 c 0,-1.845 -1.5585,-3.5818 -3.214,-3.5818 -1.1,0 -4.8168,-1.3443 -8.2596,-2.9874 -3.4428,-1.6431 -9.1321,-3.5998 -12.643,-4.3481 -3.5108,-0.7484 -8.0846,-2.3291 -10.1638,-3.5126 -2.0792,-1.1836 -5.5116,-2.1519 -7.6275,-2.1519 -2.1998,0 -4.3803,-0.6423 -5.0921,-1.5 -1.436,-1.7303 -4.5809,-1.9871 -5.53,-0.4514 -0.3813,0.6169 -1.1259,0.6911 -1.809,0.1801 -2.8064,-2.0992 -10.7899,-3.7219 -18.3276,-3.7252 -4.4917,0 -8.4323,0.2621 -8.757,0.5868 -0.3246,0.3246 -0.3059,2.0121 0.042,3.75 0.4396,2.1981 1.2026,3.1597 2.507,3.1597 1.0312,0 1.875,-0.675 1.875,-1.5 0,-1.7343 2.5577,-2.0246 3.5594,-0.4039 0.3747,0.6063 2.0767,0.8748 3.809,0.6008 1.7223,-0.2725 5.1566,-0.1196 7.6316,0.3396 2.475,0.4592 8.55,1.5891 13.5,2.511 4.95,0.9218 11.5739,2.7507 14.7198,4.0642 3.1459,1.3136 6.6069,2.3883 7.691,2.3883 1.0841,0 2.2051,0.3787 2.4912,0.8415 0.286,0.4628 4.0251,1.6159 8.309,2.5626 4.2839,0.9466 8.464,2.1165 9.289,2.5997 1.5365,0.9 6,1.33 6,0.578 z m -83,-6.9748 c 0,-0.2162 -0.6983,-0.661 -1.5519,-0.9886 -0.8899,-0.3415 -1.2913,-0.1738 -0.941,0.3931 0.5873,0.9502 2.4929,1.4054 2.4929,0.5955 z m -5,-3.6384 c 0,-1.1972 -2.8206,-2.4813 -3.6432,-1.6587 -0.8757,0.8757 0.6096,2.6901 2.2022,2.6901 0.7926,0 1.441,-0.4641 1.441,-1.0314 z m 19,-1.5756 c 0,-0.2161 -0.9265,-0.393 -2.059,-0.393 -1.1325,0 -1.793,0.4303 -1.468,0.9563 0.5336,0.8634 3.527,0.3853 3.527,-0.5633 z m -159,-14.393 c 0,-0.55 -0.9265,-1 -2.059,-1 -1.1325,0 -1.7809,0.45 -1.441,1 0.3399,0.55 1.2665,1 2.059,1 0.7926,0 1.441,-0.45 1.441,-1 z m -286.665,-46.1807 c 0.3365,-2.8414 1.0738,-5.6281 1.6384,-6.1927 0.5647,-0.5646 1.0266,-2.2348 1.0266,-3.7116 0,-1.8297 0.8761,-3.2536 2.75,-4.4701 1.5125,-0.9818 3.3835,-2.6734 4.1577,-3.7591 0.7742,-1.0858 3.3617,-4.1742 5.75,-6.8633 2.3883,-2.6891 4.3423,-5.5117 4.3423,-6.2725 0,-0.7609 0.5625,-1.6 1.25,-1.8647 0.6875,-0.2648 0.125,-0.4246 -1.25,-0.3552 -2.2579,0.1141 -7.9534,4.691 -8.0318,6.4544 -0.017,0.3935 -0.6925,1.589 -1.5,2.6566 -1.4533,1.9215 -1.4831,1.9215 -2.9492,0 -1.2819,-1.6801 -1.6159,-1.7394 -2.4847,-0.4411 -0.552,0.825 -1.0105,2.5125 -1.019,3.75 -0.01,1.2375 -0.4592,2.25 -1.0019,2.25 -2.6712,0 -5.8277,12.7384 -6.5665,26.5 l -0.4295,8 1.8529,-5.2573 c 1.0191,-2.8915 2.1282,-7.5821 2.4647,-10.4234 z m -91.335,6.1807 c 0,-0.55 -0.1984,-1 -0.441,-1 -0.2425,0 -0.7191,0.45 -1.059,1 -0.3399,0.55 -0.1415,1 0.441,1 0.5825,0 1.059,-0.45 1.059,-1 z m 46.1389,-15 c 8.1362,-9.7122 14.9601,-19 13.9596,-19 -0.4865,0 -1.1435,0.675 -1.4601,1.5 -0.3166,0.825 -1.1522,1.5007 -1.857,1.5016 -1.7472,0 -7.1584,5.9264 -14.0426,15.3737 -8.9578,12.2928 -6.7191,12.7041 3.4001,0.6247 z m 13.9919,2.4528 c 0.8969,-1.9152 1.3439,-3.6594 0.9934,-3.876 -0.3505,-0.2167 -1.3884,1.3649 -2.3065,3.5146 -2.0656,4.8369 -0.9293,5.1495 1.3131,0.3614 z m -83.895,-6.3966 c 2.1148,-4.0224 3.6731,-7.8181 3.4629,-8.4349 -0.4249,-1.2463 -7.0161,8.5904 -8.127,12.1287 -0.3886,1.2375 -1.1527,2.25 -1.6981,2.25 -0.5454,0 -0.6988,0.4738 -0.341,1.0528 1.2355,1.9989 2.8718,0.291 6.7032,-6.9966 z m 33.2642,5.9438 c 0.3399,-0.55 1.5105,-1 2.6012,-1 1.0908,0 2.6493,-0.5625 3.4633,-1.25 2.2198,-1.8748 11.9351,-11.8406 14.7885,-15.1699 2.698,-3.1477 4.0256,-6.5801 2.5453,-6.5801 -1.394,0 -26.5709,24.9437 -25.2073,24.9737 0.655,0.014 1.4691,-0.4237 1.809,-0.9737 z m 60.5497,-11.5257 c 1.6227,-0.8391 2.9503,-1.9641 2.9503,-2.5 0,-0.5359 0.432,-0.9743 0.96,-0.9743 1.3045,0 10.6034,-10.0704 10.29,-11.1437 -0.1375,-0.471 0.2076,-0.8563 0.7668,-0.8563 1.3762,0 9.9832,-9.0632 9.9832,-10.5122 0,-2.8679 -1.7262,-2.1878 -5.946,2.3426 -2.5047,2.689 -5.492,5.1839 -6.6385,5.5442 -1.1465,0.3603 -3.6215,2.5163 -5.5,4.7911 -1.8785,2.2748 -4.3289,5.0806 -5.4453,6.2352 -2.5672,2.6548 -5.4702,6.8057 -5.4702,7.8216 0,1.1095 0.7116,0.978 4.0497,-0.7482 z m -72.4078,-15.7603 c 2.672,-2.3572 6.0956,-5.0676 7.6081,-6.023 1.5125,-0.9554 2.75,-2.2075 2.75,-2.7823 0,-0.5749 3.4211,-4.3895 7.6025,-8.477 4.1814,-4.0874 7.2189,-7.4275 6.75,-7.4223 -1.534,0.017 -10.7758,5.8195 -14.238,8.9396 -1.862,1.6781 -3.6966,3.051 -4.0768,3.051 -0.3802,0 -2.9067,2.0672 -5.6144,4.5937 -2.7078,2.5266 -6.5812,5.7168 -8.6076,7.0894 -4.2003,2.8452 -4.1151,5.3169 0.1832,5.3169 1.8576,0 4.4024,-1.427 7.643,-4.286 z m 53.3581,2.286 c 0,-0.55 -0.4234,-1 -0.941,-1 -0.5175,0 -1.2191,0.45 -1.559,1 -0.3399,0.55 0.083,1 0.941,1 0.8575,0 1.559,-0.45 1.559,-1 z m -14,-1 c 0,-0.55 -0.1984,-1 -0.441,-1 -0.2425,0 -0.7191,0.45 -1.059,1 -0.3399,0.55 -0.1415,1 0.441,1 0.5825,0 1.059,-0.45 1.059,-1 z m 4.4156,-4.6407 c 0.3137,-0.8173 0.9633,-1.2432 1.4437,-0.9463 0.4804,0.2969 1.6411,-0.3084 2.5794,-1.3452 0.9382,-1.0368 3.0234,-2.4308 4.6336,-3.0977 1.6103,-0.667 2.9277,-1.6081 2.9277,-2.0914 0,-1.197 -1.7373,-1.1127 -2.5,0.1213 -0.3399,0.55 -1.2854,1 -2.1012,1 -0.8158,0 -2.1384,0.5625 -2.9392,1.25 -3.7667,3.2338 -7.4596,6.8117 -7.4596,7.2273 0,1.045 2.8894,-0.7467 3.4156,-2.118 z m 74.5844,1.6407 c 0,-0.55 -0.675,-1 -1.5,-1 -0.825,0 -1.5,0.45 -1.5,1 0,0.55 0.675,1 1.5,1 0.825,0 1.5,-0.45 1.5,-1 z m -59,-1 c 0,-0.55 -0.4234,-1 -0.941,-1 -0.5175,0 -1.2191,0.45 -1.559,1 -0.3399,0.55 0.083,1 0.941,1 0.8575,0 1.559,-0.45 1.559,-1 z m 4,-3.059 c 0,-0.5176 -0.45,-0.941 -1,-0.941 -0.55,0 -1,0.7016 -1,1.559 0,0.8575 0.45,1.2809 1,0.941 0.55,-0.3399 1,-1.0415 1,-1.559 z m 58,1.059 c 1.2927,-0.8354 1.2663,-0.9715 -0.191,-0.9847 -0.93,-0.01 -1.9691,0.4347 -2.309,0.9847 -0.7822,1.2656 0.5417,1.2656 2.5,0 z m -46,-4 c 2.0833,-1.65 4.2856,-3 4.8939,-3 0.6084,0 1.1061,-0.3812 1.1061,-0.8472 0,-0.4659 1.0125,-1.3355 2.25,-1.9323 1.3848,-0.6679 1.6732,-1.1074 0.75,-1.1431 -2.5024,-0.097 -11.9916,4.7372 -12.6457,6.4418 -0.3368,0.8777 -1.2293,1.359 -1.9833,1.0697 -0.754,-0.2894 -1.371,-0.1278 -1.371,0.3592 0,0.737 1.2848,1.6246 2.8561,1.973 0.1959,0.043 2.0606,-1.2711 4.1439,-2.9211 z m -81.5,0 c 0.3399,-0.55 0.1681,-1 -0.3819,-1 -0.55,0 -1.2782,0.45 -1.6181,1 -0.3399,0.55 -0.168,1 0.382,1 0.55,0 1.2781,-0.45 1.618,-1 z m 52.95,-10.1291 c 1.5661,-1.4356 -1.7122,-0.9401 -4.45,0.6727 l -2.5,1.4727 3,-0.6373 c 1.65,-0.3505 3.4275,-1.0291 3.95,-1.5081 z m -64.9571,-22.8594 c 0.3504,-0.5669 -0.051,-0.7346 -0.9409,-0.3931 -1.7325,0.6648 -2.0494,1.3816 -0.611,1.3816 0.5175,0 1.2159,-0.4448 1.5519,-0.9885 z m 608.5071,-160.07051 c 0,-0.51754 -0.675,-0.94098 -1.5,-0.94098 -1.5464,0 -1.9867,1.17996 -0.8605,2.30615 0.7989,0.79893 2.3605,-0.10419 2.3605,-1.36517 z m 5.7284,-1.62616 c 0.3483,-1.04475 -3.729,-2.64754 -4.5772,-1.79932 -0.2399,0.23989 0.1455,1.13703 0.8564,1.99364 1.3728,1.65413 3.1354,1.56208 3.7208,-0.19432 z m 3.2716,-6.7558 c 0,-1.05548 -1.9191,-1.49891 -2.4899,-0.57533 -0.3455,0.55897 0.073,1.01631 0.9309,1.01631 0.8575,0 1.559,-0.19844 1.559,-0.44098 z m 15,-9.55902 c 0,-3.9118 -1.4675,-3.90971 -1.6065,0.002 -0.059,1.64875 0.279,2.99772 0.75,2.99772 0.4711,0 0.8565,-1.35 0.8565,-3 z m -15.531,1.05017 c 0.7991,-1.29302 -3.2531,-3.34699 -5.1597,-2.61534 -1.2386,0.47527 -1.2963,0.87585 -0.2995,2.077 1.3874,1.67162 4.5651,1.98499 5.4592,0.53834 z m 20.5021,-5.01111 c 1.7016,-1.07617 1.3897,-1.52601 -1.7211,-2.48222 -2.4199,-0.74386 -2.5752,-0.56796 -1.643,1.86137 0.6955,1.81247 1.3027,1.92452 3.3641,0.62085 z m 7.0289,-2.03906 c 0,-1.1 -0.45,-2 -1,-2 -0.55,0 -1,0.9 -1,2 0,1.1 0.45,2 1,2 0.55,0 1,-0.9 1,-2 z m -29.0969,-1.38322 c 0.8796,-1.05988 0.8199,-1.50912 -0.2557,-1.92185 -1.4054,-0.53929 -3.6474,1.00057 -3.6474,2.50507 0,1.30747 2.6644,0.90934 3.9031,-0.58322 z m -1.9031,-6.41383 c 0,-2.16053 6.2546,-8.35606 10.6866,-10.58565 3.8651,-1.94443 4.904,-3.42668 3.4329,-4.89784 -0.8084,-0.80837 -1.8721,-0.37259 -3.9501,1.61823 -1.6443,1.57536 -3.4775,2.4813 -4.3463,2.1479 -0.8265,-0.31714 -2.0798,0.11887 -2.7853,0.9689 -0.7055,0.85003 -1.8214,1.54551 -2.4799,1.54551 -1.1226,0 -4.2279,3.03906 -5.9463,5.81954 -0.465,0.75238 0.1465,1.99526 1.5621,3.17513 2.922,2.43521 3.8263,2.48444 3.8263,0.20828 z m 39.5,0.79705 c 0.3399,-0.55 1.8065,-1 3.259,-1 4.5782,0 0.6563,-2.31981 -4.9461,-2.92569 -0.3779,-0.0409 -0.4741,-1.53681 -0.2137,-3.32431 0.2603,-1.7875 0.01,-3.925 -0.5629,-4.75 -1.7303,-2.50467 -2.9735,0.64364 -1.8544,4.69646 0.7394,2.6781 0.5968,3.99236 -0.6378,5.87656 -1.5601,2.3811 -1.5342,2.42698 1.3739,2.42698 1.6302,0 3.2421,-0.45 3.582,-1 z m 15.7872,-5.11287 c -1.6878,-1.6878 -3.6935,-0.0816 -2.1781,1.74428 0.8368,1.0083 1.5254,1.13415 2.2485,0.41097 0.7232,-0.72317 0.7016,-1.38317 -0.07,-2.15525 z m 8.0442,-2.70078 c 1.1789,-1.30266 1.3359,-2.11903 0.5575,-2.89752 -1.3059,-1.30581 -6.8726,1.49368 -6.8826,3.46117 -0.01,1.8937 4.4618,1.49524 6.3251,-0.56365 z m -41.4867,-9.7901 c 1.2639,-0.88528 2.0496,-2.22927 1.7539,-3 -0.3726,-0.971 0.2442,-1.39625 2.0251,-1.39625 1.4085,0 3.705,-0.9 5.1035,-2 1.3984,-1.1 3.1569,-2 3.9077,-2 0.7508,0 1.3651,-0.70532 1.3651,-1.56739 0,-1.75907 -2.9991,-1.20207 -6.4725,1.20209 -1.0849,0.75091 -2.5274,1.3653 -3.2056,1.3653 -0.6782,0 -2.8429,1.09244 -4.8104,2.42764 -1.9675,1.3352 -4.0935,2.59969 -4.7243,2.80997 -1.5019,0.50064 -0.2371,3.76239 1.4589,3.76239 0.7199,0 2.3393,-0.72169 3.5986,-1.60375 z m -31.3391,-4.40238 c 0.9985,-1.10337 1.521,-2.30061 1.1611,-2.66054 -0.7292,-0.72923 -4.6667,2.49524 -4.6667,3.82166 0,1.45986 1.6189,0.92367 3.5056,-1.16112 z m 9.9944,-5.99387 c -0.3399,-0.55 -1.068,-1 -1.618,-1 -0.55,0 -0.7219,0.45 -0.382,1 0.3399,0.55 1.0681,1 1.6181,1 0.55,0 0.7218,-0.45 0.3819,-1 z m 5.5,-1.525 c 0,-0.90388 1.2569,-1.77638 3.086,-2.14219 1.6972,-0.33945 3.3204,-1.2282 3.607,-1.975 0.2865,-0.7468 1.7104,-1.3647 3.164,-1.37312 2.0738,-0.012 2.3199,-0.22411 1.143,-0.98469 -1.0849,-0.70111 -0.1854,-0.97361 3.25,-0.98469 3.5488,-0.0114 4.75,-0.39465 4.75,-1.51531 0,-0.825 0.4641,-1.5 1.0314,-1.5 0.5673,0 1.3296,-0.7875 1.6941,-1.75 0.9907,-2.61647 2.6725,-4.02115 5.3623,-4.47881 2.3716,-0.40353 2.3646,-0.42404 -0.4148,-1.21856 -1.6672,-0.47656 -3.7186,-0.38263 -5,0.22895 -1.1951,0.57038 -2.848,1.30001 -3.673,1.62138 -0.825,0.32137 -2.4,1.10814 -3.5,1.74837 -3.9896,2.3221 -5.0263,2.87167 -6.5,3.44571 -0.825,0.32137 -2.4,0.96523 -3.5,1.43079 -1.1,0.46556 -2.9404,1.10721 -4.0899,1.42589 -1.1494,0.31868 -2.6879,1.69696 -3.4189,3.06285 -0.731,1.36589 -1.7719,2.48343 -2.3132,2.48343 -0.5412,0 0.054,0.9 1.322,2 2.7582,2.39219 4,2.53965 4,0.475 z m -352,-15.975 c 0,-0.825 -0.45,-1.5 -1,-1.5 -0.55,0 -1,0.675 -1,1.5 0,0.825 0.45,1.5 1,1.5 0.55,0 1,-0.675 1,-1.5 z m 387.1736,-2.67361 c 1.7686,-1.76852 1.7453,-1.82639 -0.7326,-1.82639 -1.4075,0 -2.31,0.40285 -2.0057,0.89522 0.3043,0.49236 -0.1192,1.15324 -0.941,1.46861 -0.8219,0.31537 -1.4943,1.0234 -1.4943,1.5734 0,1.3399 2.9103,0.1525 5.1736,-2.11084 z m 32.1881,0.67361 c 0.3165,-0.825 0.1397,-1.5 -0.3931,-1.5 -0.5327,0 -0.9686,0.675 -0.9686,1.5 0,0.825 0.1769,1.5 0.393,1.5 0.2162,0 0.6521,-0.675 0.9687,-1.5 z m -372.3617,-0.94098 c 0,-1.05548 -1.9191,-1.49891 -2.4899,-0.57533 -0.3455,0.55897 0.073,1.01631 0.9309,1.01631 0.8575,0 1.559,-0.19844 1.559,-0.44098 z m -35.2367,-5.9639 c 0.639,-2.3891 2.661,-6.31286 4.4933,-8.71947 4.5554,-5.98334 5.0427,-6.87565 3.7547,-6.87565 -1.3417,0 -5.8717,4.7341 -7.1766,7.5 -0.5189,1.1 -1.7974,3.575 -2.8411,5.5 -2.238,4.12802 -2.615,8.1757 -0.6928,7.43808 0.7154,-0.27453 1.8236,-2.45386 2.4625,-4.84296 z m -6.7633,-3.92979 c 0,-1.62034 -0.2376,-1.713 -1.5659,-0.61061 -1.8758,1.55677 -4.4502,6.32985 -4.3934,8.14562 0.064,2.05086 5.9593,-5.40306 5.9593,-7.53501 z m 40,6.39369 c 0,-0.51754 -0.45,-1.2191 -1,-1.55902 -0.55,-0.33992 -1,0.0835 -1,0.94098 0,0.85746 0.45,1.55902 1,1.55902 0.55,0 1,-0.42344 1,-0.94098 z m 86.565,-2.16417 c 0.4846,-0.78412 0.091,-0.78107 -1.3886,0.0108 -1.1357,0.60783 -2.3694,1.59762 -2.7414,2.19954 -0.4846,0.78412 -0.091,0.78107 1.3887,-0.0108 1.1357,-0.60783 2.3693,-1.59762 2.7413,-2.19954 z m -38.7423,-3.22421 c 0.225,-1.16012 -0.1533,-1.48098 -1.25,-1.06014 -1.8487,0.70939 -2.1613,3.75217 -0.3227,3.13997 0.6875,-0.22891 1.3952,-1.16483 1.5727,-2.07983 z m 44.6303,0.16884 c 3.1476,-1.43415 3.3713,-3.29363 0.297,-2.46977 -1.2375,0.33164 -2.5393,0.60913 -2.893,0.61664 -1.0266,0.0218 -1.8929,3.01365 -0.8726,3.01365 0.5068,0 2.0677,-0.52223 3.4686,-1.16052 z m 169.3539,-2.36594 c -0.3079,-0.30789 -0.8671,0.24711 -1.2426,1.23333 -0.5427,1.4252 -0.4278,1.54006 0.5598,0.5598 0.6834,-0.67834 0.9907,-1.48524 0.6828,-1.79313 z m -243.8069,0.52646 c 0,-0.55 -0.1984,-1 -0.441,-1 -0.2425,0 -0.7191,0.45 -1.059,1 -0.3399,0.55 -0.1415,1 0.441,1 0.5825,0 1.059,-0.45 1.059,-1 z m -15.1875,-2.9375 c 0.25,-0.75 -0.125,-1.125 -0.875,-0.875 -0.7219,0.24063 -1.5093,1.02813 -1.75,1.75 -0.25,0.75 0.125,1.125 0.875,0.875 0.7219,-0.24063 1.5094,-1.02813 1.75,-1.75 z m 98.1875,-0.0491 c 0,-0.54262 1.4804,-1.60511 3.2897,-2.36109 1.8093,-0.75598 3.9468,-2.02098 4.75,-2.81112 0.8032,-0.79013 4.006,-3.11864 7.1174,-5.17445 3.1114,-2.05582 6.2614,-4.4715 7,-5.36818 1.2043,-1.46208 1.039,-1.5546 -1.6017,-0.89655 -5.8903,1.4678 -9.2431,3.42685 -16.3303,9.54172 -7.2394,6.24625 -8.5256,8.05625 -5.7251,8.05625 0.825,0 1.5,-0.44396 1.5,-0.98658 z m -138.0153,-3.26342 c 0.01,-0.4125 -0.4347,-0.75 -0.9847,-0.75 -0.55,0 -0.9931,1.0125 -0.9847,2.25 0.012,1.81944 0.2009,1.96296 0.9847,0.75 0.5332,-0.825 0.9763,-1.8375 0.9847,-2.25 z m -4.0188,-3.45779 c 1.9759,-2.30773 1.0197,-3.37506 -1.4234,-1.58889 -2.8191,2.06107 -3.8374,4.01045 -2.8931,5.53841 0.4094,0.66235 1.1495,0.34652 1.9692,-0.84024 0.7223,-1.04582 1.7786,-2.445 2.3473,-3.10928 z m 69.0341,0.0854 c 0,-1.3288 -0.2715,-1.39713 -1.5,-0.37756 -0.825,0.68469 -1.5,1.41479 -1.5,1.62244 0,0.20766 0.675,0.37756 1.5,0.37756 0.825,0 1.5,-0.7301 1.5,-1.62244 z m 53.0957,-0.9929 c 1.1599,-1.39754 1.0865,-1.56608 -0.5446,-1.25 -1.037,0.20094 -2.0726,0.92784 -2.3015,1.61534 -0.594,1.78389 1.2599,1.54592 2.8461,-0.36534 z m -72.6775,0.008 c 1.5554,-0.59685 2.2969,-5.39904 0.8318,-5.38669 -0.4125,0.003 -1.5165,1.35348 -2.4535,3 -1.7043,2.99518 -1.3444,3.5249 1.6217,2.38669 z m 36.8865,-1.45016 c 0.4414,-1.68797 0.2829,-1.84546 -0.8833,-0.87756 -1.5909,1.32028 -1.8868,2.93471 -0.538,2.93471 0.4858,0 1.1254,-0.92572 1.4213,-2.05715 z m -21.5338,-0.755 c 0.2177,-0.65313 -0.3167,-1.1875 -1.1875,-1.1875 -0.8709,0 -1.5834,0.7125 -1.5834,1.58333 0,1.76593 2.1528,1.45839 2.7709,-0.39583 z m -6.7709,-0.6875 c 0,-0.825 -0.45,-1.5 -1,-1.5 -0.55,0 -1,0.675 -1,1.5 0,0.825 0.45,1.5 1,1.5 0.55,0 1,-0.675 1,-1.5 z m 14,0.5 c 0,-0.55 -0.45,-1 -1,-1 -0.55,0 -1,0.45 -1,1 0,0.55 0.45,1 1,1 0.55,0 1,-0.45 1,-1 z m 7.1897,-2.74168 c 0.3517,-4.24066 3.0767,-5.64383 5.2332,-2.6947 1.314,1.79699 2.9779,0.65686 1.7611,-1.20673 -0.8407,-1.28766 -7.4805,-2.42512 -8.8575,-1.51738 -1.593,1.05017 -2.315,5.31347 -1.24,7.32216 1.5537,2.90302 2.7662,2.15932 3.1032,-1.90335 z m -88.6897,0.90835 c 0,-1.80866 -1.9573,-1.47847 -2.3455,0.39568 -0.216,1.04271 0.1589,1.49986 1,1.21948 0.74,-0.24667 1.3455,-0.9735 1.3455,-1.61516 z m 108.0808,-2.9192 c -1.0893,-1.08936 -1.5028,0.33508 -0.8116,2.7962 l 0.6898,2.45633 0.3513,-2.33586 c 0.1932,-1.28473 0.09,-2.59723 -0.2295,-2.91667 z m -54.1159,1.16577 c 0.9322,-1.42272 1.4446,-2.83713 1.1386,-3.14313 -0.306,-0.306 -0.8401,0.18304 -1.1869,1.08676 -0.3468,0.90372 -1.4824,1.64313 -2.5236,1.64313 -1.0411,0 -1.893,0.675 -1.893,1.5 0,2.37941 2.61,1.74413 4.4649,-1.08676 z m 75.5351,1.58676 c 0,-0.55 -0.4765,-1 -1.059,-1 -0.5825,0 -0.7809,0.45 -0.441,1 0.3399,0.55 0.8165,1 1.059,1 0.2426,0 0.441,-0.45 0.441,-1 z m 7.1642,-0.87882 c 0.8848,-1.03335 2.2223,-2.09674 2.9723,-2.36309 0.7499,-0.26636 1.0253,-0.84657 0.612,-1.28936 -1.1005,-1.17896 -5.499,1.46943 -6.0706,3.65517 -0.6273,2.39868 0.4312,2.39753 2.4863,-0.003 z m 16.9559,-2.24616 c 2.1798,-2.26874 3.6951,-4.39321 3.3672,-4.72104 -0.3278,-0.32783 -0.9091,-0.13741 -1.2916,0.42316 -0.3826,0.56057 -2.1582,2.04068 -3.9457,3.28913 -1.7875,1.24846 -3.25,2.91428 -3.25,3.70182 0,2.20621 0.8347,1.76719 5.1201,-2.69307 z m -74.1201,0.7852 c 0,-0.67196 -1.4625,-1.84811 -3.25,-2.61367 -1.7875,-0.76555 -3.5875,-1.57671 -4,-1.80257 -0.4125,-0.22585 -0.7326,0.18935 -0.7115,0.92269 0.043,1.48687 6.0364,5.73624 7.2115,5.11303 0.4125,-0.21875 0.75,-0.94752 0.75,-1.61948 z m 44,1.33978 c 0,-0.55 -0.45,-1 -1,-1 -0.55,0 -1,0.45 -1,1 0,0.55 0.45,1 1,1 0.55,0 1,-0.45 1,-1 z m -79,-1.53138 c 0,-0.84227 -0.675,-1.79041 -1.5,-2.10699 -0.825,-0.31659 -1.5,-1.17116 -1.5,-1.89907 0,-0.7279 -0.994,-1.46726 -2.209,-1.64301 -1.3565,-0.19623 -2.4758,-1.28437 -2.9003,-2.81955 -0.8833,-3.19418 -1.117,-2.6094 -1.2988,3.25 -0.1197,3.85584 0.1715,4.75 1.547,4.75 0.932,0 1.853,-0.47575 2.0469,-1.05723 0.4937,-1.48107 3.8142,-0.0323 3.8142,1.66422 0,0.76615 0.45,1.39301 1,1.39301 0.55,0 1,-0.68912 1,-1.53138 z m 73,0.53138 c 0,-0.55 -0.675,-1 -1.5,-1 -0.825,0 -1.5,0.45 -1.5,1 0,0.55 0.675,1 1.5,1 0.825,0 1.5,-0.45 1.5,-1 z m -50.1545,-2.44803 c 0.221,-1.14002 -0.1393,-1.62085 -1,-1.33427 -0.74,0.24642 -1.501,1.25007 -1.691,2.23033 -0.221,1.14002 0.1394,1.62085 1,1.33427 0.74,-0.24642 1.501,-1.25007 1.691,-2.23033 z m 144.1092,-0.99737 c 1.5471,-1.86414 0.2007,-2.03814 -3.3285,-0.43014 -1.4389,0.6556 -2.2507,1.69036 -1.9471,2.48168 0.5891,1.53505 3.1138,0.55324 5.2756,-2.05154 z m -65.5768,-2.06802 c 1.9922,-0.83238 3.6221,-1.89578 3.6221,-2.36311 0,-1.2357 10.7192,-4.41504 12.0703,-3.58006 0.8273,0.51135 0.7683,0.97 -0.2135,1.65988 -2.0946,1.47172 2.686,0.34531 9.6432,-2.27213 5.4932,-2.06665 11.8622,-7.06349 11.9599,-9.38333 0.022,-0.52369 2.0288,-1.43636 4.4593,-2.02816 3.5511,-0.86462 4.4527,-1.53047 4.5897,-3.38971 0.094,-1.27255 0.8051,-2.71549 1.5808,-3.20653 1.7966,-1.13732 6.9957,-1.15551 8.771,-0.0307 0.7484,0.47417 2.2489,0.62985 3.3346,0.34595 1.4283,-0.37351 1.6244,-0.73209 0.7096,-1.29746 -2.1316,-1.31742 -1.8346,-3.75726 0.6561,-5.3892 2.6441,-1.73253 9.439,-2.11621 9.439,-0.53298 0,0.59111 1.1549,0.76601 2.75,0.41648 5.4532,-1.19489 5.6031,-1.30523 4.1504,-3.05558 -1.1215,-1.35126 -1.0316,-1.8108 0.5849,-2.99285 1.0504,-0.76806 2.6507,-1.16132 3.5563,-0.87391 0.9655,0.30643 3.0552,-0.71902 5.0524,-2.47934 1.8733,-1.65105 4.081,-3.0234 4.906,-3.04968 1.9227,-0.0612 5,-2.38452 5,-3.77486 0,-0.62259 1.9867,-1.03285 4.75,-0.9809 6.4195,0.12068 15.3797,-1.09113 16.8032,-2.27252 0.6383,-0.52973 2.5749,-0.68027 4.3037,-0.33452 3.0633,0.61267 4.5737,-0.92036 1.8931,-1.92161 -0.7818,-0.29203 -0.5009,-0.72482 0.75,-1.15549 1.1,-0.37871 2.675,-1.10937 3.5,-1.62368 4.9432,-3.08159 6.1744,-3.36042 7.1489,-1.61905 0.9728,1.73826 4.9631,1.50748 7.4428,-0.43046 0.6004,-0.46923 3.8266,-1.72686 7.1694,-2.79474 3.3427,-1.06788 7.5765,-2.74055 9.4083,-3.71705 3.5191,-1.87594 3.9685,-2.03553 6.2917,-2.23429 0.8035,-0.0688 2.3534,-1.08281 3.444,-2.25347 1.2559,-1.34802 2.6065,-1.88919 3.6836,-1.47589 0.9987,0.38325 2.4905,-0.0623 3.6145,-1.07949 1.4591,-1.32046 2.3159,-1.47741 3.6054,-0.66044 1.9914,1.26169 7.6681,-0.43482 12.1619,-3.63466 3.1612,-2.251 5.6678,-2.60633 6.2416,-0.88481 0.2723,0.81682 0.9282,0.8398 2.3333,0.0817 5.8656,-3.16453 12.1957,-5.34717 17.6852,-6.09792 3.3977,-0.46467 6.3483,-1.35676 6.5569,-1.98244 0.2086,-0.62567 1.6651,-1.13759 3.2368,-1.13759 1.5717,0 3.1358,-0.45 3.4757,-1 0.3399,-0.55 1.379,-1.00277 2.309,-1.00616 0.9301,-0.003 2.98,-0.67839 4.5553,-1.5 1.5754,-0.82161 3.4879,-1.49384 4.25,-1.49384 0.7622,0 1.3857,-0.675 1.3857,-1.5 0,-0.93333 0.9445,-1.5 2.5,-1.5 1.5556,0 2.5,0.56667 2.5,1.5 0,1.91073 1.4381,1.9191 3.3378,0.0194 0.8143,-0.81432 3.9602,-1.77202 6.9908,-2.12821 3.8899,-0.45718 5.3656,-1.02461 5.0183,-1.92964 -0.583,-1.51928 -8.043,-2.45196 -21.7189,-2.71543 l -9.8721,-0.19018 -1.5198,-3.18708 c -0.8359,-1.75289 -1.2679,-3.84346 -0.9601,-4.6457 0.7471,-1.94676 5.6307,-2.79841 7.9044,-1.37844 1.3755,0.859 2.3045,0.83357 3.8061,-0.10418 2.3893,-1.49219 4.7235,-1.60617 5.1802,-0.25296 0.1955,0.57928 1.5677,0.34653 3.3189,-0.56293 1.6421,-0.85279 4.5671,-1.45931 6.5,-1.34782 6.3742,0.36767 9.4737,-0.0176 8.442,-1.04925 -0.5348,-0.53482 -3.8873,-1.15277 -7.45,-1.37321 -3.5627,-0.22045 -7.3083,-0.74761 -8.3237,-1.17147 -2.4246,-1.01214 -33.3686,0.29405 -35.6294,1.50396 -0.9622,0.51501 -4.4978,1.09003 -7.8568,1.27782 -3.3589,0.18779 -6.4208,0.65506 -6.8041,1.03837 -0.3833,0.38332 -3.0455,0.69694 -5.9159,0.69694 -2.8705,0 -6.508,0.67223 -8.0834,1.49384 -1.7564,0.91601 -5.6272,1.49622 -10.0073,1.5 -5.4228,0.005 -7.2816,0.36741 -7.7186,1.50616 -0.7973,2.07774 -6.596,1.94023 -8.1562,-0.19342 -1.1613,-1.58818 -1.343,-1.58866 -2.924,-0.008 -0.9271,0.92716 -1.4054,2.1392 -1.0629,2.69342 0.5598,0.90578 -0.7466,1.44167 -2.7453,1.12609 -0.4125,-0.0648 -1.65,0.78194 -2.75,1.88194 -1.1,1.1 -3.1038,2 -4.4529,2 -2.3318,0 -4.0222,0.54814 -11.1361,3.61105 -1.6989,0.73149 -4.8302,1.54595 -6.9583,1.8099 -2.1281,0.26395 -4.5631,1.33272 -5.411,2.37505 -2.4856,3.05551 -11.0027,7.204 -14.7901,7.204 -2.8965,0 -3.2955,-0.2421 -2.3255,-1.41097 1.6107,-1.94074 -0.014,-2.72138 -4.004,-1.92345 -3.0617,0.61234 -3.1318,0.7127 -1.0384,1.48708 2.6257,0.97132 1.7819,3.25467 -0.9397,2.54294 -1.0067,-0.26326 -2.5565,0.32373 -3.444,1.3044 -0.9384,1.03696 -2.4267,1.57042 -3.5568,1.27489 -1.0687,-0.27948 -1.9432,-0.006 -1.9432,0.60848 0,0.61415 -0.9,1.11663 -2,1.11663 -2.802,0 -2.5695,-3.16968 0.5,-6.81763 1.375,-1.6341 2.5,-3.36038 2.5,-3.83618 0,-1.97103 -4.0592,-3.29982 -8.3033,-2.7181 -3.9575,0.54244 -4.3321,0.82841 -3.9185,2.99159 0.8886,4.64889 -4.0921,7.40927 -5.6704,3.1426 -0.9911,-2.6793 0.1996,-5.11873 4.521,-9.26228 3.9488,-3.78619 4.5165,-5.53423 2.5351,-7.80594 -1.2925,-1.48187 -1.3527,-2.16209 -0.3356,-3.79068 1.248,-1.99832 0.8302,-3.90338 -0.8559,-3.90338 -0.5003,0 -0.6506,0.675 -0.334,1.5 0.3645,0.94984 -0.014,1.5 -1.0314,1.5 -2.1725,0 -2.0303,-2.19309 0.27,-4.16261 1.1423,-0.9781 2.9035,-1.41084 4.5,-1.10566 2.9569,0.56524 3.3101,-0.44114 1.1548,-3.2906 -0.8075,-1.06762 -1.4825,-2.73244 -1.5,-3.6996 -0.027,-1.48468 0.267,-1.5719 1.887,-0.56017 2.4789,1.54806 5.0812,-0.40008 5.0812,-3.8038 0,-2.812 -0.1883,-2.84864 -4.1399,-0.80521 -1.6723,0.8648 -3.7166,1.31294 -4.5429,0.99588 -0.9588,-0.36795 -1.6918,0.14848 -2.0263,1.42764 -0.2883,1.10227 -1.1467,2.00413 -1.9075,2.00413 -1.5581,0 -1.863,-1.58554 -0.4704,-2.44622 0.5022,-0.31034 1.2229,-2.3983 1.6016,-4.6399 0.395,-2.33839 1.9489,-5.51114 3.6455,-7.4434 1.6263,-1.85227 2.9166,-3.72837 2.8673,-4.16912 -0.049,-0.44075 0.9982,-0.9388 2.3276,-1.10679 1.7708,-0.22375 2.5749,-1.09413 3.0071,-3.25481 0.6876,-3.43794 0.5121,-4.35774 -0.8621,-4.51829 -0.55,-0.0643 -1.675,-0.19539 -2.5,-0.29139 -1.0736,-0.12494 -0.7894,-0.73667 1,-2.15232 l 2.5,-1.97776 -2.2115,-1.75 c -1.2163,-0.9625 -3.2961,-3.80278 -4.6218,-6.31174 l -2.4102,-4.56175 2.4731,-2.20288 c 1.7304,-1.54128 2.2468,-2.72408 1.7194,-3.93826 -1.798,-4.13962 -1.6221,-7.76875 0.4684,-9.66063 1.2715,-1.1507 2.0826,-3.11302 2.0826,-5.0386 0,-1.73463 0.6607,-4.02739 1.4682,-5.09501 1.9053,-2.51903 1.9186,-3.80352 0.032,-3.0795 -1.0837,0.41585 -1.5,-0.10953 -1.5,-1.89301 0,-2.07624 0.4769,-2.46862 3,-2.46862 2.0274,0 3,-0.49651 3,-1.53138 0,-2.07302 -2.4075,-2.85605 -4.8168,-1.56664 -2.9555,1.58173 -4.5328,-0.87297 -3.7059,-5.7673 0.4202,-2.48721 0.2119,-4.6595 -0.5662,-5.90547 -1.1935,-1.91106 -1.3173,-1.88265 -4.071,0.93438 -2.2266,2.27774 -2.8401,2.5338 -2.8401,1.18534 0,-0.94602 0.8411,-2.64903 1.8691,-3.78448 2.2056,-2.43628 3.7935,-12.95199 1.8584,-12.30693 -0.6573,0.21908 -1.5663,2.27577 -2.0201,4.57041 -0.8747,4.42289 -1.7243,5.06155 -3.6487,2.74279 -0.8925,-1.07542 -0.9194,-2.8704 -0.1086,-7.25 0.9292,-5.01861 0.8553,-5.9838 -0.5363,-7.00419 -0.8877,-0.6509 -1.3968,-1.5509 -1.1313,-2 0.864,-1.46156 -1.1757,-5.31653 -2.8131,-5.31653 -0.9977,0 -1.4779,-0.69232 -1.2822,-1.8484 0.8377,-4.94943 -6.8474,-10.47416 -11.2744,-8.10494 -2.3918,1.28006 -2.9128,1.20409 -2.9128,-0.42469 0,-0.75791 -1.0125,-2.08431 -2.25,-2.94755 l -2.25,-1.56952 2.25,-0.0524 c 1.4989,-0.0349 2.25,-0.66653 2.25,-1.89193 0,-2.16143 -3.969,-4.24288 -6.7192,-3.5237 -2.1959,0.57425 -5.0205,-2.06159 -3.3293,-3.10681 1.9652,-1.21455 1.0551,-2.53018 -1.7015,-2.45972 -3.9785,0.10168 -5.75,1.15459 -5.75,3.41769 0,1.64065 -0.7805,2.04259 -4.4672,2.30054 -2.4569,0.17191 -4.6232,0.46859 -4.8139,0.65928 -0.1907,0.1907 -0.4305,1.96594 -0.5328,3.94498 -0.1023,1.97904 -0.5236,3.60027 -0.9361,3.60274 -0.7981,0.005 -1.0833,-1.44562 -0.8173,-4.15693 0.3397,-3.46179 -1.686,-2.60534 -2.8243,1.19416 -1.239,4.13537 -2.4889,5.02405 -3.47,2.46725 -0.7147,-1.86258 -3.5447,-1.88636 -5.9674,-0.0501 -1.4619,1.10799 -1.6125,1.79093 -0.75,3.40245 0.5935,1.10892 1.0342,2.8333 0.9793,3.83196 -0.071,1.29464 -0.3294,1.09826 -0.9003,-0.68426 -0.5717,-1.78533 -0.8291,-1.98047 -0.9003,-0.68261 -0.076,1.38471 -0.6056,1.65683 -2.2245,1.14299 -1.2944,-0.41083 -2.4314,-0.17837 -2.9093,0.59479 -0.9114,1.47476 -3.082,-0.24667 -4.2724,-3.38833 -0.382,-1.00823 -1.2568,-1.64853 -1.944,-1.42288 -1.5445,0.50715 -2.2885,5.75604 -0.8159,5.75604 0.5865,0 1.0664,0.675 1.0664,1.5 0,0.825 -0.45,1.5 -1,1.5 -0.55,0 -1,-0.64844 -1,-1.44098 0,-2.42294 -1.6385,-2.63123 -4.2902,-0.54539 -3.0333,2.38589 -3.7098,2.47003 -3.7098,0.46127 0,-0.89444 1.2405,-1.77309 3,-2.125 1.65,-0.33 3,-0.94497 3,-1.36659 0,-1.58806 -4.9194,-1.91504 -8.1985,-0.54494 -2.0726,0.86601 -5.0122,1.20883 -7.5019,0.87488 -3.9299,-0.52711 -4.1637,-0.40189 -5.8384,3.12714 -1.9082,4.02127 -3.1279,3.70562 -3.6342,-0.94049 -0.2469,-2.26559 -0.7744,-2.92371 -2.1545,-2.68837 -1.1623,0.19821 -2.0237,-0.43878 -2.3666,-1.75 -0.5275,-2.01697 -2.3059,-2.92567 -2.3059,-1.17821 0,1.42732 -4.9789,1.96934 -5.7752,0.62871 -0.9808,-1.65116 -4.6722,-3.51213 -6.9666,-3.51213 -1.2332,0 -2.4932,-1.40502 -3.6875,-4.112 -0.9978,-2.2616 -2.0969,-3.69353 -2.4424,-3.18206 -0.5249,0.77694 -2.6654,0.88581 -7.3783,0.3753 -0.4125,-0.0447 -0.75,-0.71669 -0.75,-1.49334 0,-0.87723 -1.5759,-1.67835 -4.1604,-2.11501 -2.3071,-0.38978 -5.223,-1.76536 -6.5455,-3.0879 -1.3117,-1.31174 -2.927,-2.40232 -3.5895,-2.42351 -0.6625,-0.0212 -2.1046,-1.44495 -3.2046,-3.16392 -2.189,-3.42085 -5.0415,-5.58938 -6.0395,-4.59141 -1.6975,1.69756 -2.0964,8.01697 -0.8786,13.91949 4.6672,22.62073 5.5656,26.70639 6.5102,29.60866 1.3562,4.16691 0.3884,7.107 -2.5851,7.85331 -1.2979,0.32575 -3.1376,1.45179 -4.0884,2.50233 -0.9507,1.05053 -2.7838,1.91006 -4.0736,1.91006 -1.2897,0 -2.2325,0.5237 -2.095,1.16379 0.1375,0.64008 -1.4408,2.13672 -3.5074,3.32587 -2.0666,1.18915 -3.4541,2.46544 -3.0834,2.83621 0.3708,0.37077 -0.064,0.67413 -0.9652,0.67413 -0.9016,0 -4.1502,1.18887 -7.2192,2.64194 -3.9767,1.8829 -5.4157,3.0697 -5.0085,4.13081 0.4695,1.22339 -0.1325,1.37634 -3.3757,0.85773 -2.8772,-0.46009 -4.365,-0.21323 -5.489,0.91081 -0.8481,0.84809 -2.9054,2.01726 -4.5718,2.59817 -1.6664,0.5809 -3.0298,1.48873 -3.0298,2.01738 0,0.52866 -0.4594,0.67725 -1.0209,0.33021 -0.5616,-0.34704 -1.7091,1.01589 -2.5501,3.02875 -1.0318,2.46941 -2.0007,3.47877 -2.9791,3.10335 -0.7974,-0.30601 -1.4499,-0.1205 -1.4499,0.41223 0,0.53274 -0.6712,0.96862 -1.4915,0.96862 -0.8203,0 -2.0255,0.8551 -2.6782,1.90022 -0.6527,1.04512 -1.7666,1.6777 -2.4754,1.40572 -1.3919,-0.53413 -6.2715,4.41438 -6.3233,6.41268 -0.017,0.67023 -0.5941,1.01246 -1.2816,0.7605 -2.0945,-0.76763 -4.1698,1.24696 -4.3393,4.21242 -0.088,1.54465 -0.6045,2.71673 -1.1472,2.60461 -0.5426,-0.11212 -1.8364,1.57021 -2.875,3.73852 -1.0387,2.16831 -2.226,3.94755 -2.6385,3.95386 -0.4125,0.006 -0.75,1.6044 -0.75,3.55131 0,3.75702 -3.3745,11.46016 -5.0203,11.46016 -0.5388,0 -0.9797,0.61312 -0.9797,1.3625 0,0.74937 -1.3244,3.02911 -2.9432,5.06609 -2.7845,3.5038 -3.1405,6.57141 -0.7627,6.57141 0.5941,0 -0.166,1.30064 -1.689,2.89031 -1.9638,2.04973 -2.4182,3.10718 -1.5624,3.63604 1.1736,0.72538 0.9716,6.20879 -0.6715,18.22365 -0.6429,4.70117 -1.0575,5.06118 -2.9104,2.52722 -1.1245,-1.53788 -1.5456,-1.56976 -3.9238,-0.29701 -1.7892,0.95756 -2.5098,2.01589 -2.1941,3.22278 0.3003,1.14844 -0.08,1.79701 -1.0531,1.79701 -1.1201,0 -1.3379,-0.59532 -0.8234,-2.25 0.7769,-2.49867 0.7351,-8.61497 -0.068,-9.91405 -0.7867,-1.27291 -4.1769,-0.9969 -5.0858,0.41405 -0.4428,0.6875 -0.8069,2.58968 -0.809,4.22707 0,2.03478 -0.5577,3.08666 -1.7538,3.32332 -1.0719,0.21208 -1.75,-0.26342 -1.75,-1.22707 -10e-5,-0.86532 -0.5902,-1.57332 -1.3115,-1.57332 -1.5096,0 -5.6886,3.64535 -5.6886,4.96223 0,0.48638 -1.1572,2.25963 -2.5716,3.94057 -1.4145,1.68094 -2.3046,3.48849 -1.9781,4.01678 0.3265,0.52829 -0.1068,1.55 -0.963,2.27047 -4.5953,3.86695 -4.7168,4.11853 -4.1141,8.51573 0.4871,3.55407 0.2353,4.64904 -1.3891,6.03988 -1.0912,0.93435 -1.9841,2.75596 -1.9841,4.04801 0,2.46794 -2.3211,5.55187 -3.3809,4.49204 -0.3405,-0.34047 -0.6122,0.69346 -0.6038,2.29762 0.012,2.30687 0.2306,2.60306 1.0447,1.41667 0.813,-1.18477 0.9717,-0.96489 0.7553,1.0463 -0.1775,1.6497 0.6747,3.56942 2.4203,5.45192 1.4818,1.59809 2.9706,4.1642 3.3085,5.70246 0.3379,1.53826 1.4469,3.38002 2.4645,4.0928 1.0177,0.71277 2.1568,2.51725 2.5314,4.00994 0.4311,1.71763 1.5584,2.93415 3.0706,3.31369 2.2184,0.55678 2.6876,1.2261 2.1961,3.13289 -0.1063,0.4125 1.1312,0.97942 2.75,1.25982 1.6188,0.2804 2.8913,0.9554 2.8277,1.5 -0.1754,1.50344 2.6898,3.12838 6.8656,3.89361 2.0625,0.37796 3.75,1.01707 3.75,1.42025 0,0.40318 2.7,1.53457 6,2.51421 3.3,0.97964 6.0039,2.09188 6.0086,2.47164 0,0.37976 2.7047,1.53099 6,2.55829 3.2953,1.0273 5.9914,2.23896 5.9914,2.69258 0,0.45362 0.9911,0.6339 2.2024,0.40062 1.2113,-0.23327 2.4805,0.0258 2.8203,0.57575 0.3399,0.54993 3.3989,1.48971 6.7977,2.0884 3.3988,0.59869 6.1801,1.37795 6.1807,1.73168 6e-4,0.35373 2.2623,0.71155 5.026,0.79515 2.8696,0.0868 6.1721,0.90371 7.6996,1.90454 1.471,0.96389 4.0469,1.90343 5.724,2.08785 1.6771,0.18442 3.9493,0.74908 5.0493,1.25479 1.1,0.5057 2.816,1.18209 3.8134,1.50308 0.9974,0.32099 1.5889,0.94679 1.3146,1.39068 -0.2743,0.44388 1.0471,0.80706 2.9366,0.80706 1.8895,0 3.4354,-0.36 3.4354,-0.8 0,-0.44 0.675,-0.8 1.5,-0.8 0.825,0 1.5,0.45 1.5,1 0,0.55 1.0125,1.01431 2.25,1.0318 1.2375,0.0175 3.1235,0.6925 4.1912,1.5 1.0676,0.80751 3.8801,1.4682 6.25,1.4682 2.3698,0 4.3088,0.39203 4.3088,0.87118 0,0.47915 4.4956,1.1899 9.9901,1.57944 5.4945,0.38954 10.2419,1.11563 10.5496,1.61352 0.3077,0.49789 1.5496,0.92644 2.7599,0.95232 1.2102,0.0259 6.9254,0.14528 12.7004,0.26531 5.775,0.12003 11.4004,0.73656 12.5009,1.37008 1.1825,0.68075 8.8772,1.35434 18.8136,1.64695 9.247,0.2723 17.0841,0.76647 17.4158,1.09815 0.777,0.77696 0.4612,0.83881 4.6476,-0.91037 z m 29.6221,-17.37959 c 0,-1.01369 3.0458,-2.39454 3.7433,-1.69706 0.2513,0.25135 0.1604,0.93695 -0.2022,1.52354 -0.7978,1.29088 -3.5411,1.42531 -3.5411,0.17352 z m 6.0318,-4.35699 c 0.037,-1.46832 2.3777,-4.75 3.3875,-4.75 0.3843,0 0.4444,0.41157 0.1335,0.91459 -0.3109,0.50302 -0.032,1.09251 0.6209,1.30997 0.6642,0.22139 0.9007,1.13911 0.5376,2.08541 -0.7459,1.94381 -4.7273,2.3182 -4.6795,0.44003 z m 39.7568,-23 c -0.419,-2.68903 1.8831,-6.75 3.8264,-6.75 0.7618,0 1.385,-0.45 1.385,-1 0,-0.55 0.8475,-1 1.8834,-1 1.0408,0 2.1168,-0.89251 2.4051,-1.99495 0.2869,-1.09723 1.3519,-2.3016 2.3666,-2.67639 1.0147,-0.37478 3.2374,-1.72705 4.9393,-3.00504 1.7019,-1.27799 3.6144,-2.32362 4.25,-2.32362 0.6356,0 1.1556,-0.675 1.1556,-1.5 0,-0.94624 -0.9537,-1.5 -2.5833,-1.5 -2.8237,0 -2.8762,-1.67679 -0.1072,-3.42344 1.2278,-0.77443 2.1696,-0.72381 3.4405,0.18492 3.15,2.25221 4.4483,2.55494 7.0353,1.64041 2.9216,-1.03279 3.5741,-2.2818 2.2701,-4.34503 -0.7528,-1.19105 -1.384,-1.22818 -3.613,-0.21256 -3.7516,1.70933 -4.1426,0.76503 -0.9891,-2.38848 2.1852,-2.18517 3.2403,-2.54909 5.8561,-2.01985 1.7548,0.35505 4.0906,0.68336 5.1906,0.72957 4.2763,0.17963 9.6161,1.98986 9.2635,3.14042 -0.2013,0.65672 -2.1841,2.09404 -4.4062,3.19404 -5.8008,2.8715 -12.1194,8.41592 -12.8335,11.26114 -0.5463,2.17694 -0.9907,2.37386 -4.058,1.79842 -2.6638,-0.49974 -4.2092,-0.12647 -6.8193,1.64713 -1.8562,1.26132 -3.422,2.74331 -3.4796,3.29331 -0.058,0.55 -1.3354,1.15124 -2.8397,1.3361 -1.5042,0.18485 -3.5948,0.9384 -4.6459,1.67456 -1.051,0.73615 -2.4621,1.12693 -3.1359,0.86839 -1.6379,-0.62853 -4.0198,2.20971 -2.5939,3.09094 1.7096,1.0566 1.196,2.53001 -0.8819,2.53001 -1.2314,0 -2.0574,-0.81474 -2.281,-2.25 z m -0.7886,-22.1744 c 0,-0.74889 0.675,-1.62064 1.5,-1.93723 0.8808,-0.33797 1.5,-0.0135 1.5,0.78603 0,0.74889 -0.675,1.62064 -1.5,1.93723 -0.8807,0.33797 -1.5,0.0135 -1.5,-0.78603 z m 4,-4.45757 c 0,-0.55 0.45,-1.27811 1,-1.61803 0.55,-0.33992 1,-0.16803 1,0.38197 0,0.55 -0.45,1.27811 -1,1.61803 -0.55,0.33992 -1,0.16803 -1,-0.38197 z m 50.875,-1.61803 c -1.0026,-4.01057 0.1248,-5.51056 5.7468,-7.64568 5.3314,-2.02481 8.3782,-2.36523 8.3782,-0.93611 0,0.50502 0.2252,1.51752 0.5004,2.25 0.528,1.40535 -3.6467,3.83179 -6.5928,3.83179 -0.9315,0 -1.9526,0.675 -2.2692,1.5 -0.519,1.3525 -5.4609,2.20997 -5.7634,1 z m -5.6064,-2.76101 c -0.527,-0.68144 -1.2388,-2.02649 -1.582,-2.98899 -0.9818,-2.7542 1.8284,-2.10983 3.1152,0.71429 1.202,2.63801 0.059,4.33375 -1.5332,2.2747 z m -10.6019,-2.40566 c -1.6595,-1.65949 -0.4878,-3.33333 2.3333,-3.33333 3.4221,0 3.7591,0.70327 1.25,2.60795 -2.0102,1.52595 -2.6527,1.65601 -3.5833,0.72538 z m -34.6377,-1.29427 c -2.1593,-1.36557 -0.1364,-2.50112 3.8435,-2.15754 1.1058,0.0955 1.1305,0.40992 0.1275,1.61848 -1.4423,1.73794 -1.9635,1.80868 -3.971,0.53906 z m 67.971,-2.91662 c 0,-1.69416 2.6264,-3.0329 4.8231,-2.45845 1.7527,0.45833 1.9787,0.86989 1.0756,1.95815 -1.2547,1.51173 -5.8987,1.90562 -5.8987,0.5003 z m -17.4357,-1.82931 c -0.5427,-1.4252 -0.4278,-1.54006 0.5598,-0.5598 0.6834,0.67834 0.9907,1.48524 0.6828,1.79313 -0.3079,0.30789 -0.8671,-0.24711 -1.2426,-1.23333 z m -46.3643,-1.49313 c -1.5367,-1.5367 -1.562,-4.08736 -0.036,-3.57853 0.6405,0.21348 1.8203,1.37598 2.622,2.58334 1.249,1.88106 1.2541,2.19519 0.036,2.19519 -0.7821,0 -1.962,-0.54 -2.622,-1.2 z m 124.8,-13.83138 c 0,-1.28894 2.8491,-2.45288 3.7642,-1.53779 0.3728,0.37286 0.016,1.09656 -0.7931,1.60823 -1.9358,1.22421 -2.9711,1.19966 -2.9711,-0.0704 z m -408.5,-0.96862 c -0.8155,-1.31952 0.3802,-3.19207 1.5691,-2.45729 1.2146,0.75067 1.2067,3.45729 -0.01,3.45729 -0.5175,0 -1.2191,-0.45 -1.559,-1 z m 6,-1 c 0.3399,-0.55 1.0415,-1 1.559,-1 0.5176,0 0.941,0.45 0.941,1 0,0.55 -0.7015,1 -1.559,1 -0.8575,0 -1.2809,-0.45 -0.941,-1 z m 270,0 c 0.3399,-0.55 0.8165,-1 1.059,-1 0.2426,0 0.441,0.45 0.441,1 0,0.55 -0.4765,1 -1.059,1 -0.5825,0 -0.7809,-0.45 -0.441,-1 z m -276.5,-5 c 0,-0.55 0.45,-1 1,-1 0.55,0 1,0.45 1,1 0,0.55 -0.45,1 -1,1 -0.55,0 -1,-0.45 -1,-1 z m 276.4462,-7.08713 c -0.3696,-0.59793 -0.1711,-1.58793 0.441,-2.2 0.8171,-0.81716 1.1128,-0.52829 1.1128,1.08713 0,2.41451 -0.5194,2.78655 -1.5538,1.11287 z m 5.5538,-73.44425 c 0,-0.80774 0.675,-1.46862 1.5,-1.46862 0.825,0 1.5,0.40186 1.5,0.89301 0,0.49116 -0.675,1.15203 -1.5,1.46862 -0.9137,0.35062 -1.5,0.002 -1.5,-0.89301 z m -201.4751,-8.42839 c -0.8481,-1.3722 -0.097,-2.40235 1.3806,-1.8944 0.6052,0.20803 0.6826,0.91401 0.1875,1.71093 -0.625,1.00598 -1.0305,1.05341 -1.5681,0.18347 z m 1.9751,-6.04023 c -0.3399,-0.55 -0.1415,-1 0.441,-1 0.5825,0 1.059,0.45 1.059,1 0,0.55 -0.1984,1 -0.441,1 -0.2425,0 -0.7191,-0.45 -1.059,-1 z m 98.1667,-37.66667 c -1.1506,-1.15063 -0.7282,-2.33333 0.8333,-2.33333 0.825,0 1.5,0.675 1.5,1.5 0,1.56157 -1.1827,1.98397 -2.3333,0.83333 z m 54.3333,-15.89235 c 0,-0.85746 0.45,-1.2809 1,-0.94098 0.55,0.33992 1,1.04148 1,1.55902 0,0.51754 -0.45,0.94098 -1,0.94098 -0.55,0 -1,-0.70156 -1,-1.55902 z m -156.5041,249.55236 c -0.3487,-0.56428 -1.0603,-0.76253 -1.5813,-0.44055 -0.521,0.32197 -0.7075,0.97322 -0.4146,1.44721 0.293,0.47399 0.075,1.14446 -0.4837,1.48992 -0.5589,0.34546 -1.0163,1.33724 -1.0163,2.20396 0,1.09567 0.6292,0.77593 2.065,-1.04937 1.1358,-1.44386 1.7797,-3.08688 1.4309,-3.65117 z m 30.5041,5.06568 c 0,-0.51754 -0.45,-1.2191 -1,-1.55902 -0.55,-0.33992 -1,0.0835 -1,0.94098 0,0.85746 0.45,1.55902 1,1.55902 0.55,0 1,-0.42344 1,-0.94098 z m 8.5,-0.059 c 0.3399,-0.55 -0.3085,-1 -1.441,-1 -1.1324,0 -2.059,0.45 -2.059,1 0,0.55 0.6485,1 1.441,1 0.7925,0 1.7191,-0.45 2.059,-1 z m 120.1929,-1.20535 c 2.0939,-1.21294 4.0321,-2.51663 4.3071,-2.89708 0.275,-0.38046 3.2,-1.8901 6.5,-3.35477 15.659,-6.95003 21.1422,-10.5428 16.0904,-10.5428 -4.036,0 -9.2376,2.53195 -11.1276,5.41647 -1.2446,1.89947 -2.552,2.58353 -4.9377,2.58353 -2.2939,0 -3.7951,0.73267 -5.1224,2.5 -1.0325,1.375 -2.644,2.5 -3.581,2.5 -0.937,0 -1.9931,0.4683 -2.3468,1.04068 -0.3538,0.57237 -1.5053,0.76705 -2.559,0.43261 -1.5482,-0.49138 -1.9159,-0.1154 -1.9159,1.95932 0,3.10926 -0.044,3.10587 4.6929,0.36204 z m -153.3312,-2.29465 c 0.3165,-0.825 0.1397,-1.5 -0.3931,-1.5 -0.5327,0 -0.9686,0.675 -0.9686,1.5 0,0.825 0.1769,1.5 0.393,1.5 0.2162,0 0.6521,-0.675 0.9687,-1.5 z m -43.3617,-13.62244 c 0,-0.48266 -0.675,-0.87756 -1.5,-0.87756 -0.8622,0 -1.5,0.90249 -1.5,2.12244 0,1.77324 0.2468,1.91763 1.5,0.87756 0.825,-0.68469 1.5,-1.63979 1.5,-2.12244 z m -5,-1.87756 c 0,-0.55 -0.675,-1 -1.5,-1 -0.825,0 -1.5,0.45 -1.5,1 0,0.55 0.675,1 1.5,1 0.825,0 1.5,-0.45 1.5,-1 z m 231,-8 c 0,-0.55 -0.45,-1 -1,-1 -0.55,0 -1,0.45 -1,1 0,0.55 0.45,1 1,1 0.55,0 1,-0.45 1,-1 z m -255,-1.25589 c 0,-1.51691 -5.8287,-4.2709 -6.8074,-3.21644 -0.3809,0.41038 -0.105,0.9554 0.6132,1.21116 0.7182,0.25577 1.8432,1.07704 2.5,1.82506 1.5123,1.72223 3.6942,1.82867 3.6942,0.18022 z m 301,-17.74411 c 0,-0.55 -0.4234,-1 -0.941,-1 -0.5175,0 -1.2191,0.45 -1.559,1 -0.3399,0.55 0.083,1 0.941,1 0.8575,0 1.559,-0.45 1.559,-1 z m -22.8898,-52.21019 c -0.6458,-1.69873 -0.6143,-2.8857 0.096,-3.59562 1.6519,-1.65184 0.1148,-4.19419 -2.5357,-4.19419 -2.013,0 -2.3169,0.39674 -1.9148,2.5 0.2628,1.375 0.9279,2.5 1.4779,2.5 0.55,0 0.7414,0.98908 0.4253,2.19796 -0.6494,2.48309 1.1762,5.36737 2.5363,4.00726 0.506,-0.50606 0.4701,-1.95636 -0.085,-3.41541 z m 45.8898,-0.28981 c 0,-0.825 -0.4018,-1.5 -0.893,-1.5 -0.4911,0 -1.152,0.675 -1.4686,1.5 -0.3506,0.91371 0,1.5 0.893,1.5 0.8077,0 1.4686,-0.675 1.4686,-1.5 z m -37,-1.5 c -1.9758,-1.2769 -5.2891,-1.2769 -4.5,0 0.3399,0.55 1.829,0.99311 3.309,0.98469 2.1048,-0.012 2.3643,-0.22649 1.191,-0.98469 z m 53.4172,-3.09633 c 0.5355,-0.48927 0.1968,-1.11457 -0.8137,-1.50235 -2.1366,-0.81989 -6.9459,1.23564 -6.0986,2.6066 0.655,1.05974 5.3681,0.30681 6.9123,-1.10425 z m -53.5221,-8.70755 c 1.111,-2.07594 0.3853,-3.55362 -2.2175,-4.51548 -2.1538,-0.7959 -5.6776,0.85166 -5.6776,2.65454 0,3.58 6.1937,5.03991 7.8951,1.86094 z m 75.6049,-1.19612 c 1.0769,-1.74239 -0.5193,-3.22888 -2.078,-1.93525 -0.77,0.63902 -1.1534,1.56088 -0.8519,2.04856 0.7294,1.18032 2.1647,1.12481 2.9299,-0.11331 z m 12.044,-2.62149 c 0.8902,0.34159 2.5821,-0.0538 3.7598,-0.87872 1.1777,-0.82488 3.5786,-1.49979 5.3354,-1.49979 1.7568,0 3.3516,-0.47238 3.5441,-1.04973 0.1924,-0.57735 3.4924,-1.5442 7.3333,-2.14857 3.8409,-0.60436 8.813,-1.93199 11.0491,-2.95027 2.2362,-1.01829 4.6317,-1.85143 5.3234,-1.85143 0.6917,0 1.1121,-0.71832 0.9342,-1.59628 -0.4158,-2.0532 -7.3056,-4.52138 -8.7076,-3.1194 -1.2492,1.24921 -10.9469,4.71568 -13.1924,4.71568 -0.9095,0 -2.7977,0.9 -4.1961,2 -1.3985,1.1 -3.4684,2 -4.6,2 -2.9358,0 -11.3686,2.9373 -13.0413,4.54255 -1.1696,1.12242 -1.188,1.62948 -0.1066,2.93249 1.1879,1.43136 1.4739,1.42486 3.1269,-0.0711 1.0006,-0.90558 2.5477,-1.36703 3.4378,-1.02544 z m -79.544,-4.87851 c 0,-1.80819 1.1668,-1.93321 2.8,-0.3 0.9334,0.93333 1.2,0.71111 1.2,-1 0,-1.61754 -0.5982,-2.2 -2.2594,-2.2 -2.2388,0 -5.1847,3.22258 -4.0151,4.39219 1.0978,1.09775 2.2745,0.63616 2.2745,-0.89219 z m 29,-6.55902 c 0,-0.51754 -0.45,-0.94098 -1,-0.94098 -0.55,0 -1,0.70156 -1,1.55902 0,0.85746 0.45,1.2809 1,0.94098 0.55,-0.33992 1,-1.04148 1,-1.55902 z m -313,-2.94098 c 0,-0.55 -0.1984,-1 -0.441,-1 -0.2425,0 -0.7191,0.45 -1.059,1 -0.3399,0.55 -0.1415,1 0.441,1 0.5825,0 1.059,-0.45 1.059,-1 z m 416,0.16667 c 0,-1.30208 -1.1887,-2.16804 -2.1558,-1.57039 -1.0342,0.63919 -0.1424,2.40372 1.2148,2.40372 0.5176,0 0.941,-0.375 0.941,-0.83333 z m -9,-1.16667 c 0,-0.55 -0.45,-1 -1,-1 -0.55,0 -1,0.45 -1,1 0,0.55 0.45,1 1,1 0.55,0 1,-0.45 1,-1 z m -6.5,-4 c -0.3399,-0.55 -1.0415,-1 -1.559,-1 -0.5175,0 -0.941,0.45 -0.941,1 0,0.55 0.7016,1 1.559,1 0.8575,0 1.2809,-0.45 0.941,-1 z m -115.5,-2.11803 c 0,-0.55 -0.45,-0.72189 -1,-0.38197 -0.55,0.33992 -1,1.06803 -1,1.61803 0,0.55 0.45,0.72189 1,0.38197 0.55,-0.33992 1,-1.06803 1,-1.61803 z m -1,-11.88197 c 0,-0.55 -0.45,-1 -1,-1 -0.55,0 -1,0.45 -1,1 0,0.55 0.45,1 1,1 0.55,0 1,-0.45 1,-1 z m 27.6303,-3.25 c -0.3316,-1.2375 -0.6091,-2.8125 -0.6166,-3.5 -0.01,-0.6875 -0.6887,-1.25 -1.5137,-1.25 -1.6486,0 -2.0271,1.55621 -0.5939,2.44198 0.4984,0.30801 0.6709,1.45956 0.3834,2.55902 -0.3742,1.43086 -0.03,1.999 1.2105,1.999 1.3095,0 1.5858,-0.55016 1.1303,-2.25 z m -29.459,-2.40499 c 2.3996,-2.17163 2.3315,-4.34501 -0.1361,-4.34501 -1.8699,0 -4.0352,2.64775 -4.0352,4.93426 0,1.58573 2.095,1.28979 4.1713,-0.58925 z m -7.8009,-2.86769 c 0.674,-1.75642 -2.9639,-5.84659 -4.4068,-4.95478 -1.3742,0.84927 -1.2044,1.76932 0.7864,4.26082 2.0751,2.59698 2.8343,2.7425 3.6204,0.69396 z m 38.6296,-4.39399 c 0,-0.50416 -0.5572,-1.1024 -1.2382,-1.32941 -0.9559,-0.31863 -0.9062,-1.07873 0.2179,-3.33333 0.8009,-1.60633 1.6206,-3.25809 1.8216,-3.67059 0.201,-0.4125 -0.3471,-0.75 -1.2179,-0.75 -1.0398,0 -1.5834,-0.89547 -1.5834,-2.60841 0,-2.28296 0.3119,-2.53012 2.5,-1.98095 3.0724,0.77112 3.1617,-0.0775 0.3257,-3.09619 -2.8081,-2.98905 -5.1546,-2.93685 -6.8074,0.15146 -1.0725,2.00395 -1.0804,2.75432 -0.042,4.00542 0.8526,1.02733 1.058,2.91319 0.6174,5.66853 -0.5035,3.14873 -0.2594,4.57195 1.028,5.99459 1.7685,1.95414 4.3784,2.51976 4.3784,0.94888 z m -13.547,-13.24385 c 2.4667,-1.12393 3.4684,-2.83948 1.6578,-2.83948 -1.0676,0 -5.9164,3.919 -4.9078,3.96673 0.3866,0.0183 1.8491,-0.48896 3.25,-1.12725 z m 9.9402,-9.10104 c 1.5126,-2.39801 -0.1541,-3.4358 -1.8717,-1.16544 -0.8018,1.05985 -1.4722,2.302 -1.4897,2.76033 -0.05,1.30121 2.2113,0.22848 3.3614,-1.59489 z m 7.3631,-5.34312 c -0.2237,-5.14122 -1.8181,-7.23073 -3.7453,-4.90855 -0.9224,1.11143 -0.9823,2.23944 -0.2264,4.26233 0.5654,1.51299 1.292,3.56692 1.6146,4.56428 1.0464,3.23431 2.559,0.72003 2.3571,-3.91806 z m 0.2085,-9.32958 c 1.3539,-2.52975 1.3061,-3.06574 -0.2736,-3.06574 -2.1468,0 -5.0512,2.60844 -4.2849,3.8483 1.0922,1.76721 3.4066,1.3699 4.5585,-0.78256 z m -76.1411,-56.38891 c 0.3058,-1.58748 0.1003,-1.64632 -1.7385,-0.49797 -2.5332,1.58204 -2.7321,3.09237 -0.3467,2.63298 0.9562,-0.18414 1.8946,-1.1449 2.0852,-2.13501 z m -155.8237,-53.80188 c 0,-0.48125 3.0499,-0.875 6.7775,-0.875 4.4145,0 7.5263,-0.52446 8.9252,-1.50426 1.1812,-0.82735 3.9627,-1.57539 6.1812,-1.66232 2.2184,-0.0869 3.8006,-0.53501 3.5158,-0.99574 -0.2847,-0.46072 0.8588,-0.83768 2.5413,-0.83768 1.893,0 3.059,-0.51174 3.059,-1.34253 0,-0.73839 1.575,-2.19072 3.5,-3.2274 1.925,-1.03668 3.5,-2.1344 3.5,-2.43937 0,-0.30496 1.1657,-0.65096 2.5904,-0.76887 1.4248,-0.11792 3.8567,-1.11607 5.4044,-2.21811 1.5477,-1.10205 3.4623,-2.00372 4.2546,-2.00372 0.7924,0 2.2551,-0.9 3.2506,-2 0.9955,-1.1 2.8653,-2 4.155,-2 1.2898,0 2.2917,-0.3375 2.2266,-0.75 -0.3198,-2.02561 0.2417,-3.14097 1.3684,-2.71809 0.6875,0.25802 2.3205,-1.1061 3.6289,-3.03139 1.3084,-1.92529 2.8834,-3.50829 3.5,-3.5178 1.3503,-0.0208 4.8684,-3.64827 6.4649,-6.66585 0.8055,-1.52243 2.0394,-2.15799 4.0771,-2.10006 2.9274,0.0832 6.0791,-2.09161 6.0791,-4.19495 0,-0.61654 1.5814,-2.74925 3.5141,-4.73934 2.2922,-2.36018 3.3212,-4.22613 2.9593,-5.36628 -0.806,-2.53966 1.5771,-3.56775 3.1821,-1.37276 1.0646,1.45597 1.6116,1.58943 2.5732,0.62781 0.9616,-0.96161 0.956,-1.64587 -0.026,-3.21894 -1.0434,-1.67086 -0.9821,-2.09961 0.3749,-2.62035 2.985,-1.14543 6.2596,-5.09518 5.1469,-6.20792 -0.7016,-0.70162 -1.6375,-0.70559 -2.9327,-0.0124 -2.7875,1.49182 -4.3771,0.61692 -2.4253,-1.33487 0.8987,-0.89866 1.6339,-2.11608 1.6339,-2.70536 0,-1.44819 1.7352,-1.36585 2.2257,0.10562 0.2158,0.64738 0.9283,0.84582 1.5833,0.44098 1.6982,-1.0495 1.4727,-2.61803 -0.3764,-2.61803 -1.1602,0 -1.3907,-0.58454 -0.8876,-2.25 0.3739,-1.2375 1.0792,-2.6775 1.5674,-3.2 0.4882,-0.5225 0.8876,-2.86264 0.8876,-5.20031 0,-3.00698 0.5119,-4.5377 1.75,-5.23275 1.8796,-1.0552 1.1032,-1.62112 -3.1671,-2.30839 -2.3539,-0.37886 -3.3628,-2.80857 -1.1662,-2.80857 2.0021,0 2.0334,-1.84524 0.068,-4.01693 -1.3618,-1.50472 -1.3045,-1.94241 0.565,-4.31908 1.1441,-1.45457 1.7782,-3.13349 1.4089,-3.73092 -0.3692,-0.59744 0.2766,-1.96931 1.4351,-3.04861 2.2426,-2.08932 2.7539,-3.88446 1.1063,-3.88446 -0.55,0 -1,-0.45 -1,-1 0,-0.55 0.6252,-1 1.3892,-1 0.7641,0 2.4034,-0.8212 3.6429,-1.82489 1.8615,-1.50738 2.2536,-2.81738 2.2536,-7.52927 0,-5.61722 1.1636,-8.2445 2.3185,-5.23492 0.5199,1.35492 0.7653,1.36245 2.0644,0.0634 0.8108,-0.81086 2.1171,-1.4743 2.9029,-1.4743 1.6174,0 1.9189,-1.57892 0.4722,-2.47301 -1.4709,-0.90908 -0.1495,-3.26605 2.1714,-3.87297 1.8544,-0.48496 2.0143,-1.06941 1.4941,-5.46211 -0.5225,-4.41163 -0.2839,-5.26836 2.3135,-8.30548 1.5928,-1.86253 2.9143,-4.11883 2.9367,-5.01399 0.022,-0.89515 0.7156,-2.18775 1.5406,-2.87244 0.825,-0.68469 1.5,-2.67479 1.5,-4.42244 0,-1.74766 0.4237,-3.60506 0.9415,-4.12756 0.5178,-0.5225 1.0803,-3.53074 1.25,-6.68498 0.1835,-3.41066 0.8151,-5.931 1.5585,-6.21862 0.7098,-0.2746 1.25,-2.20457 1.25,-4.46533 0,-2.18993 -0.5625,-4.34155 -1.25,-4.78138 -0.6875,-0.43983 -1.2658,-1.24969 -1.2851,-1.79969 -0.019,-0.55 -0.4071,-3.475 -0.8619,-6.5 -0.9615,-6.39519 -2.2415,-8.54486 -4.1466,-6.96377 -0.8897,0.73837 -1.4753,0.74212 -1.9264,0.0123 -0.8263,-1.33707 -5.53,-1.37838 -5.53,-0.0486 0,0.55 -1.0984,1 -2.441,1 -1.3425,0 -2.7116,0.43796 -3.0424,0.97324 -1.0824,1.75123 -14.1108,6.97134 -17.5166,7.01837 -0.825,0.0114 -2.6281,0.6095 -4.0069,1.32913 -1.3788,0.71963 -5.7437,1.36844 -9.6999,1.4418 -3.9561,0.0734 -9.0003,0.62006 -11.2094,1.2149 -3.0367,0.81769 -4.4989,0.78023 -5.9942,-0.15357 -1.6377,-1.02274 -2.3071,-0.93696 -3.8938,0.49894 -1.4889,1.34748 -2.4831,1.51843 -4.4599,0.76687 -3.4626,-1.31648 -6.5997,-4.86276 -6.1113,-6.90845 0.2208,-0.92468 -0.028,-2.33931 -0.5519,-3.14364 -0.8179,-1.25469 -1.8337,-1.28056 -7.1517,-0.18214 -3.4092,0.70415 -7.1485,1.90278 -8.3097,2.66362 -1.1612,0.76083 -2.5613,1.45921 -3.1113,1.55193 -0.55,0.0927 -2.0418,0.56469 -3.3151,1.0488 -1.2733,0.48411 -3.6859,0.8802 -5.3613,0.8802 -2.952,0 -3.0254,0.11049 -2.3753,3.5758 0.4365,2.32678 0.2266,4.11108 -0.601,5.10822 -1.0439,1.25785 -0.983,1.74354 0.3398,2.71085 1.3865,1.01383 1.4263,1.52252 0.2846,3.64178 -1.1359,2.10845 -1.4214,2.22032 -1.9821,0.77649 -1.1084,-2.85409 -7.0473,0.93151 -6.0289,3.8429 0.2225,0.63583 -0.4278,1.9092 -1.4449,2.82971 -1.5707,1.42143 -2.201,1.47932 -4.1826,0.38415 -1.2832,-0.70923 -2.8957,-1.17537 -3.5832,-1.03587 -0.6875,0.1395 -1.25,-0.46764 -1.25,-1.34921 0,-0.88157 0.4189,-1.34396 0.9309,-1.02753 1.7829,1.10191 2.2568,-1.59961 0.5052,-2.88037 -1.529,-1.11805 -1.7377,-2.80887 -1.5655,-12.68347 0.2147,-12.30867 1.3742,-16.02982 8.4698,-27.18228 3.5666,-5.60586 9.5106,-8.78542 16.9085,-9.04472 3.043,-0.10666 4.7493,-0.61547 4.75,-1.41645 6e-4,-0.6875 0.6761,-1.25 1.5011,-1.25 0.825,0 1.5,0.40598 1.5,0.90217 0,0.4962 1.35,1.37279 3,1.94799 1.65,0.57519 3,0.82838 3,0.56264 0,-0.26574 1.0084,0.0565 2.2409,0.71609 1.4278,0.76414 8.9563,1.33284 20.75,1.56744 26.7528,0.53217 28.1614,0.47586 30.0129,-1.19978 0.9626,-0.87113 3.5717,-1.49655 6.2432,-1.49655 5.4927,0 7.7868,-0.74845 7.1756,-2.3411 -0.3174,-0.82715 0.9247,-1.06616 4.1907,-0.8064 2.9283,0.23289 4.4134,-3.1e-4 4.0232,-0.63173 -0.7183,-1.16218 5.1433,-7.22077 6.986,-7.22077 1.4276,0 1.9948,-1.59635 2.936,-8.2623 0.3697,-2.61926 1.0704,-5.00832 1.5569,-5.30901 1.0985,-0.67889 1.1764,-4.42869 0.092,-4.42869 -0.4359,0 -1.3639,-2.1375 -2.0621,-4.75 -1.6114,-6.02901 -4.6411,-9.41464 -7.731,-8.63914 -1.9245,0.48302 -2.1904,0.24908 -1.7278,-1.51998 0.6294,-2.40684 -1.5233,-2.83427 -4.5993,-0.91324 -1.6021,1.00052 -2.3637,0.69969 -5.0634,-2 -1.7477,-1.7477 -3.593,-3.17764 -4.1007,-3.17764 -0.5077,0 -0.9231,-1.62748 -0.9231,-3.61663 0,-3.06113 -0.2919,-3.5403 -1.9004,-3.11966 -2.057,0.53792 -6.6605,-4.54707 -5.6284,-6.21708 0.3095,-0.50078 -0.6824,-1.05364 -2.2042,-1.22857 -2.2,-0.25288 -2.767,-0.83037 -2.767,-2.81806 0,-1.65951 -0.9546,-3.1017 -2.8395,-4.28972 -2.397,-1.51087 -2.6401,-2.02989 -1.5601,-3.3312 0.9888,-1.19149 1.0143,-1.96589 0.1119,-3.41072 -0.6716,-1.07548 -0.9314,-3.55618 -0.6117,-5.84181 0.4651,-3.32476 0.2168,-4.15392 -1.5224,-5.08474 -1.143,-0.6117 -2.0782,-1.7016 -2.0782,-2.42201 0,-0.7204 -0.9158,-2.138682 -2.0352,-3.151722 -1.1194,-1.01304 -1.8086,-2.43278 -1.5314,-3.15498 0.3453,-0.90002 -0.4179,-1.3131 -2.4262,-1.3131 -2.5723,0 -3.0616,-0.4885 -4.0072,-4 -0.662,-2.458591 -1.6678,-4 -2.6099,-4 -2.4115,0 -4.213,-2.408504 -4.5659,-6.10435 -0.2959,-3.09921 -0.6544,-3.4393 -4.1073,-3.89565 -2.0807,-0.275 -3.8255,-0.95 -3.8773,-1.5 -0.2181,-2.314763 -1.1594,-3.5 -2.7799,-3.5 -0.9495,0 -2.0638,-0.3375 -2.4763,-0.75 -0.4125,-0.4125 -1.05,-0.769754 -1.4167,-0.793899 -0.3667,-0.02414 -4.2667,-0.56806 -8.6667,-1.208701 -12.8462,-1.870416 -16.4639,-2.114769 -17.0588,-1.152218 -0.7311,1.182995 -4.4412,1.174756 -4.4412,-0.0099 0,-0.503074 -3.4875,-1.237029 -7.75,-1.631011 -4.2625,-0.393982 -7.975,-1.044786 -8.25,-1.44623 -0.8954,-1.307174 -11.0638,-1.798391 -12.3187,-0.595101 -0.6497,0.622934 -3.6563,1.717402 -6.6813,2.432151 -3.025,0.714749 -7.975,1.987237 -11,2.827751 -3.025,0.840514 -7.975,2.191131 -11,3.001371 -5.0513,1.352989 -9.8112,3.170681 -14.2364,5.436616 -0.955,0.489023 -2.53,0.891215 -3.5,0.89376 -0.97,0.0025 -3.2017,1.352546 -4.9593,3 -1.7577,1.647455 -3.6702,2.995373 -4.25,2.995373 -0.5799,0 -1.0543,0.40241 -1.0543,0.894245 0,0.491834 -1.35,2.339424 -3,4.105755 -3.2031,3.428921 -4.0513,6.61741 -1.5,5.63837 2.5389,-0.97426 1.6749,1.93006 -1,3.36163 -1.375,0.73588 -2.5077,1.82442 -2.5173,2.41898 -0.01,0.59456 -1.0874,2.09544 -2.3953,3.33528 -1.4401,1.36512 -2.6225,3.92889 -2.9976,6.5 -0.9385,6.4318 -1.2752,8.10797 -1.9577,9.74574 -0.7561,1.81403 -2.7193,11.00327 -2.724,12.75 0,0.6875 0.048,3.6125 0.1108,6.5 0.063,2.8875 -0.3209,7.17531 -0.8525,9.52847 -0.7877,3.48675 -0.6717,4.57335 0.6269,5.87199 1.4581,1.45802 1.4283,1.71476 -0.3499,3.01941 -1.0688,0.78425 -2.7309,1.22148 -3.6934,0.97164 -1.4475,-0.37575 -1.75,0.22704 -1.75,3.48729 0,2.16786 -0.6596,4.94832 -1.4659,6.1788 -1.469,2.24196 -1.0816,6.6924 0.5826,6.6924 0.4858,0 0.8548,1.6875 0.8199,3.75 -0.058,3.41355 -0.1493,3.53511 -1.0214,1.35482 -0.527,-1.31735 -1.1959,-2.15739 -1.4866,-1.86674 -0.7749,0.77487 0.6959,10.76192 1.5849,10.76192 1.0968,0 0.9299,9.91695 -0.1785,10.60197 -0.8498,0.52522 2.6601,4.35024 4.068,4.43321 0.3284,0.0194 3.808,0.28477 7.7325,0.5898 4.6435,0.36093 7.3707,0.17402 7.809,-0.53518 0.3705,-0.59939 2.0115,-1.0898 3.6467,-1.0898 1.6352,0 4.5886,-0.675 6.5631,-1.5 1.9745,-0.825 5.335,-1.5 7.4678,-1.5 2.1329,0 3.8779,-0.45 3.8779,-1 0,-1.41871 9.3545,-1.24548 10.8,0.2 0.66,0.66 1.2,0.89295 1.2,0.51767 0,-0.37529 1.6137,0.88471 3.5859,2.8 1.9722,1.91528 3.9972,3.48233 4.5,3.48233 0.5028,0 0.9141,0.70156 0.9141,1.55902 0,0.85746 0.3952,1.31476 0.8783,1.01623 0.483,-0.29853 1.1243,0.68741 1.425,2.19098 0.3007,1.50357 1.7055,4.44125 3.1217,6.52818 2.9899,4.40569 3.092,5.03169 1.0915,6.6919 -1.2284,1.01953 -2.2274,0.48185 -5.8109,-3.12756 -9.7196,-9.78995 -12.5353,-11.41534 -21.4511,-12.38293 -9.4117,-1.02141 -23.2545,3.13619 -23.2545,6.98436 0,1.52372 3.3444,1.35902 11.9683,-0.58939 6.0026,-1.35617 18.966,-1.33648 20.3334,0.0309 0.6041,0.60408 1.7769,1.09833 2.6062,1.09833 2.6803,0 9.0921,7.14766 9.0921,10.13556 0,3.18099 -1.4574,3.8441 -9.8214,4.46848 -3.1232,0.23316 -8.2509,0.69709 -11.3949,1.03097 -5.5869,0.59332 -5.7425,0.54207 -6.8745,-2.26398 -2.3977,-5.9435 -3.2843,-7.37105 -4.5782,-7.37105 -0.732,0 -1.331,0.45 -1.331,1 0,0.55 -0.7875,1.01497 -1.75,1.03327 -2.0597,0.0392 -6.25,3.30893 -6.25,4.87702 0,0.59934 -1.125,1.08971 -2.5,1.08971 -1.375,0 -2.5,0.40186 -2.5,0.89301 0,1.66201 -3.2791,2.16406 -4.8946,0.74938 -0.883,-0.77321 -2.6179,-1.71438 -3.8554,-2.0915 -1.2375,-0.37711 -2.25,-1.10534 -2.25,-1.61828 0,-0.51293 -1.35,-0.93261 -3,-0.93261 h -3 v 6.41667 c 0,4.24402 -0.4232,6.55801 -1.25,6.83411 -1.569,0.52399 -1.3351,28.05419 0.2429,28.58017 0.5539,0.18465 1.0071,1.81664 1.0071,3.62666 0,1.81001 0.675,5.20409 1.5,7.54239 0.825,2.3383 1.5,5.48978 1.5,7.00328 0,1.51351 0.6137,3.2611 1.3637,3.88355 0.75,0.62244 1.3636,2.95618 1.3636,5.18608 0,2.2299 0.5114,4.56573 1.1364,5.19073 0.625,0.625 1.1363,2.18929 1.1363,3.4762 0,2.97816 3.3426,9.5698 6.2053,12.23674 1.4851,1.38361 2.235,3.31061 2.3003,5.91074 0.053,2.12183 0.8037,4.56479 1.6677,5.42882 1.7464,1.74642 1.3844,6.21599 -0.7034,8.68386 -1.0301,1.21765 -0.9585,2.93932 0.3806,9.14648 0.9072,4.20556 2.438,8.51708 3.4017,9.58115 0.9637,1.06407 1.4512,2.23565 1.0833,2.60352 -0.3678,0.36787 -0.1438,0.66885 0.4979,0.66885 0.6416,0 1.1666,1.0699 1.1666,2.37756 0,1.30765 0.675,2.93775 1.5,3.62244 0.825,0.68469 1.5,1.78016 1.5,2.43439 0,0.65422 1.3625,2.19684 3.0278,3.42805 1.6653,1.2312 2.7638,2.66583 2.441,3.18806 -0.3227,0.52222 0.4522,0.95079 1.7222,0.95238 1.4506,0.002 3.0525,1.116 4.309,2.99712 1.1,1.64684 2.5891,2.99554 3.309,2.99712 0.72,0.002 1.073,0.38484 0.7845,0.85167 -0.6054,0.97952 3.0787,5.76524 9.0808,11.79616 2.2959,2.30688 4.9326,5.35163 5.8594,6.76611 0.9268,1.41447 2.0535,2.3441 2.5037,2.06583 0.4503,-0.27826 1.133,0.48455 1.5172,1.69514 0.3842,1.21058 2.2166,3.63275 4.072,5.38259 1.8554,1.74985 3.3734,3.6909 3.3734,4.31346 0,0.62255 0.7921,1.13192 1.7602,1.13192 0.9682,0 2.8895,1.04706 4.2696,2.32681 1.3802,1.27974 2.9845,2.16843 3.5652,1.97486 0.5807,-0.19357 2.5543,0.27812 4.3858,1.04819 3.7393,1.57229 8.0192,1.85255 8.0192,0.52514 z m 6.2045,-41.47407 c -0.8033,-1.43553 -1.9174,-1.61133 -6.9066,-1.08985 -6.1551,0.64333 -10.2979,-0.8447 -10.2979,-3.6988 0,-3.02608 12.1051,-5.43327 25.5,-5.07085 7.5326,0.2038 7.853,0.5353 6.0012,6.20857 -0.641,1.96375 -1.4193,2.25 -6.1178,2.25 -3.4692,0 -5.2945,0.40003 -5.1334,1.125 0.4184,1.88248 -2.0226,2.10364 -3.0455,0.27593 z m 3.2955,-20.46618 c -3.85,-0.42972 -8.4604,-0.54114 -10.2454,-0.2476 -1.8944,0.31153 -4.9554,-0.15054 -7.3534,-1.11 -4.5633,-1.82588 -16.1912,-3.08804 -25.4478,-2.76226 -4.959,0.17453 -6.455,-0.16777 -8.3178,-1.90317 -1.2695,-1.18277 -2.0208,-2.76853 -1.7034,-3.59563 0.3123,-0.81382 0.5678,-1.89286 0.5678,-2.39788 0,-1.50848 5.6553,-1.03846 7,0.58179 0.8133,0.9799 3.0401,1.5 6.4225,1.5 2.8476,0 5.6868,0.50923 6.3092,1.13163 0.6224,0.6224 3.0528,1.30468 5.4009,1.51619 2.3482,0.21151 4.5165,0.7739 4.8184,1.24976 1.0501,1.65482 6.3745,0.85414 8.4626,-1.27258 4.2767,-4.35576 8.819,-5.82369 17.2134,-5.56275 8.5495,0.26575 17.1722,-0.7571 19.0634,-2.26135 0.6547,-0.52075 2.0047,-0.86217 3,-0.75871 3.5096,0.36484 7.635,-0.0502 6.9827,-0.7025 -0.3632,-0.36316 0.2561,-1.30222 1.3762,-2.08679 1.5981,-1.11934 2.348,-1.16809 3.4827,-0.22639 0.7953,0.66006 1.2026,1.59396 0.9051,2.07534 -0.2975,0.48138 0.1574,0.60725 1.011,0.27971 2.3617,-0.90627 1.838,1.60857 -1.2718,6.10698 -2.3461,3.39374 -4.168,4.54114 -12.2168,7.69397 -9.9669,3.9042 -12.5941,4.1882 -25.4595,2.75224 z m 88,-1.93475 c 0.3399,-0.55 0.8165,-1 1.059,-1 0.2426,0 0.441,0.45 0.441,1 0,0.55 -0.4765,1 -1.059,1 -0.5825,0 -0.7809,-0.45 -0.441,-1 z m -169.5,-11 c 0,-0.55 0.7016,-1 1.559,-1 0.8575,0 1.2809,0.45 0.941,1 -0.3399,0.55 -1.0415,1 -1.559,1 -0.5175,0 -0.941,-0.45 -0.941,-1 z m 74.5589,-6.5318 c -1.1454,-0.86631 -4.1355,-1.4682 -7.2938,-1.4682 -3.6968,0 -5.3056,-0.38671 -5.2004,-1.25 0.3442,-2.8244 -1.4764,-5.75667 -5.037,-8.11302 -4.6347,-3.06709 -9.0188,-7.06293 -9.0535,-8.25165 -0.014,-0.48693 -1.8142,-1.70989 -4,-2.71769 -3.0479,-1.40529 -3.9742,-2.40182 -3.9742,-4.27568 0,-2.38188 0.074,-2.40509 2.9405,-0.92276 1.6172,0.83631 3.7155,2.83277 4.6629,4.43658 1.3572,2.29755 2.6829,3.06002 6.2506,3.59504 4.3045,0.64548 4.6813,0.50171 7.6305,-2.9109 1.7063,-1.97446 3.5082,-3.58992 4.0042,-3.58992 0.496,0 2.1916,-1.23561 3.7679,-2.7458 2.727,-2.61269 3.4568,-2.77087 15.0547,-3.26327 12.7782,-0.5425 14.6679,-1.03027 14.7213,-3.79995 0.018,-0.93004 0.9993,0.5018 2.1807,3.18187 1.9206,4.35688 2.028,5.44545 1.0138,10.28046 -1.156,5.51138 -4.4792,11.34669 -6.4618,11.34669 -0.6043,0 -2.4284,1.2375 -4.0537,2.75 -1.6254,1.5125 -4.2504,3.95288 -5.8334,5.42308 -1.583,1.47019 -2.8782,2.24613 -2.8782,1.72432 0,-0.52182 -1.3276,-0.2622 -2.9503,0.57692 -3.5074,1.81372 -3.0841,1.81419 -5.4908,-0.006 z m -56.0589,-92.95968 c -0.55,-0.18347 -2.3265,-0.62886 -3.9478,-0.98976 -2.2765,-0.50673 -2.6181,-0.8648 -1.5,-1.57216 0.7963,-0.50378 2.8552,-0.92287 4.5754,-0.93129 1.7201,-0.008 3.6877,-0.69031 4.3724,-1.51531 0.6847,-0.825 1.7957,-1.5 2.4688,-1.5 0.6732,0 2.6842,-0.72848 4.469,-1.61886 2.7036,-1.34872 3.6887,-1.41028 5.9037,-0.36888 1.6633,0.78204 2.1681,1.42673 1.3486,1.72217 -0.7205,0.25972 -2.3588,1.44423 -3.6407,2.63225 -1.2819,1.18802 -4.4114,2.71652 -6.9544,3.39668 -4.7211,1.2627 -5.3466,1.32839 -7.095,0.74516 z m 126.5,-4.50852 c 0,-0.55 0.9,-1 2,-1 1.1,0 2,0.45 2,1 0,0.55 -0.9,1 -2,1 -1.1,0 -2,-0.45 -2,-1 z m 8.5,-3 c 0.3399,-0.55 1.0415,-1 1.559,-1 0.5176,0 0.941,0.45 0.941,1 0,0.55 -0.7015,1 -1.559,1 -0.8575,0 -1.2809,-0.45 -0.941,-1 z m -146.75,-144.662282 c 0.6875,-0.27741 1.8125,-0.27741 2.5,0 0.6875,0.27741 0.125,0.50439 -1.25,0.50439 -1.375,0 -1.9375,-0.22698 -1.25,-0.50439 z m 171.25,250.221302 c 0,-0.24254 -0.45,-0.7191 -1,-1.05902 -0.55,-0.33992 -1,-0.14148 -1,0.44098 0,0.58246 0.45,1.05902 1,1.05902 0.55,0 1,-0.19844 1,-0.44098 z m -71.5383,-125.93537 c 0.6698,0.25705 1.7951,-0.22811 2.5006,-1.07814 0.7054,-0.85003 2.2625,-1.54551 3.4602,-1.54551 1.1976,0 2.605,-0.39019 3.1275,-0.86709 2.4858,-2.2688 11.9193,-4.27147 22.7663,-4.83309 11.3865,-0.58956 11.7501,-0.67727 10,-2.41198 -3.9752,-3.94003 -19.7132,-6.12118 -27.2453,-3.77595 -8.2264,2.56144 -15.9541,8.11629 -16.0417,11.53112 -0.016,0.62866 -0.7328,1.41298 -1.5927,1.74294 -0.8598,0.32996 -1.259,1.09231 -0.8871,1.69412 0.4549,0.73596 1.0066,0.76386 1.6852,0.0852 0.555,-0.55495 1.5571,-0.79868 2.227,-0.54163 z m -159.9042,-66.33448 c -0.3066,-0.79901 -0.5575,-1.64094 -0.5575,-1.87096 0,-0.23001 -0.45,-0.41821 -1,-0.41821 -0.55,0 -1,1.11088 -1,2.46862 0,1.82396 0.4067,2.31254 1.5575,1.87095 0.8566,-0.32871 1.3066,-1.25139 1,-2.0504 z" id="path84"/> </svg>